<svg version="1.1" xmlns="http://www.w3.org/2000/svg" xmlns:xlink="http://www.w3.org/1999/xlink" width="62" height="72"><defs/><g><path fill="rgb(32,170,151)" stroke="none" paint-order="stroke fill markers" fill-rule="evenodd" d=" M 34.31391906738281 67.60356020927429 C 34.31391906738281 67.60356020927429 3.7730712890625 67.60356020927429 3.7730712890625 67.60356020927429 C 2.2965545654296875 67.6008574962616 1.0024566650390625 66.31960260868073 1.0024566650390625 64.86132001876831 C 1.0024566650390625 64.86132001876831 1.0024566650390625 4.735246062278748 1.0024566650390625 4.735246062278748 C 1.0010833740234375 4.055851578712463 1.3120193481445312 3.3558489084243774 1.8558425903320312 2.8173333406448364 C 2.3921127319335938 2.285743474960327 3.0730361938476562 1.9928369522094727 3.7730712890625 1.9928369522094727 C 3.7730712890625 1.9928369522094727 34.904205322265625 1.9928369522094727 34.904205322265625 1.9928369522094727 C 35.578834533691406 2.0360803604125977 36.32544708251953 2.2700339555740356 36.84283447265625 2.765137195587158 C 36.84283447265625 2.765137195587158 50.20037841796875 15.97768759727478 50.20037841796875 15.97768759727478 C 50.7176513671875 16.48343276977539 51.017372131347656 17.198469281196594 51.017372131347656 17.93360722064972 C 51.017372131347656 17.93360722064972 51.017372131347656 42.57204580307007 51.017372131347656 42.57204580307007 C 51.017372131347656 43.27627146244049 50.440818786621094 43.847219586372375 49.728309631347656 43.847219586372375 C 49.01580047607422 43.847219586372375 48.439247131347656 43.27627146244049 48.439247131347656 42.57204580307007 C 48.439247131347656 42.57204580307007 48.439247131347656 17.93360722064972 48.439247131347656 17.93360722064972 C 48.439247131347656 17.87313401699066 48.41029357910156 17.814181089401245 48.382484436035156 17.78614044189453 C 48.382484436035156 17.78614044189453 35.035011291503906 4.582711696624756 35.035011291503906 4.582711696624756 C 35.01750183105469 4.565988659858704 34.9595947265625 4.543691277503967 34.91301727294922 4.543691277503967 C 34.91301727294922 4.543691277503967 34.91301727294922 4.543691277503967 34.91301727294922 4.543691277503967 C 34.91301727294922 4.543691277503967 3.7730712890625 4.543691277503967 3.7730712890625 4.543691277503967 C 3.721343994140625 4.559738636016846 3.596832275390625 4.694029688835144 3.576690673828125 4.773759722709656 C 3.576690673828125 4.773759722709656 3.5804672241210938 64.86132001876831 3.5804672241210938 64.86132001876831 C 3.5828704833984375 64.92719864845276 3.707611083984375 65.05186128616333 3.7754745483398438 65.05321264266968 C 3.7754745483398438 65.05321264266968 34.31391906738281 65.05321264266968 34.31391906738281 65.05321264266968 C 35.02631378173828 65.05321264266968 35.60298156738281 65.62348508834839 35.60298156738281 66.32838642597198 C 35.60298156738281 67.03311884403229 35.02631378173828 67.60356020927429 34.31391906738281 67.60356020927429 Z M 48.439247131347656 19.25540280342102 C 48.439247131347656 19.25540280342102 34.206687927246094 19.25540280342102 34.206687927246094 19.25540280342102 C 33.494293212890625 19.25540280342102 32.917625427246094 18.684454679489136 32.917625427246094 17.980229020118713 C 32.917625427246094 17.980229020118713 32.917625427246094 3.90078341960907 32.917625427246094 3.90078341960907 C 32.917625427246094 3.1965577602386475 33.494293212890625 2.625778555870056 34.206687927246094 2.625778555870056 C 34.9193115234375 2.625778555870056 35.495750427246094 3.1965577602386475 35.495750427246094 3.90078341960907 C 35.495750427246094 3.90078341960907 35.495750427246094 16.705055236816406 35.495750427246094 16.705055236816406 C 35.495750427246094 16.705055236816406 48.439247131347656 16.705055236816406 48.439247131347656 16.705055236816406 C 49.151756286621094 16.705055236816406 49.728309631347656 17.276172280311584 49.728309631347656 17.980229020118713 C 49.728309631347656 18.684454679489136 49.151756286621094 19.25540280342102 48.439247131347656 19.25540280342102 Z M 26.00928497314453 21.749500155448914 C 26.00928497314453 21.749500155448914 17.723419189453125 21.749500155448914 17.723419189453125 21.749500155448914 C 17.011024475097656 21.749500155448914 16.434356689453125 21.178214192390442 16.434356689453125 20.473819613456726 C 16.434356689453125 19.769762873649597 17.011024475097656 19.198814749717712 17.723419189453125 19.198814749717712 C 17.723419189453125 19.198814749717712 26.00928497314453 19.198814749717712 26.00928497314453 19.198814749717712 C 26.7216796875 19.198814749717712 27.29834747314453 19.769762873649597 27.29834747314453 20.473819613456726 C 27.29834747314453 21.178214192390442 26.7216796875 21.749500155448914 26.00928497314453 21.749500155448914 Z M 32.57395935058594 28.30661976337433 C 32.57395935058594 28.30661976337433 11.477119445800781 28.30661976337433 11.477119445800781 28.30661976337433 C 10.764610290527344 28.30661976337433 10.188056945800781 27.73550271987915 10.188056945800781 27.031277060508728 C 10.188056945800781 26.326882481575012 10.764610290527344 25.75610327720642 11.477119445800781 25.75610327720642 C 11.477119445800781 25.75610327720642 32.57395935058594 25.75610327720642 32.57395935058594 25.75610327720642 C 33.286582946777344 25.75610327720642 33.86302185058594 26.326882481575012 33.86302185058594 27.031277060508728 C 33.86302185058594 27.73550271987915 33.286582946777344 28.30661976337433 32.57395935058594 28.30661976337433 Z M 33.65794372558594 36.21914994716644 C 33.65794372558594 36.21914994716644 14.72369384765625 36.21914994716644 14.72369384765625 36.21914994716644 C 14.011299133300781 36.21914994716644 13.43463134765625 35.64820182323456 13.43463134765625 34.94380724430084 C 13.43463134765625 34.23958158493042 14.011299133300781 33.66846454143524 14.72369384765625 33.66846454143524 C 14.72369384765625 33.66846454143524 33.65794372558594 33.66846454143524 33.65794372558594 33.66846454143524 C 34.370452880859375 33.66846454143524 34.94700622558594 34.23958158493042 34.94700622558594 34.94380724430084 C 34.94700622558594 35.64820182323456 34.370452880859375 36.21914994716644 33.65794372558594 36.21914994716644 Z M 24.11711883544922 44.79333806037903 C 24.11711883544922 44.79333806037903 10.486518859863281 44.79333806037903 10.486518859863281 44.79333806037903 C 9.773895263671875 44.79333806037903 9.197456359863281 44.222389936447144 9.197456359863281 43.51799535751343 C 9.197456359863281 42.81343185901642 9.773895263671875 42.24265265464783 10.486518859863281 42.24265265464783 C 10.486518859863281 42.24265265464783 24.11711883544922 42.24265265464783 24.11711883544922 42.24265265464783 C 24.829627990722656 42.24265265464783 25.40618133544922 42.81343185901642 25.40618133544922 43.51799535751343 C 25.40618133544922 44.222389936447144 24.829627990722656 44.79333806037903 24.11711883544922 44.79333806037903 Z M 46.62776184082031 70.9983366727829 C 46.62776184082031 70.9983366727829 42.81104278564453 70.9983366727829 42.81104278564453 70.9983366727829 C 41.02336120605469 70.9983366727829 39.51789093017578 69.78144013881683 39.171592712402344 68.11775135993958 C 37.86994171142578 68.99579524993896 35.7652587890625 68.8089702129364 34.57438659667969 67.63092517852783 C 34.57438659667969 67.63092517852783 31.85515594482422 64.93969869613647 31.85515594482422 64.93969869613647 C 30.624229431152344 63.65962624549866 30.451766967773438 61.79171371459961 31.375648498535156 60.36332988739014 C 29.721519470214844 60.07667338848114 28.45008087158203 58.573964953422546 28.45008087158203 56.79169464111328 C 28.45008087158203 56.79169464111328 28.45008087158203 53.015835642814636 28.45008087158203 53.015835642814636 C 28.45008087158203 51.25011944770813 29.677459716796875 49.760586738586426 31.35802459716797 49.41565299034119 C 30.400039672851562 48.12493860721588 30.57250213623047 46.13624858856201 31.85515594482422 44.86766266822815 C 31.85515594482422 44.86766266822815 34.57438659667969 42.17728078365326 34.57438659667969 42.17728078365326 C 35.871002197265625 40.959370732307434 37.76179504394531 40.79011332988739 39.201805114746094 41.70481276512146 C 39.48893737792969 40.06781327724457 41.006996154785156 38.80936253070831 42.81104278564453 38.80936253070831 C 42.81104278564453 38.80936253070831 46.62776184082031 38.80936253070831 46.62776184082031 38.80936253070831 C 48.412811279296875 38.80936253070831 49.91839599609375 40.022711753845215 50.26709747314453 41.685049176216125 C 51.571266174316406 40.73893070220947 53.582794189453125 40.909032702445984 54.86430358886719 42.17728078365326 C 54.86430358886719 42.17728078365326 57.57472229003906 44.857189655303955 57.57472229003906 44.857189655303955 C 58.84101104736328 46.059728026390076 59.02857971191406 47.97628939151764 58.064414978027344 49.44555175304413 C 59.71728515625 49.73051905632019 60.988609313964844 51.23255181312561 60.988609313964844 53.015835642814636 C 60.988609313964844 53.015835642814636 60.988609313964844 56.79169464111328 60.988609313964844 56.79169464111328 C 60.988609313964844 58.558762192726135 59.76134490966797 60.048125982284546 58.08192443847656 60.392046213150024 C 59.03876495361328 61.682084918022156 58.86744689941406 63.67195737361908 57.584678649902344 64.93969869613647 C 57.584678649902344 64.93969869613647 54.86430358886719 67.63092517852783 54.86430358886719 67.63092517852783 C 53.68224334716797 68.80018639564514 51.655609130859375 69.01927506923676 50.23688507080078 68.1066026687622 C 49.94597625732422 69.74157512187958 48.429290771484375 70.9983366727829 46.62776184082031 70.9983366727829 Z M 40.09192657470703 64.62956237792969 C 40.258094787597656 64.62956237792969 40.42540740966797 64.66216385364532 40.584022521972656 64.72567760944366 C 40.99188995361328 64.8925701379776 41.285316467285156 65.25490260124207 41.36199188232422 65.68446505069733 C 41.36199188232422 65.68446505069733 41.669151306152344 67.41926896572113 41.669151306152344 67.41926896572113 C 41.73976135253906 68.05052137374878 42.215492248535156 68.44798910617828 42.81104278564453 68.44798910617828 C 42.81104278564453 68.44798910617828 46.62776184082031 68.44798910617828 46.62776184082031 68.44798910617828 C 47.19939422607422 68.44798910617828 47.6561279296875 68.06690657138824 47.71540832519531 67.54105997085571 C 47.71540832519531 67.54105997085571 48.033897399902344 65.69071507453918 48.033897399902344 65.69071507453918 C 48.108055114746094 65.25980126857758 48.398963928222656 64.89729988574982 48.805458068847656 64.72787356376648 C 49.21355438232422 64.55979859828949 49.67932891845703 64.608447432518 50.040618896484375 64.85878622531891 C 50.040618896484375 64.85878622531891 51.488182067871094 65.85625624656677 51.488182067871094 65.85625624656677 C 52.08110046386719 66.31588637828827 52.66761016845703 66.19865620136261 53.041603088378906 65.82753992080688 C 53.041603088378906 65.82753992080688 55.761863708496094 63.13648235797882 55.761863708496094 63.13648235797882 C 56.15977478027344 62.742899775505066 56.22386169433594 62.14897859096527 55.9105224609375 61.78292989730835 C 55.9105224609375 61.78292989730835 54.78636932373047 60.216200947761536 54.78636932373047 60.216200947761536 C 54.53196716308594 59.859949588775635 54.48046875 59.397785663604736 54.64904022216797 58.994574666023254 C 54.81646728515625 58.59136366844177 55.18290710449219 58.300822019577026 55.617095947265625 58.22514605522156 C 55.617095947265625 58.22514605522156 57.372047424316406 57.921090841293335 57.372047424316406 57.921090841293335 C 58.010284423828125 57.85132706165314 58.410484313964844 57.38054823875427 58.410484313964844 56.79169464111328 C 58.410484313964844 56.79169464111328 58.410484313964844 53.015835642814636 58.410484313964844 53.015835642814636 C 58.410484313964844 52.45029294490814 58.02527618408203 51.998433113098145 57.496559143066406 51.94116938114166 C 57.496559143066406 51.94116938114166 55.623504638671875 51.626134395599365 55.623504638671875 51.626134395599365 C 55.18794250488281 51.55265438556671 54.821502685546875 51.26481544971466 54.650299072265625 50.86261796951294 C 54.48046875 50.459238052368164 54.529563903808594 49.99842548370361 54.7825927734375 49.64116060733795 C 54.7825927734375 49.64116060733795 55.79081726074219 48.20855379104614 55.79081726074219 48.20855379104614 C 56.203834533691406 47.682369351387024 56.18495178222656 47.06885349750519 55.78578186035156 46.6941899061203 C 55.77696990966797 46.68675744533539 55.76953125 46.67915606498718 55.761863708496094 46.6710479259491 C 55.761863708496094 46.6710479259491 53.041603088378906 43.98066604137421 53.041603088378906 43.98066604137421 C 52.64380645751953 43.587759137153625 52.0433349609375 43.52407646179199 51.67334747314453 43.833537101745605 C 51.67334747314453 43.833537101745605 50.090858459472656 44.945196747779846 50.090858459472656 44.945196747779846 C 49.729454040527344 45.19840717315674 49.2637939453125 45.24874520301819 48.85466766357422 45.082021594047546 C 48.446800231933594 44.91512906551361 48.15222930908203 44.552796602249146 48.076698303222656 44.12238955497742 C 48.076698303222656 44.12238955497742 47.77079772949219 42.386741042137146 47.77079772949219 42.386741042137146 C 47.70030212402344 41.75700891017914 47.224456787109375 41.35987901687622 46.62776184082031 41.35987901687622 C 46.62776184082031 41.35987901687622 42.81104278564453 41.35987901687622 42.81104278564453 41.35987901687622 C 42.239524841308594 41.35987901687622 41.782562255859375 41.740285873413086 41.72465515136719 42.26461219787598 C 41.72465515136719 42.26461219787598 41.40605163574219 44.11816656589508 41.40605163574219 44.11816656589508 C 41.33177947998047 44.54857361316681 41.040985107421875 44.91056823730469 40.63323211669922 45.079487800598145 C 40.22662353515625 45.24874520301819 39.762107849121094 45.19958961009979 39.39818572998047 44.949588656425476 C 39.39818572998047 44.949588656425476 37.95050811767578 43.951274037361145 37.95050811767578 43.951274037361145 C 37.442047119140625 43.56394147872925 36.79877471923828 43.6012727022171 36.37328338623047 44.00363910198212 C 36.37328338623047 44.00363910198212 33.67808532714844 46.6710479259491 33.67808532714844 46.6710479259491 C 33.28028869628906 47.06446158885956 33.21482849121094 47.65905845165253 33.528282165527344 48.02460038661957 C 33.528282165527344 48.02460038661957 34.652435302734375 49.589977979660034 34.652435302734375 49.589977979660034 C 34.907981872558594 49.94758069515228 34.9595947265625 50.40805542469025 34.79216766357422 50.81295561790466 C 34.62348175048828 51.21633553504944 34.25715637207031 51.506370425224304 33.822853088378906 51.58238422870636 C 33.822853088378906 51.58238422870636 32.068016052246094 51.886608362197876 32.068016052246094 51.886608362197876 C 31.429893493652344 51.95603430271149 31.028091430664062 52.42681312561035 31.028091430664062 53.015835642814636 C 31.028091430664062 53.015835642814636 31.028091430664062 56.79169464111328 31.028091430664062 56.79169464111328 C 31.028091430664062 57.35706841945648 31.413528442382812 57.80909717082977 31.94476318359375 57.867374420166016 C 31.94476318359375 57.867374420166016 33.816558837890625 58.180044531822205 33.816558837890625 58.180044531822205 C 34.25074768066406 58.25352454185486 34.618446350097656 58.54254591464996 34.78839111328125 58.944743394851685 C 34.9595947265625 59.34829223155975 34.91038513183594 59.809104800224304 34.657470703125 60.16772103309631 C 34.657470703125 60.16772103309631 33.647987365722656 61.59982109069824 33.647987365722656 61.59982109069824 C 33.25751495361328 62.10286355018616 33.29539489746094 62.73817002773285 33.70085906982422 63.15877974033356 C 33.70085906982422 63.15877974033356 36.39720153808594 65.82753992080688 36.39720153808594 65.82753992080688 C 36.767303466796875 66.1937575340271 37.542640686035156 66.16892635822296 37.751609802246094 65.98581755161285 C 37.78571319580078 65.95693230628967 37.820960998535156 65.92990517616272 37.85746765136719 65.90338480472565 C 37.85746765136719 65.90338480472565 39.349205017089844 64.86250245571136 39.349205017089844 64.86250245571136 C 39.56938934326172 64.7092924118042 39.83008575439453 64.62956237792969 40.09192657470703 64.62956237792969 Z M 45.270835876464844 62.2412086725235 C 41.18071746826172 62.2412086725235 37.85369110107422 58.949642062187195 37.85369110107422 54.903849601745605 C 37.85369110107422 50.85771930217743 41.18071746826172 47.56649053096771 45.270835876464844 47.56649053096771 C 49.36072540283203 47.56649053096771 52.6878662109375 50.85771930217743 52.6878662109375 54.903849601745605 C 52.6878662109375 58.949642062187195 49.36072540283203 62.2412086725235 45.270835876464844 62.2412086725235 Z M 45.270835876464844 50.11666917800903 C 42.601959228515625 50.11666917800903 40.43181610107422 52.26397466659546 40.43181610107422 54.903849601745605 C 40.43181610107422 57.543893456459045 42.601959228515625 59.690861105918884 45.270835876464844 59.690861105918884 C 47.939483642578125 59.690861105918884 50.10985565185547 57.543893456459045 50.10985565185547 54.903849601745605 C 50.10985565185547 52.26397466659546 47.939483642578125 50.11666917800903 45.270835876464844 50.11666917800903 Z"/></g></svg>