<svg version="1.1" xmlns="http://www.w3.org/2000/svg" xmlns:xlink="http://www.w3.org/1999/xlink" width="73" height="73"><defs/><g><path fill="rgb(32,170,151)" stroke="none" paint-order="stroke fill markers" fill-rule="evenodd" d=" M 47.63575744628906 58.288851737976074 C 42.39093017578125 58.288851737976074 37.446510314941406 56.29053330421448 33.714820861816406 52.663323521614075 C 33.714820861816406 52.663323521614075 18.21917724609375 37.595022797584534 18.21917724609375 37.595022797584534 C 12.230255126953125 31.772196531295776 10.723297119140625 22.965575098991394 14.468719482421875 15.680243253707886 C 14.531547546386719 15.55879008769989 14.614517211914062 15.447641015052795 14.713851928710938 15.351694703102112 C 14.713851928710938 15.351694703102112 14.717628479003906 15.347978472709656 14.717628479003906 15.347978472709656 C 15.971900939941406 13.071618437767029 18.260604858398438 11.719248414039612 20.883705139160156 11.719248414039612 C 22.70995330810547 11.719248414039612 24.47955322265625 12.42330515384674 25.74011993408203 13.649830102920532 C 25.74011993408203 13.649830102920532 32.30845642089844 19.89444851875305 32.30845642089844 19.89444851875305 C 33.758880615234375 21.303237676620483 34.480316162109375 23.221319317817688 34.29927062988281 25.166428089141846 C 34.304420471191406 26.72234618663788 33.374359130859375 28.50985300540924 31.817047119140625 29.833675622940063 C 31.350814819335938 30.19803512096405 31.088058471679688 30.69550323486328 31.088058471679688 31.16594421863556 C 31.088058471679688 31.22506606578827 31.084396362304688 31.285032510757446 31.075469970703125 31.34381651878357 C 30.978652954101562 31.994494676589966 31.354476928710938 32.471354603767395 31.588394165039062 32.69720005989075 C 31.588394165039062 32.69720005989075 38.60533905029297 39.52138149738312 38.60533905029297 39.52138149738312 C 38.96971893310547 39.875436902046204 39.46742248535156 40.04824161529541 39.99041748046875 40.028984785079956 C 40.52954864501953 39.999592781066895 41.03240203857422 39.748409390449524 41.36920166015625 39.33962404727936 C 42.61454772949219 37.78150999546051 44.58281707763672 36.88015520572662 46.758567810058594 36.88015520572662 C 48.58470153808594 36.88015520572662 50.40831756591797 37.63539457321167 51.76203918457031 38.95229148864746 C 51.76203918457031 38.95229148864746 58.34033203125 45.34944427013397 58.34033203125 45.34944427013397 C 59.89512634277344 46.86059868335724 60.54228973388672 48.91381597518921 60.16154479980469 51.13206768035889 C 59.81455993652344 53.326839566230774 58.58031463623047 55.036643385887146 56.589500427246094 56.0706000328064 C 56.589500427246094 56.0706000328064 56.582061767578125 56.077863574028015 56.582061767578125 56.077863574028015 C 56.49268341064453 56.16468822956085 56.389801025390625 56.238168239593506 56.277992248535156 56.29560089111328 C 53.74541473388672 57.59965991973877 50.75782012939453 58.288851737976074 47.63575744628906 58.288851737976074 Z M 16.679489135742188 16.980586051940918 C 13.547470092773438 23.265238404273987 14.884712219238281 30.813409090042114 20.039016723632812 35.82542145252228 C 20.039016723632812 35.82542145252228 35.534889221191406 50.89389109611511 35.534889221191406 50.89389109611511 C 38.77997589111328 54.04795718193054 43.0784912109375 55.78580164909363 47.63575744628906 55.78580164909363 C 50.27007293701172 55.78580164909363 52.779991149902344 55.2263400554657 54.90790557861328 54.1677211523056 C 54.90790557861328 54.1677211523056 54.916717529296875 54.15927517414093 54.916717529296875 54.15927517414093 C 55.01342010498047 54.06501805782318 55.12522888183594 53.987990736961365 55.247222900390625 53.92819321155548 C 56.609642028808594 53.26602852344513 57.38520812988281 52.22075426578522 57.62004089355469 50.73612022399902 C 57.86265563964844 49.322094559669495 57.4705810546875 48.04303562641144 56.52037811279297 47.1197212934494 C 56.52037811279297 47.118876695632935 56.52037811279297 47.118876695632935 56.52037811279297 47.118876695632935 C 56.52037811279297 47.118876695632935 49.94208526611328 40.72172391414642 49.94208526611328 40.72172391414642 C 49.067298889160156 39.87138283252716 47.90595245361328 39.383036375045776 46.758567810058594 39.383036375045776 C 45.383445739746094 39.383036375045776 44.155494689941406 39.9323627948761 43.38885498046875 40.88996779918671 C 42.584449768066406 41.867674231529236 41.401817321777344 42.4597373008728 40.13232421875 42.52747404575348 C 38.866607666015625 42.60821759700775 37.662689208984375 42.143182039260864 36.78527069091797 41.29081392288208 C 36.78527069091797 41.29081392288208 29.76844024658203 34.46764600276947 29.76844024658203 34.46764600276947 C 28.815719604492188 33.54230463504791 28.361961364746094 32.310543179512024 28.51531219482422 31.076247930526733 C 28.544151306152344 29.8765811920166 29.156295776367188 28.701069951057434 30.165550231933594 27.914918303489685 C 31.11449432373047 27.106638193130493 31.730300903320312 25.99683666229248 31.730300903320312 25.053420901298523 C 31.847259521484375 23.737199664115906 31.39716339111328 22.546992421150208 30.498573303222656 21.674185037612915 C 30.498573303222656 21.674185037612915 23.93035125732422 15.429059863090515 23.93035125732422 15.429059863090515 C 23.149749755859375 14.669766426086426 22.01495361328125 14.222467422485352 20.883705139160156 14.222467422485352 C 19.159194946289062 14.222467422485352 17.71392059326172 15.110139727592468 16.91832733154297 16.65811860561371 C 16.85675811767578 16.777206897735596 16.77630615234375 16.886666774749756 16.679489135742188 16.980586051940918 Z M 55.67591857910156 55.189515590667725 C 55.67591857910156 55.189515590667725 55.688392639160156 55.189515590667725 55.688392639160156 55.189515590667725 C 55.688392639160156 55.189515590667725 55.67591857910156 55.189515590667725 55.67591857910156 55.189515590667725 Z M 46.70317840576172 14.489360332489014 C 46.249420166015625 14.489360332489014 45.808250427246094 14.255406737327576 45.57444763183594 13.841215968132019 C 45.57444763183594 13.841215968132019 41.937171936035156 7.414333343505859 41.937171936035156 7.414333343505859 C 41.59419250488281 6.809601306915283 41.82147216796875 6.048111915588379 42.443687438964844 5.715002536773682 C 42.443687438964844 5.715002536773682 49.05230712890625 2.177657961845398 49.05230712890625 2.177657961845398 C 49.67555236816406 1.8433661460876465 50.45867156982422 2.0651575326919556 50.800506591796875 2.6702274084091187 C 51.14360046386719 3.2759729623794556 50.91609191894531 4.037124514579773 50.29399108886719 4.37023389339447 C 50.29399108886719 4.37023389339447 44.812843322753906 7.304366707801819 44.812843322753906 7.304366707801819 C 44.812843322753906 7.304366707801819 47.82927703857422 12.634792447090149 47.82927703857422 12.634792447090149 C 48.17237091064453 13.239862322807312 47.944976806640625 14.001351714134216 47.32276153564453 14.33429217338562 C 47.125465393066406 14.440035820007324 46.913063049316406 14.489360332489014 46.70317840576172 14.489360332489014 Z M 69.70729064941406 36.532856583595276 C 69.03609466552734 36.532856583595276 68.4719009399414 36.02744925022125 68.42406463623047 35.36731159687042 C 67.50773620605469 22.389390468597412 58.163177490234375 11.618572354316711 45.171043395996094 8.566364765167236 C 45.171043395996094 8.566364765167236 44.173118591308594 8.348796367645264 44.173118591308594 8.348796367645264 C 43.47686004638672 8.209268808364868 43.02813720703125 7.547610878944397 43.171417236328125 6.870412349700928 C 43.314697265625 6.194227337837219 43.99836730957031 5.7530094385147095 44.69096374511719 5.897097826004028 C 44.69096374511719 5.897097826004028 45.77300262451172 6.132740616798401 45.77300262451172 6.132740616798401 C 59.865028381347656 9.443395137786865 69.99888610839844 21.122493743896484 70.99303436279297 35.19585824012756 C 71.0408706665039 35.88521897792816 70.50540161132812 36.483025312423706 69.79655456542969 36.52998495101929 C 69.76634216308594 36.531843066215515 69.73750305175781 36.532856583595276 69.70729064941406 36.532856583595276 Z M 46.70317840576172 14.489360332489014 C 46.249420166015625 14.489360332489014 45.808250427246094 14.255406737327576 45.57444763183594 13.841215968132019 C 45.57444763183594 13.841215968132019 41.937171936035156 7.414333343505859 41.937171936035156 7.414333343505859 C 41.59419250488281 6.809601306915283 41.82147216796875 6.048111915588379 42.443687438964844 5.715002536773682 C 42.443687438964844 5.715002536773682 49.05230712890625 2.177657961845398 49.05230712890625 2.177657961845398 C 49.67555236816406 1.8433661460876465 50.45867156982422 2.0651575326919556 50.800506591796875 2.6702274084091187 C 51.14360046386719 3.2759729623794556 50.91609191894531 4.037124514579773 50.29399108886719 4.37023389339447 C 50.29399108886719 4.37023389339447 44.812843322753906 7.304366707801819 44.812843322753906 7.304366707801819 C 44.812843322753906 7.304366707801819 47.82927703857422 12.634792447090149 47.82927703857422 12.634792447090149 C 48.17237091064453 13.239862322807312 47.944976806640625 14.001351714134216 47.32276153564453 14.33429217338562 C 47.125465393066406 14.440035820007324 46.913063049316406 14.489360332489014 46.70317840576172 14.489360332489014 Z M 23.33331298828125 71.01254892349243 C 22.879669189453125 71.01254892349243 22.438385009765625 70.77893316745758 22.20458221435547 70.36457347869873 C 21.861488342285156 69.7584900856018 22.089111328125 68.99852097034454 22.711212158203125 68.66456699371338 C 22.711212158203125 68.66456699371338 28.192245483398438 65.73161661624908 28.192245483398438 65.73161661624908 C 28.192245483398438 65.73161661624908 25.175811767578125 60.40085303783417 25.175811767578125 60.40085303783417 C 24.832717895507812 59.79426288604736 25.060226440429688 59.0342937707901 25.682327270507812 58.70067763328552 C 26.305801391601562 58.368243932724 27.08880615234375 58.586994767189026 27.430641174316406 59.19341599941254 C 27.430641174316406 59.19341599941254 31.067916870117188 65.6202986240387 31.067916870117188 65.6202986240387 C 31.41112518310547 66.22655093669891 31.183502197265625 66.98668897151947 30.5614013671875 67.32047402858734 C 30.5614013671875 67.32047402858734 23.952896118164062 70.85731184482574 23.952896118164062 70.85731184482574 C 23.755599975585938 70.96237981319427 23.543197631835938 71.01254892349243 23.33331298828125 71.01254892349243 Z M 28.574478149414062 67.16270315647125 C 28.490135192871094 67.16270315647125 28.404647827148438 67.15543961524963 28.31916046142578 67.1382098197937 C 28.31916046142578 67.1382098197937 27.225791931152344 66.90121567249298 27.225791931152344 66.90121567249298 C 13.140289306640625 63.59174358844757 3.006317138671875 51.911800384521484 2.0121688842773438 37.8386048078537 C 1.9643325805664062 37.14958190917969 2.4998016357421875 36.55194449424744 3.208648681640625 36.504984855651855 C 3.9275665283203125 36.4598833322525 4.53204345703125 36.97779071331024 4.581138610839844 37.667827129364014 C 5.497352600097656 50.64557933807373 14.842025756835938 61.41622853279114 27.83415985107422 64.46911180019379 C 27.83415985107422 64.46911180019379 28.827049255371094 64.68414640426636 28.827049255371094 64.68414640426636 C 29.524566650390625 64.82114017009735 29.975692749023438 65.4809399843216 29.835044860839844 66.15796959400177 C 29.71190643310547 66.75189077854156 29.17517852783203 67.16270315647125 28.574478149414062 67.16270315647125 Z M 23.33331298828125 71.01254892349243 C 22.879669189453125 71.01254892349243 22.438385009765625 70.77893316745758 22.20458221435547 70.36457347869873 C 21.861488342285156 69.7584900856018 22.089111328125 68.99852097034454 22.711212158203125 68.66456699371338 C 22.711212158203125 68.66456699371338 28.192245483398438 65.73161661624908 28.192245483398438 65.73161661624908 C 28.192245483398438 65.73161661624908 25.175811767578125 60.40085303783417 25.175811767578125 60.40085303783417 C 24.832717895507812 59.79426288604736 25.060226440429688 59.0342937707901 25.682327270507812 58.70067763328552 C 26.305801391601562 58.368243932724 27.08880615234375 58.586994767189026 27.430641174316406 59.19341599941254 C 27.430641174316406 59.19341599941254 31.067916870117188 65.6202986240387 31.067916870117188 65.6202986240387 C 31.41112518310547 66.22655093669891 31.183502197265625 66.98668897151947 30.5614013671875 67.32047402858734 C 30.5614013671875 67.32047402858734 23.952896118164062 70.85731184482574 23.952896118164062 70.85731184482574 C 23.755599975585938 70.96237981319427 23.543197631835938 71.01254892349243 23.33331298828125 71.01254892349243 Z M 43.84547424316406 30.808679342269897 C 43.002960205078125 30.731483101844788 42.31024932861328 30.51374578475952 41.736785888671875 30.191785097122192 C 41.24938201904297 29.9179664850235 41.110450744628906 29.294653296470642 41.434661865234375 28.84752321243286 C 41.434661865234375 28.84752321243286 41.447364807128906 28.830124497413635 41.447364807128906 28.830124497413635 C 41.732666015625 28.436204075813293 42.28186798095703 28.31491982936859 42.70484161376953 28.565765380859375 C 43.231842041015625 28.87826657295227 43.884613037109375 29.091443061828613 44.63031005859375 29.091443061828613 C 45.354148864746094 29.091443061828613 45.795433044433594 28.81762444972992 45.795433044433594 28.436204075813293 C 45.795433044433594 27.350558042526245 41.16069030761719 28.22049379348755 41.16069030761719 25.15646183490753 C 41.16069030761719 23.95290994644165 42.10425567626953 22.86760175228119 43.84547424316406 22.66439151763916 C 43.84547424316406 22.66439151763916 43.84547424316406 21.544116973876953 43.84547424316406 21.544116973876953 C 43.84547424316406 21.544116973876953 45.20640563964844 21.544116973876953 45.20640563964844 21.544116973876953 C 45.20640563964844 21.544116973876953 45.20640563964844 22.67706048488617 45.20640563964844 22.67706048488617 C 45.798866271972656 22.7562837600708 46.34669494628906 22.917770862579346 46.84153747558594 23.159494757652283 C 47.35697937011719 23.411353826522827 47.47393798828125 24.083146929740906 47.12351989746094 24.528587818145752 C 47.12351989746094 24.528587818145752 47.12351989746094 24.528587818145752 47.12351989746094 24.528587818145752 C 46.83695983886719 24.892778396606445 46.33032989501953 24.979603052139282 45.907814025878906 24.775886058807373 C 45.363075256347656 24.513047218322754 44.76145935058594 24.38196563720703 44.200927734375 24.38196563720703 C 43.587982177734375 24.38196563720703 43.31824493408203 24.62081789970398 43.31824493408203 24.953758358955383 C 43.31824493408203 25.96744465827942 47.94097137451172 25.228421568870544 47.94097137451172 28.185696363449097 C 47.94097137451172 29.615769386291504 46.97245788574219 30.617462396621704 45.20640563964844 30.808679342269897 C 45.20640563964844 30.808679342269897 45.20640563964844 31.89314293861389 45.20640563964844 31.89314293861389 C 45.20640563964844 31.89314293861389 43.84547424316406 31.89314293861389 43.84547424316406 31.89314293861389 C 43.84547424316406 31.89314293861389 43.84547424316406 30.808679342269897 43.84547424316406 30.808679342269897 Z"/></g></svg>