<svg version="1.1" xmlns="http://www.w3.org/2000/svg" xmlns:xlink="http://www.w3.org/1999/xlink" width="66" height="73"><defs/><g><path fill="rgb(32,170,151)" stroke="none" paint-order="stroke fill markers" fill-rule="evenodd" d=" M 35.397850036621094 70.82960903644562 C 35.397850036621094 70.82960903644562 3.874755859375 70.82960903644562 3.874755859375 70.82960903644562 C 2.3505172729492188 70.82960903644562 1.0133895874023438 69.48467147350311 1.0133895874023438 67.95240211486816 C 1.0133895874023438 67.95240211486816 1.0133895874023438 4.864154696464539 1.0133895874023438 4.864154696464539 C 1.0120162963867188 4.152158737182617 1.3329086303710938 3.4178653955459595 1.8943557739257812 2.852491617202759 C 2.447906494140625 2.29455029964447 3.1508026123046875 1.9877923727035522 3.874755859375 1.9877923727035522 C 3.874755859375 1.9877923727035522 36.00724792480469 1.9877923727035522 36.00724792480469 1.9877923727035522 C 36.75569152832031 2.045731782913208 37.474151611328125 2.278165102005005 38.00824737548828 2.7977616786956787 C 38.00824737548828 2.7977616786956787 51.79608917236328 16.661328077316284 51.79608917236328 16.661328077316284 C 52.33155822753906 17.19325578212738 52.640663146972656 17.94275188446045 52.640663146972656 18.71285617351532 C 52.640663146972656 18.71285617351532 52.640663146972656 44.56565749645233 52.640663146972656 44.56565749645233 C 52.640663146972656 45.304680585861206 52.045570373535156 45.9038382768631 51.31017303466797 45.9038382768631 C 50.574546813964844 45.9038382768631 49.979454040527344 45.304680585861206 49.979454040527344 44.56565749645233 C 49.979454040527344 44.56565749645233 49.979454040527344 18.71285617351532 49.979454040527344 18.71285617351532 C 49.979454040527344 18.657957315444946 49.954734802246094 18.593430042266846 49.919830322265625 18.558632612228394 C 49.919830322265625 18.558632612228394 36.14240264892578 4.704863548278809 36.14240264892578 4.704863548278809 C 36.12420654296875 4.687126994132996 36.06446838378906 4.663647174835205 36.01628875732422 4.663647174835205 C 36.01628875732422 4.663647174835205 36.01628875732422 4.663647174835205 36.01628875732422 4.663647174835205 C 36.01628875732422 4.663647174835205 3.874755859375 4.663647174835205 3.874755859375 4.663647174835205 C 3.8201675415039062 4.680539131164551 3.6914215087890625 4.820911288261414 3.6707077026367188 4.904695391654968 C 3.6707077026367188 4.904695391654968 3.6745986938476562 67.95240211486816 3.6745986938476562 67.95240211486816 C 3.6758575439453125 68.02165913581848 3.8057479858398438 68.15223395824432 3.874755859375 68.15358531475067 C 3.874755859375 68.15358531475067 35.397850036621094 68.15358531475067 35.397850036621094 68.15358531475067 C 36.13324737548828 68.15358531475067 36.72834014892578 68.7518984079361 36.72834014892578 69.49142825603485 C 36.72834014892578 70.2311270236969 36.13324737548828 70.82960903644562 35.397850036621094 70.82960903644562 Z M 28.660484313964844 25.344638228416443 C 28.660484313964844 25.344638228416443 20.10785675048828 25.344638228416443 20.10785675048828 25.344638228416443 C 19.372459411621094 25.344638228416443 18.777366638183594 24.745649456977844 18.777366638183594 24.006795287132263 C 18.777366638183594 23.26777219772339 19.372459411621094 22.668614506721497 20.10785675048828 22.668614506721497 C 20.10785675048828 22.668614506721497 28.660484313964844 22.668614506721497 28.660484313964844 22.668614506721497 C 29.39599609375 22.668614506721497 29.99097442626953 23.26777219772339 29.99097442626953 24.006795287132263 C 29.99097442626953 24.745649456977844 29.39599609375 25.344638228416443 28.660484313964844 25.344638228416443 Z M 35.435386657714844 32.225069880485535 C 35.435386657714844 32.225069880485535 13.660369873046875 32.225069880485535 13.660369873046875 32.225069880485535 C 12.924858093261719 32.225069880485535 12.329765319824219 31.62574326992035 12.329765319824219 30.88705801963806 C 12.329765319824219 30.147866010665894 12.924858093261719 29.548877239227295 13.660369873046875 29.548877239227295 C 13.660369873046875 29.548877239227295 35.435386657714844 29.548877239227295 35.435386657714844 29.548877239227295 C 36.1708984375 29.548877239227295 36.76610565185547 30.147866010665894 36.76610565185547 30.88705801963806 C 36.76610565185547 31.62574326992035 36.1708984375 32.225069880485535 35.435386657714844 32.225069880485535 Z M 36.554161071777344 40.52662181854248 C 36.554161071777344 40.52662181854248 17.011428833007812 40.52662181854248 17.011428833007812 40.52662181854248 C 16.275917053222656 40.52662181854248 15.680824279785156 39.92763304710388 15.680824279785156 39.1887788772583 C 15.680824279785156 38.44992470741272 16.275917053222656 37.85093593597412 17.011428833007812 37.85093593597412 C 17.011428833007812 37.85093593597412 36.554161071777344 37.85093593597412 36.554161071777344 37.85093593597412 C 37.28978729248047 37.85093593597412 37.884765625 38.44992470741272 37.884765625 39.1887788772583 C 37.884765625 39.92763304710388 37.28978729248047 40.52662181854248 36.554161071777344 40.52662181854248 Z M 26.707435607910156 49.523953437805176 C 26.707435607910156 49.523953437805176 12.637725830078125 49.523953437805176 12.637725830078125 49.523953437805176 C 11.902328491210938 49.523953437805176 11.307121276855469 48.9244579076767 11.307121276855469 48.185603737831116 C 11.307121276855469 47.44691848754883 11.902328491210938 46.847760796546936 12.637725830078125 46.847760796546936 C 12.637725830078125 46.847760796546936 26.707435607910156 46.847760796546936 26.707435607910156 46.847760796546936 C 27.442947387695312 46.847760796546936 28.038040161132812 47.44691848754883 28.038040161132812 48.185603737831116 C 28.038040161132812 48.9244579076767 27.442947387695312 49.523953437805176 26.707435607910156 49.523953437805176 Z M 40.929237365722656 71.00849485397339 C 39.54164123535156 71.00849485397339 38.3681640625 69.87048375606537 38.3681640625 68.52335023880005 C 38.3681640625 68.2198017835617 38.42927551269531 67.95730078220367 38.481231689453125 67.76405680179596 C 38.481231689453125 67.76405680179596 40.31983947753906 61.20980882644653 40.31983947753906 61.20980882644653 C 40.433021545410156 60.796969413757324 40.70458984375 60.40896117687225 40.91230010986328 60.15659534931183 C 40.91230010986328 60.15659534931183 54.73138427734375 46.297083020210266 54.73138427734375 46.297083020210266 C 55.387474060058594 45.64218187332153 56.19050598144531 45.29741704463959 57.055908203125 45.29741704463959 C 58.01629638671875 45.29741704463959 58.867393493652344 45.66447925567627 59.58722686767578 46.388468503952026 C 59.58722686767578 46.388468503952026 63.03052520751953 49.8511506319046 63.03052520751953 49.8511506319046 C 63.03178405761719 49.85267090797424 63.03315734863281 49.8538533449173 63.03315734863281 49.8538533449173 C 63.667274475097656 50.49557876586914 64.00247192382812 51.343386054039 64.00247192382812 52.30622756481171 C 64.00247192382812 52.36247777938843 63.99858093261719 52.41889691352844 63.99205780029297 52.473795771598816 C 63.88562774658203 53.32565712928772 63.545166015625 54.041707158088684 62.98234558105469 54.60353362560272 C 62.98234558105469 54.60353362560272 49.228492736816406 68.41338360309601 49.228492736816406 68.41338360309601 C 48.85552978515625 68.77808094024658 48.43976593017578 68.92943286895752 48.11750030517578 69.02216970920563 C 48.11750030517578 69.02216970920563 41.65834045410156 70.90781879425049 41.65834045410156 70.90781879425049 C 41.43083190917969 70.97606229782104 41.19176483154297 71.00849485397339 40.929237365722656 71.00849485397339 Z M 57.055908203125 47.973440766334534 C 56.95073699951172 47.973440766334534 56.80528259277344 47.99911653995514 56.607643127441406 48.194894313812256 C 56.607643127441406 48.194894313812256 42.875762939453125 61.958460330963135 42.875762939453125 61.958460330963135 C 42.88091278076172 61.96116304397583 42.85230255126953 62.01977813243866 42.85230255126953 62.01977813243866 C 42.85230255126953 62.01977813243866 41.10078430175781 68.28263986110687 41.10078430175781 68.28263986110687 C 41.10078430175781 68.28263986110687 47.38084411621094 66.45087611675262 47.38084411621094 66.45087611675262 C 47.4080810546875 66.44175446033478 47.425018310546875 66.43668687343597 47.431312561035156 66.43668687343597 C 47.431312561035156 66.43668687343597 61.104827880859375 52.70741152763367 61.104827880859375 52.70741152763367 C 61.191917419433594 52.62109363079071 61.290679931640625 52.49203908443451 61.3387451171875 52.224132657051086 C 61.321922302246094 51.95217216014862 61.22315979003906 51.81889462471008 61.147743225097656 51.74186730384827 C 61.147743225097656 51.74186730384827 57.70433044433594 48.27969193458557 57.70433044433594 48.27969193458557 C 57.450958251953125 48.025805830955505 57.26258850097656 47.973440766334534 57.055908203125 47.973440766334534 Z M 58.52693176269531 57.60202479362488 C 58.18647003173828 57.60202479362488 57.84612274169922 57.471449971199036 57.58611297607422 57.21013140678406 C 57.58611297607422 57.21013140678406 51.521888732910156 51.111966252326965 51.521888732910156 51.111966252326965 C 51.002098083496094 50.58932912349701 51.002098083496094 49.7427042722702 51.521888732910156 49.21989822387695 C 52.04167938232422 48.69743001461029 52.88362121582031 48.69743001461029 53.403297424316406 49.21989822387695 C 53.403297424316406 49.21989822387695 59.46752166748047 55.31823229789734 59.46752166748047 55.31823229789734 C 59.9874267578125 55.84103834629059 59.9874267578125 56.687663197517395 59.46752166748047 57.21013140678406 C 59.207740783691406 57.471449971199036 58.867393493652344 57.60202479362488 58.52693176269531 57.60202479362488 Z M 49.92749786376953 20.38600444793701 C 49.92749786376953 20.38600444793701 35.236602783203125 20.38600444793701 35.236602783203125 20.38600444793701 C 34.50120544433594 20.38600444793701 33.90611267089844 19.78684675693512 33.90611267089844 19.04799258708954 C 33.90611267089844 19.04799258708954 33.90611267089844 4.275132179260254 33.90611267089844 4.275132179260254 C 33.90611267089844 3.5361090898513794 34.50120544433594 2.9371203184127808 35.236602783203125 2.9371203184127808 C 35.97211456298828 2.9371203184127808 36.56720733642578 3.5361090898513794 36.56720733642578 4.275132179260254 C 36.56720733642578 4.275132179260254 36.56720733642578 17.709980726242065 36.56720733642578 17.709980726242065 C 36.56720733642578 17.709980726242065 49.92749786376953 17.709980726242065 49.92749786376953 17.709980726242065 C 50.663124084472656 17.709980726242065 51.25798797607422 18.308969497680664 51.25798797607422 19.04799258708954 C 51.25798797607422 19.78684675693512 50.663124084472656 20.38600444793701 49.92749786376953 20.38600444793701 Z"/></g></svg>