<svg version="1.1" xmlns="http://www.w3.org/2000/svg" xmlns:xlink="http://www.w3.org/1999/xlink" width="46" height="60"><defs/><g><path fill="rgb(32,170,151)" stroke="none" paint-order="stroke fill markers" fill-rule="evenodd" d=" M 23.133583068847656 44.133517026901245 C 21.886634826660156 44.133517026901245 20.690956115722656 43.605812311172485 19.850730895996094 42.685707449913025 C 19.850730895996094 42.685707449913025 19.0252685546875 41.78350806236267 19.0252685546875 41.78350806236267 C 18.931541442871094 41.67979145050049 18.751869201660156 41.64178454875946 18.628387451171875 41.696176648139954 C 18.628387451171875 41.696176648139954 17.493934631347656 42.1725298166275 17.493934631347656 42.1725298166275 C 16.947021484375 42.404794216156006 16.359481811523438 42.52337574958801 15.753288269042969 42.52337574958801 C 13.796348571777344 42.52337574958801 12.05078125 41.23468840122223 11.5087890625 39.38856649398804 C 11.5087890625 39.38856649398804 11.167068481445312 38.22082555294037 11.167068481445312 38.22082555294037 C 11.126556396484375 38.08011555671692 11.000213623046875 37.98450708389282 10.851211547851562 37.97808814048767 C 10.851211547851562 37.97808814048767 9.618911743164062 37.928932547569275 9.618911743164062 37.928932547569275 C 8.359031677246094 37.87589180469513 7.17926025390625 37.2905855178833 6.379432678222656 36.3225075006485 C 5.586585998535156 35.35071325302124 5.251960754394531 34.09428954124451 5.457267761230469 32.87080514431 C 5.457267761230469 32.87080514431 5.6656646728515625 31.666070818901062 5.6656646728515625 31.666070818901062 C 5.688323974609375 31.524854063987732 5.61920166015625 31.38346838951111 5.486907958984375 31.314549207687378 C 5.486907958984375 31.314549207687378 4.396858215332031 30.73667538166046 4.396858215332031 30.73667538166046 C 3.2881546020507812 30.15457856655121 2.4823760986328125 29.121466517448425 2.189178466796875 27.904738903045654 C 1.899871826171875 26.696795105934143 2.151641845703125 25.41891860961914 2.8814315795898438 24.398982286453247 C 2.8814315795898438 24.398982286453247 3.5902786254882812 23.40522849559784 3.5902786254882812 23.40522849559784 C 3.6811447143554688 23.281241536140442 3.6790847778320312 23.120261192321777 3.5932540893554688 23.003537774086 C 3.5932540893554688 23.003537774086 2.8665542602539062 22.02633810043335 2.8665542602539062 22.02633810043335 C 2.1210861206054688 21.027009963989258 1.8475723266601562 19.752511858940125 2.1190261840820312 18.53122341632843 C 2.3895645141601562 17.31702959537506 3.1795501708984375 16.272599935531616 4.284248352050781 15.665334105491638 C 4.284248352050781 15.665334105491638 5.360565185546875 15.073777794837952 5.360565185546875 15.073777794837952 C 5.4937744140625 15.000635623931885 5.563011169433594 14.856378316879272 5.536231994628906 14.714148044586182 C 5.536231994628906 14.714148044586182 5.309181213378906 13.520562410354614 5.309181213378906 13.520562410354614 C 5.0820159912109375 12.293699622154236 5.397987365722656 11.031363725662231 6.1760711669921875 10.053657293319702 C 6.961021423339844 9.066829204559326 8.135986328125 8.464293122291565 9.398727416992188 8.400103688240051 C 9.398727416992188 8.400103688240051 10.617179870605469 8.326454758644104 10.617179870605469 8.326454758644104 C 10.771217346191406 8.317670941352844 10.901451110839844 8.217501640319824 10.937957763671875 8.082365989685059 C 10.937957763671875 8.082365989685059 11.263885498046875 6.906010150909424 11.263885498046875 6.906010150909424 C 11.784133911132812 5.022725939750671 13.534736633300781 3.7073493003845215 15.521316528320312 3.7073493003845215 C 16.082077026367188 3.7073493003845215 16.64386749267578 3.8171470165252686 17.191696166992188 4.0337018966674805 C 17.191696166992188 4.0337018966674805 18.341140747070312 4.495527982711792 18.341140747070312 4.495527982711792 C 18.470458984375 4.548061966896057 18.64521026611328 4.507859110832214 18.737106323242188 4.404142498970032 C 18.737106323242188 4.404142498970032 19.536819458007812 3.48690927028656 19.536819458007812 3.48690927028656 C 20.387916564941406 2.5320069789886475 21.60236358642578 1.9890995025634766 22.8759765625 1.9890995025634766 C 24.124984741210938 1.9890995025634766 25.321693420410156 2.51747989654541 26.157913208007812 3.438767194747925 C 26.157913208007812 3.438767194747925 26.98131561279297 4.3401219844818115 26.98131561279297 4.3401219844818115 C 27.073097229003906 4.442993998527527 27.248878479003906 4.480831980705261 27.376251220703125 4.427791237831116 C 27.376251220703125 4.427791237831116 28.51367950439453 3.950762391090393 28.51367950439453 3.950762391090393 C 29.061622619628906 3.718666911125183 29.64813232421875 3.599916458129883 30.25432586669922 3.599916458129883 C 32.21229553222656 3.599916458129883 33.95683288574219 4.8886038064956665 34.49790954589844 6.734050035476685 C 34.49790954589844 6.734050035476685 34.852333068847656 7.878480076789856 34.852333068847656 7.878480076789856 C 34.89776611328125 8.035237431526184 35.02410888671875 8.130508065223694 35.17230987548828 8.136927008628845 C 35.17230987548828 8.136927008628845 36.40552520751953 8.185913681983948 36.40552520751953 8.185913681983948 C 37.66735076904297 8.239461183547974 38.84723663330078 8.825274229049683 39.64591979980469 9.793521165847778 C 40.43876647949219 10.76548433303833 40.77362060546875 12.022076964378357 40.567169189453125 13.245561361312866 C 40.567169189453125 13.245561361312866 40.35774230957031 14.449788928031921 40.35774230957031 14.449788928031921 C 40.33519744873047 14.591512441635132 40.403289794921875 14.730871081352234 40.53752899169922 14.801141619682312 C 40.53752899169922 14.801141619682312 41.627464294433594 15.378677606582642 41.627464294433594 15.378677606582642 C 42.73628234863281 15.960774421691895 43.54194641113281 16.993379712104797 43.83525848388672 18.209431648254395 C 44.12548065185547 19.419909238815308 43.87279510498047 20.697447896003723 43.14311981201172 21.716201782226562 C 43.14311981201172 21.716201782226562 42.43518829345703 22.709617733955383 42.43518829345703 22.709617733955383 C 42.344322204589844 22.833942532539368 42.34626770019531 22.99526071548462 42.432212829589844 23.111984133720398 C 42.432212829589844 23.111984133720398 43.157997131347656 24.096785187721252 43.157997131347656 24.096785187721252 C 43.90632629394531 25.0998295545578 44.178810119628906 26.37314522266388 43.90632629394531 27.59274446964264 C 43.63475799560547 28.807276129722595 42.845916748046875 29.85119903087616 41.74110412597656 30.45762026309967 C 41.74110412597656 30.45762026309967 40.665931701660156 31.050021171569824 40.665931701660156 31.050021171569824 C 40.53260803222656 31.122994422912598 40.46245574951172 31.26725172996521 40.48912048339844 31.410157680511475 C 40.48912048339844 31.410157680511475 40.71514129638672 32.604418992996216 40.71514129638672 32.604418992996216 C 40.942420959472656 33.831788539886475 40.62644958496094 35.09327983856201 39.848365783691406 36.06997275352478 C 39.07325744628906 37.04514539241791 37.901268005371094 37.648019313812256 36.63360595703125 37.72301959991455 C 36.63360595703125 37.72301959991455 35.39844512939453 37.79582393169403 35.39844512939453 37.79582393169403 C 35.24635314941406 37.80511450767517 35.11497497558594 37.9051148891449 35.078582763671875 38.04025053977966 C 35.078582763671875 38.04025053977966 34.752769470214844 39.21761989593506 34.752769470214844 39.21761989593506 C 34.23332214355469 41.100566267967224 32.48363494873047 42.416449666023254 30.497283935546875 42.416449666023254 C 29.93743896484375 42.416449666023254 29.375534057617188 42.306483030319214 28.826675415039062 42.090603828430176 C 28.826675415039062 42.090603828430176 27.676429748535156 41.62708854675293 27.676429748535156 41.62708854675293 C 27.544021606445312 41.57185184955597 27.372360229492188 41.61475741863251 27.277488708496094 41.719656467437744 C 27.277488708496094 41.719656467437744 26.470909118652344 42.638747811317444 26.470909118652344 42.638747811317444 C 25.622787475585938 43.59027171134949 24.408226013183594 44.133517026901245 23.133583068847656 44.133517026901245 Z M 18.756790161132812 39.68147301673889 C 19.425125122070312 39.68147301673889 20.084762573242188 39.955798387527466 20.53600311279297 40.461036801338196 C 20.53600311279297 40.461036801338196 21.35448455810547 41.35529696941376 21.35448455810547 41.35529696941376 C 22.281570434570312 42.37286841869354 24.040069580078125 42.34921967983246 24.945411682128906 41.33181715011597 C 24.945411682128906 41.33181715011597 25.749130249023438 40.41644203662872 25.749130249023438 40.41644203662872 C 26.405677795410156 39.67302703857422 27.51049041748047 39.413397669792175 28.43952178955078 39.78366935253143 C 28.43952178955078 39.78366935253143 29.58587646484375 40.245495438575745 29.58587646484375 40.245495438575745 C 30.96019744873047 40.791274547576904 32.44140625 40.00056207180023 32.801666259765625 38.695151686668396 C 32.801666259765625 38.695151686668396 33.126564025878906 37.51930260658264 33.126564025878906 37.51930260658264 C 33.39103698730469 36.55679893493652 34.25609588623047 35.86878955364227 35.27793884277344 35.80949878692627 C 35.27793884277344 35.80949878692627 36.513099670410156 35.736525535583496 36.513099670410156 35.736525535583496 C 37.20226287841797 35.695984840393066 37.837181091308594 35.3698011636734 38.25569152832031 34.842772126197815 C 38.678321838378906 34.31287145614624 38.84906768798828 33.62874722480774 38.72673034667969 32.96472442150116 C 38.72673034667969 32.96472442150116 38.501625061035156 31.776037454605103 38.501625061035156 31.776037454605103 C 38.314056396484375 30.792080998420715 38.78692626953125 29.80086100101471 39.68048095703125 29.31133210659027 C 39.68048095703125 29.31133210659027 40.754737854003906 28.720282554626465 40.754737854003906 28.720282554626465 C 41.35601043701172 28.390044808387756 41.78459167480469 27.8234885931015 41.93164825439453 27.1652090549469 C 42.078704833984375 26.504395723342896 41.93164825439453 25.815372824668884 41.52687072753906 25.274154543876648 C 41.525840759277344 25.272465348243713 41.523895263671875 25.270100474357605 41.522865295410156 25.268242359161377 C 41.522865295410156 25.268242359161377 40.79719543457031 24.28225886821747 40.79719543457031 24.28225886821747 C 40.19489288330078 23.469924688339233 40.189971923828125 22.37329888343811 40.78723907470703 21.556066036224365 C 40.78723907470703 21.556066036224365 41.48933410644531 20.571602821350098 41.48933410644531 20.571602821350098 C 41.887245178222656 20.01619529724121 42.02445983886719 19.32278048992157 41.86744689941406 18.667203664779663 C 41.70848846435547 18.00841736793518 41.273040771484375 17.448280096054077 40.67279815673828 17.132907271385193 C 40.67279815673828 17.132907271385193 39.583778381347656 16.55570912361145 39.583778381347656 16.55570912361145 C 38.69720458984375 16.092193841934204 38.20442199707031 15.115163087844849 38.36235046386719 14.126983642578125 C 38.36235046386719 14.126983642578125 38.57372283935547 12.915154695510864 38.57372283935547 12.915154695510864 C 38.68438720703125 12.25484812259674 38.502540588378906 11.57072389125824 38.07212829589844 11.043357014656067 C 37.6416015625 10.521564483642578 37.002906799316406 10.203320026397705 36.32152557373047 10.17426586151123 C 36.32152557373047 10.17426586151123 35.08831024169922 10.124941349029541 35.08831024169922 10.124941349029541 C 34.061546325683594 10.08186686038971 33.18767547607422 9.403823733329773 32.912330627441406 8.437941670417786 C 32.912330627441406 8.437941670417786 32.55973815917969 7.300437331199646 32.55973815917969 7.300437331199646 C 32.262535095214844 6.287426710128784 31.316795349121094 5.590295672416687 30.25432586669922 5.590295672416687 C 29.929542541503906 5.590295672416687 29.602699279785156 5.655836462974548 29.30950164794922 5.780330181121826 C 29.30950164794922 5.780330181121826 28.170013427734375 6.257865786552429 28.170013427734375 6.257865786552429 C 27.246932983398438 6.648407816886902 26.13422393798828 6.4039812088012695 25.47161102294922 5.663606762886047 C 25.47161102294922 5.663606762886047 24.65221405029297 4.767657399177551 24.65221405029297 4.767657399177551 C 23.727989196777344 3.7516062259674072 21.97154998779297 3.773396849632263 21.06414794921875 4.790968298912048 C 21.06414794921875 4.790968298912048 20.26935577392578 5.7024582624435425 20.26935577392578 5.7024582624435425 C 19.611778259277344 6.450940847396851 18.505020141601562 6.70938777923584 17.57793426513672 6.338440418243408 C 17.57793426513672 6.338440418243408 16.43260955810547 5.878134608268738 16.43260955810547 5.878134608268738 C 15.051307678222656 5.335227131843567 13.575248718261719 6.124250411987305 13.214874267578125 7.428985118865967 C 13.214874267578125 7.428985118865967 12.889976501464844 8.60331392288208 12.889976501464844 8.60331392288208 C 12.625389099121094 9.56784462928772 11.759529113769531 10.256022930145264 10.736656188964844 10.313117742538452 C 10.736656188964844 10.313117742538452 9.513282775878906 10.386935591697693 9.513282775878906 10.386935591697693 C 8.824119567871094 10.422070860862732 8.192176818847656 10.747578859329224 7.7677154541015625 11.280689001083374 C 7.3461151123046875 11.810758590698242 7.175254821777344 12.495389580726624 7.297706604003906 13.159074544906616 C 7.297706604003906 13.159074544906616 7.5237274169921875 14.346747994422913 7.5237274169921875 14.346747994422913 C 7.712440490722656 15.330873370170593 7.238426208496094 16.322769045829773 6.344871520996094 16.812129020690918 C 6.344871520996094 16.812129020690918 5.2696990966796875 17.40300965309143 5.2696990966796875 17.40300965309143 C 4.669456481933594 17.732909560203552 4.240875244140625 18.299803614616394 4.0937042236328125 18.957914233207703 C 3.9467620849609375 19.619234323501587 4.0937042236328125 20.309101819992065 4.4976806640625 20.849475502967834 C 4.4976806640625 20.849475502967834 5.2262115478515625 21.829715728759766 5.2262115478515625 21.829715728759766 C 5.831489562988281 22.64593505859375 5.835380554199219 23.742729783058167 5.2381134033203125 24.559624791145325 C 5.2381134033203125 24.559624791145325 4.535102844238281 25.544256925582886 4.535102844238281 25.544256925582886 C 4.1371917724609375 26.099664449691772 3.9999771118164062 26.792572498321533 4.157905578613281 27.44713580608368 C 4.315834045410156 28.107442378997803 4.751396179199219 28.667410731315613 5.352668762207031 28.982614636421204 C 5.352668762207031 28.982614636421204 6.441688537597656 29.559812784194946 6.441688537597656 29.559812784194946 C 7.330207824707031 30.024341583251953 7.822074890136719 31.003061532974243 7.660026550292969 31.99140989780426 C 7.660026550292969 31.99140989780426 7.450714111328125 33.19986045360565 7.450714111328125 33.19986045360565 C 7.3401641845703125 33.86101162433624 7.5228118896484375 34.545642614364624 7.952308654785156 35.07182705402374 C 8.382835388183594 35.59345066547394 9.022560119628906 35.9120329618454 9.702796936035156 35.940749287605286 C 9.702796936035156 35.940749287605286 10.936012268066406 35.989567041397095 10.936012268066406 35.989567041397095 C 11.96197509765625 36.03416180610657 12.834701538085938 36.71119141578674 13.111190795898438 37.67504644393921 C 13.111190795898438 37.67504644393921 13.451766967773438 38.83653736114502 13.451766967773438 38.83653736114502 C 13.745079040527344 39.83535873889923 14.691963195800781 40.53299653530121 15.753288269042969 40.53299653530121 C 16.07807159423828 40.53299653530121 16.40399932861328 40.467793583869934 16.6961669921875 40.343299865722656 C 16.6961669921875 40.343299865722656 17.834625244140625 39.865426421165466 17.834625244140625 39.865426421165466 C 18.13079833984375 39.740763783454895 18.44470977783203 39.68147301673889 18.756790161132812 39.68147301673889 Z M 23.01319122314453 36.3225075006485 C 15.536994934082031 36.3225075006485 9.454002380371094 30.335829257965088 9.454002380371094 22.977355241775513 C 9.454002380371094 15.618712306022644 15.536994934082031 9.63237190246582 23.01319122314453 9.63237190246582 C 30.489273071289062 9.63237190246582 36.57135009765625 15.618712306022644 36.57135009765625 22.977355241775513 C 36.57135009765625 30.335829257965088 30.489273071289062 36.3225075006485 23.01319122314453 36.3225075006485 Z M 23.01319122314453 11.622751116752625 C 16.651878356933594 11.622751116752625 11.476058959960938 16.716182708740234 11.476058959960938 22.977355241775513 C 11.476058959960938 29.238696694374084 16.651878356933594 34.33246612548828 23.01319122314453 34.33246612548828 C 29.374618530273438 34.33246612548828 34.549293518066406 29.238696694374084 34.549293518066406 22.977355241775513 C 34.549293518066406 16.716182708740234 29.374618530273438 11.622751116752625 23.01319122314453 11.622751116752625 Z M 22.382164001464844 26.5456120967865 C 22.140464782714844 26.5456120967865 21.89739227294922 26.460814476013184 21.70501708984375 26.28919219970703 C 21.70501708984375 26.28919219970703 18.838729858398438 23.742729783058167 18.838729858398438 23.742729783058167 C 18.424110412597656 23.374316215515137 18.391494750976562 22.744921922683716 18.765716552734375 22.337319016456604 C 19.140853881835938 21.928871512413025 19.77863311767578 21.89779031276703 20.19336700439453 22.26535928249359 C 20.19336700439453 22.26535928249359 22.344741821289062 24.176515221595764 22.344741821289062 24.176515221595764 C 22.344741821289062 24.176515221595764 26.695899963378906 19.870417714118958 26.695899963378906 19.870417714118958 C 27.089920043945312 19.48055136203766 27.729644775390625 19.478355407714844 28.1256103515625 19.866532564163208 C 28.521575927734375 20.253865122795105 28.523635864257812 20.884104013442993 28.129615783691406 21.273632526397705 C 28.129615783691406 21.273632526397705 23.099136352539062 26.252367734909058 23.099136352539062 26.252367734909058 C 22.901611328125 26.447638750076294 22.642059326171875 26.5456120967865 22.382164001464844 26.5456120967865 Z M 31.873550415039062 58.008063197135925 C 31.760940551757812 58.008063197135925 31.64752960205078 57.989482045173645 31.53789520263672 57.95164406299591 C 31.53789520263672 57.95164406299591 23.464317321777344 55.15382933616638 23.464317321777344 55.15382933616638 C 23.464317321777344 55.15382933616638 15.390968322753906 57.95164406299591 15.390968322753906 57.95164406299591 C 15.078887939453125 58.05755662918091 14.738311767578125 58.01076591014862 14.470748901367188 57.825292229652405 C 14.20318603515625 57.638636112213135 14.044227600097656 57.33559441566467 14.044227600097656 57.01278913021088 C 14.044227600097656 57.01278913021088 14.044227600097656 41.955637097358704 14.044227600097656 41.955637097358704 C 14.044227600097656 41.40563499927521 14.496383666992188 40.96070086956024 15.055198669433594 40.96070086956024 C 15.614128112792969 40.96070086956024 16.0662841796875 41.40563499927521 16.0662841796875 41.955637097358704 C 16.0662841796875 41.955637097358704 16.0662841796875 55.60754728317261 16.0662841796875 55.60754728317261 C 16.0662841796875 55.60754728317261 23.12877655029297 53.15973389148712 23.12877655029297 53.15973389148712 C 23.345985412597656 53.083720088005066 23.58287811279297 53.083720088005066 23.800086975097656 53.15973389148712 C 23.800086975097656 53.15973389148712 30.862579345703125 55.60754728317261 30.862579345703125 55.60754728317261 C 30.862579345703125 55.60754728317261 30.862579345703125 41.955637097358704 30.862579345703125 41.955637097358704 C 30.862579345703125 41.40563499927521 31.314735412597656 40.96070086956024 31.873550415039062 40.96070086956024 C 32.43247985839844 40.96070086956024 32.88463592529297 41.40563499927521 32.88463592529297 41.955637097358704 C 32.88463592529297 41.955637097358704 32.88463592529297 57.01278913021088 32.88463592529297 57.01278913021088 C 32.88463592529297 57.33559441566467 32.725677490234375 57.638636112213135 32.45811462402344 57.825292229652405 C 32.284393310546875 57.94590079784393 32.07988739013672 58.008063197135925 31.873550415039062 58.008063197135925 Z"/></g></svg>