<svg version="1.1" xmlns="http://www.w3.org/2000/svg" xmlns:xlink="http://www.w3.org/1999/xlink" width="49" height="55"><defs/><g><path fill="rgb(58,176,159)" stroke="none" paint-order="stroke fill markers" fill-rule="evenodd" d=" M 24.807525634765625 53.004677176475525 C 24.700637817382812 53.004677176475525 24.59752655029297 52.98643386363983 24.499908447265625 52.95248103141785 C 24.32916259765625 53.011096119880676 24.140106201171875 53.02292048931122 23.950363159179688 52.97258245944977 C 23.6873779296875 52.90231192111969 17.443939208984375 51.17696750164032 11.831298828125 45.05025494098663 C 6.7171630859375 39.46898365020752 1.131072998046875 28.998842358589172 3.5593948364257812 10.817691922187805 C 3.6999282836914062 9.76735007762909 4.604698181152344 8.973090291023254 5.6627044677734375 8.970049738883972 C 12.202888488769531 8.931704998016357 18.355918884277344 6.329499125480652 22.986312866210938 1.6435015201568604 C 23.38422393798828 1.2391080856323242 23.97954559326172 1.000255823135376 24.505401611328125 1.0112355947494507 C 25.063072204589844 1.0112355947494507 25.61456298828125 1.2409662008285522 26.012588500976562 1.642656922340393 C 30.643898010253906 6.329499125480652 36.79681396484375 8.931704998016357 43.339744567871094 8.970049738883972 C 44.395118713378906 8.973090291023254 45.299774169921875 9.76735007762909 45.44042205810547 10.816509485244751 C 47.868858337402344 28.998842358589172 42.28265380859375 39.46898365020752 37.16851806640625 45.05025494098663 C 31.555877685546875 51.17696750164032 25.31232452392578 52.90231192111969 25.049453735351562 52.97258245944977 C 24.96820068359375 52.99454200267792 24.886947631835938 53.004677176475525 24.807525634765625 53.004677176475525 Z M 24.498992919921875 2.8816819190979004 C 24.498992919921875 2.8816819190979004 24.497161865234375 2.8816819190979004 24.497161865234375 2.8816819190979004 C 24.427810668945312 2.8816819190979004 24.3648681640625 2.9090468883514404 24.31737518310547 2.9570200443267822 C 19.334617614746094 7.999944686889648 12.713180541992188 10.798941850662231 5.6709442138671875 10.840664982795715 C 5.5395660400390625 10.841002821922302 5.429931640625 10.937793731689453 5.412651062011719 11.066003680229187 C 3.0801162719726562 28.529921650886536 8.364997863769531 38.49921643733978 13.209854125976562 43.78639876842499 C 18.436256408691406 49.490981340408325 24.37574005126953 51.15061604976654 24.435134887695312 51.16615664958954 C 24.456993103027344 51.17257559299469 24.478851318359375 51.17882561683655 24.499908447265625 51.18625807762146 C 24.520851135253906 51.17882561683655 24.542823791503906 51.17257559299469 24.564682006835938 51.16615664958954 C 24.62407684326172 51.15061604976654 30.563446044921875 49.490981340408325 35.78996276855469 43.78639876842499 C 40.63481903076172 38.49921643733978 45.919700622558594 28.529921650886536 43.58716583251953 11.06515908241272 C 43.56977081298828 10.937793731689453 43.46025085449219 10.841002821922302 43.331504821777344 10.840664982795715 C 36.286521911621094 10.798941850662231 29.665199279785156 7.999944686889648 24.68438720703125 2.958709239959717 C 24.63494873046875 2.909553647041321 24.569259643554688 2.8816819190979004 24.498992919921875 2.8816819190979004 Z M 24.500823974609375 45.766642808914185 C 24.3447265625 45.766642808914185 24.187599182128906 45.74535894393921 24.03436279296875 45.70448040962219 C 23.849884033203125 45.65498697757721 19.344688415527344 44.410218715667725 15.307785034179688 40.003276228904724 C 11.638694763183594 35.99836230278015 7.630058288574219 28.49394178390503 9.368301391601562 15.486121892929077 C 9.485145568847656 14.60672664642334 10.241943359375 13.941690325737 11.130119323730469 13.940001130104065 C 15.69757080078125 13.912973999977112 19.997344970703125 12.094385981559753 23.232704162597656 8.820218086242676 C 23.567787170410156 8.480520844459534 24.01422119140625 8.291837692260742 24.488922119140625 8.290824174880981 C 24.99200439453125 8.283222794532776 25.433746337890625 8.48085868358612 25.767913818359375 8.821062684059143 C 29.002357482910156 12.094385981559753 33.30224609375 13.912973999977112 37.87324523925781 13.940001130104065 C 38.75787353515625 13.941690325737 39.514671325683594 14.60672664642334 39.63151550292969 15.486628651618958 C 41.36964416503906 28.49394178390503 37.361122131347656 35.99836230278015 33.69203186035156 40.003276228904724 C 29.655242919921875 44.410218715667725 25.149818420410156 45.65498697757721 24.96007537841797 45.70532500743866 C 24.811187744140625 45.74637246131897 24.656005859375 45.766642808914185 24.500823974609375 45.766642808914185 Z M 11.21148681640625 15.810109615325928 C 9.59466552734375 28.054581999778748 13.293853759765625 35.03602755069733 16.68622589111328 38.739251136779785 C 20.358863830566406 42.747881293296814 24.482513427734375 43.88758158683777 24.523597717285156 43.89889919757843 C 24.516273498535156 43.88758158683777 28.662696838378906 42.72423255443573 32.3134765625 38.739251136779785 C 35.705963134765625 35.03602755069733 39.40503692626953 28.05373740196228 37.78821563720703 15.810109615325928 C 32.772727966308594 15.760278344154358 28.061195373535156 13.769561290740967 24.499908447265625 10.197926044464111 C 20.937705993652344 13.770743727684021 16.224342346191406 15.761122941970825 11.21148681640625 15.810109615325928 Z M 37.86500549316406 15.810447454452515 C 37.86500549316406 15.810447454452515 37.86592102050781 15.810447454452515 37.86592102050781 15.810447454452515 C 37.86592102050781 15.810447454452515 37.86500549316406 15.810447454452515 37.86500549316406 15.810447454452515 Z M 11.138359069824219 15.810447454452515 C 11.138359069824219 15.810447454452515 11.137557983398438 15.810447454452515 11.137557983398438 15.810447454452515 C 11.137557983398438 15.810447454452515 11.138359069824219 15.810447454452515 11.138359069824219 15.810447454452515 Z M 24.437767028808594 10.135425806045532 C 24.437767028808594 10.135425806045532 24.437767028808594 10.135425806045532 24.437767028808594 10.13576364517212 C 24.437767028808594 10.135425806045532 24.437767028808594 10.135425806045532 24.437767028808594 10.135425806045532 Z M 24.499908447265625 44.8239027261734 C 23.98320770263672 44.8239027261734 23.565040588378906 44.40548896789551 23.565040588378906 43.88876402378082 C 23.565040588378906 43.88876402378082 23.565040588378906 10.168365120887756 23.565040588378906 10.168365120887756 C 23.565040588378906 9.651640176773071 23.98320770263672 9.233057498931885 24.499908447265625 9.233057498931885 C 25.016494750976562 9.233057498931885 25.434661865234375 9.651640176773071 25.434661865234375 10.168365120887756 C 25.434661865234375 10.168365120887756 25.434661865234375 43.88876402378082 25.434661865234375 43.88876402378082 C 25.434661865234375 44.40548896789551 25.016494750976562 44.8239027261734 24.499908447265625 44.8239027261734 Z M 38.548789978027344 27.963703274726868 C 38.548789978027344 27.963703274726868 10.451026916503906 27.963703274726868 10.451026916503906 27.963703274726868 C 9.934326171875 27.963703274726868 9.516159057617188 27.544951677322388 9.516159057617188 27.028395652770996 C 9.516159057617188 26.51217746734619 9.934326171875 26.093256950378418 10.451026916503906 26.093256950378418 C 10.451026916503906 26.093256950378418 38.548789978027344 26.093256950378418 38.548789978027344 26.093256950378418 C 39.06560516357422 26.093256950378418 39.483543395996094 26.51217746734619 39.483543395996094 27.028395652770996 C 39.483543395996094 27.544951677322388 39.06560516357422 27.963703274726868 38.548789978027344 27.963703274726868 Z M 24.751792907714844 42.56156301498413 C 24.521766662597656 42.56156301498413 24.29174041748047 42.47760999202728 24.111038208007812 42.30750799179077 C 23.734756469726562 41.953452587127686 23.71759033203125 41.36138951778412 24.070755004882812 40.98520565032959 C 24.070755004882812 40.98520565032959 36.934715270996094 27.31691026687622 36.934715270996094 27.31691026687622 C 37.289825439453125 26.940895318984985 37.880455017089844 26.924341201782227 38.256622314453125 27.27738308906555 C 38.632789611816406 27.63110065460205 38.65007019042969 28.223163723945618 38.296791076660156 28.599347591400146 C 38.296791076660156 28.599347591400146 25.432945251464844 42.26747405529022 25.432945251464844 42.26747405529022 C 25.24846649169922 42.46291399002075 25.000244140625 42.56156301498413 24.751792907714844 42.56156301498413 Z M 24.751792907714844 36.3946475982666 C 24.512611389160156 36.3946475982666 24.273544311523438 36.3042756319046 24.090896606445312 36.121673583984375 C 23.725830078125 35.75630056858063 23.725830078125 35.16406857967377 24.090896606445312 34.79869556427002 C 24.090896606445312 34.79869556427002 31.588607788085938 27.2968088388443 31.588607788085938 27.2968088388443 C 31.95378875732422 26.931604743003845 32.54533386230469 26.931604743003845 32.91062927246094 27.2968088388443 C 33.27569580078125 27.66235077381134 33.27569580078125 28.254244923591614 32.91062927246094 28.61961793899536 C 32.91062927246094 28.61961793899536 25.412918090820312 36.121673583984375 25.412918090820312 36.121673583984375 C 25.230270385742188 36.3042756319046 24.9910888671875 36.3946475982666 24.751792907714844 36.3946475982666 Z M 11.601272583007812 27.660492658615112 C 11.363807678222656 27.660492658615112 11.125770568847656 27.5704585313797 10.944038391113281 27.390052437782288 C 10.5770263671875 27.02670645713806 10.5733642578125 26.434305548667908 10.936714172363281 26.067243337631226 C 10.936714172363281 26.067243337631226 23.65087127685547 13.216687560081482 23.65087127685547 13.216687560081482 C 24.0133056640625 12.85013210773468 24.60668182373047 12.846078038215637 24.9727783203125 13.209592938423157 C 25.339675903320312 13.57327675819397 25.343338012695312 14.165677666664124 24.9801025390625 14.532739877700806 C 24.9801025390625 14.532739877700806 12.265945434570312 27.38329565525055 12.265945434570312 27.38329565525055 C 12.083297729492188 27.567755818367004 11.84228515625 27.660492658615112 11.601272583007812 27.660492658615112 Z M 18.332229614257812 27.660492658615112 C 18.093048095703125 27.660492658615112 17.853866577148438 27.569107174873352 17.671218872070312 27.386505126953125 C 17.30603790283203 27.021132111549377 17.30603790283203 26.429406881332397 17.671218872070312 26.063864946365356 C 17.671218872070312 26.063864946365356 23.65453338623047 20.078706979751587 23.65453338623047 20.078706979751587 C 24.01971435546875 19.712996125221252 24.61125946044922 19.712996125221252 24.9764404296875 20.078706979751587 C 25.34162139892578 20.44391107559204 25.34162139892578 21.035467386245728 24.9764404296875 21.400840401649475 C 24.9764404296875 21.400840401649475 18.993125915527344 27.386505126953125 18.993125915527344 27.386505126953125 C 18.810592651367188 27.569107174873352 18.5714111328125 27.660492658615112 18.332229614257812 27.660492658615112 Z M 9.890495300292969 23.180070161819458 C 9.660469055175781 23.180070161819458 9.430442810058594 23.09561038017273 9.249626159667969 22.925846219062805 C 8.873458862304688 22.57179081439972 8.856063842773438 21.979727745056152 9.210258483886719 21.603712797164917 C 9.210258483886719 21.603712797164917 17.088829040527344 13.233410596847534 17.088829040527344 13.233410596847534 C 17.442108154296875 12.856719970703125 18.034568786621094 12.84033477306366 18.409820556640625 13.193545579910278 C 18.785987854003906 13.547600984573364 18.803268432617188 14.139832973480225 18.449073791503906 14.515679001808167 C 18.449073791503906 14.515679001808167 10.57061767578125 22.88598120212555 10.57061767578125 22.88598120212555 C 10.387054443359375 23.08142113685608 10.138717651367188 23.180070161819458 9.890495300292969 23.180070161819458 Z"/></g></svg>