<svg version="1.1" xmlns="http://www.w3.org/2000/svg" xmlns:xlink="http://www.w3.org/1999/xlink" width="77" height="71"><defs/><g><path fill="rgb(32,170,151)" stroke="none" paint-order="stroke fill markers" fill-rule="evenodd" d=" M 1.8446121215820312 6.96127188205719 C 1.8446121215820312 6.96127188205719 1.8446121215820312 6.96127188205719 1.8446121215820312 6.96127188205719 M 73.7370834350586 69.9958028793335 C 73.7370834350586 69.9958028793335 6.2825164794921875 69.9958028793335 6.2825164794921875 69.9958028793335 C 5.579963684082031 69.9958028793335 5.011421203613281 69.43397641181946 5.011421203613281 68.73921024799347 C 5.011421203613281 68.73921024799347 5.011421203613281 2.256693124771118 5.011421203613281 2.256693124771118 C 5.011421203613281 1.5626026391983032 5.579963684082031 1.0001004934310913 6.2825164794921875 1.0001004934310913 C 6.985298156738281 1.0001004934310913 7.5537261962890625 1.5626026391983032 7.5537261962890625 2.256693124771118 C 7.5537261962890625 2.256693124771118 7.5537261962890625 67.48278653621674 7.5537261962890625 67.48278653621674 C 7.5537261962890625 67.48278653621674 73.7370834350586 67.48278653621674 73.7370834350586 67.48278653621674 C 74.43963623046875 67.48278653621674 75.00829315185547 68.04461300373077 75.00829315185547 68.73921024799347 C 75.00829315185547 69.43397641181946 74.43963623046875 69.9958028793335 73.7370834350586 69.9958028793335 Z M 24.269882202148438 69.50154423713684 C 23.56732940673828 69.50154423713684 22.99878692626953 68.93937993049622 22.99878692626953 68.24461376667023 C 22.99878692626953 68.24461376667023 22.99878692626953 63.50557541847229 22.99878692626953 63.50557541847229 C 22.99878692626953 62.8108092546463 23.56732940673828 62.24881386756897 24.269882202148438 62.24881386756897 C 24.97266387939453 62.24881386756897 25.541091918945312 62.8108092546463 25.541091918945312 63.50557541847229 C 25.541091918945312 63.50557541847229 25.541091918945312 68.24461376667023 25.541091918945312 68.24461376667023 C 25.541091918945312 68.93937993049622 24.97266387939453 69.50154423713684 24.269882202148438 69.50154423713684 Z M 42.257362365722656 69.50154423713684 C 41.55469512939453 69.50154423713684 40.98615264892578 68.93937993049622 40.98615264892578 68.24461376667023 C 40.98615264892578 68.24461376667023 40.98615264892578 63.50557541847229 40.98615264892578 63.50557541847229 C 40.98615264892578 62.8108092546463 41.55469512939453 62.24881386756897 42.257362365722656 62.24881386756897 C 42.96002960205078 62.24881386756897 43.52845764160156 62.8108092546463 43.52845764160156 63.50557541847229 C 43.52845764160156 63.50557541847229 43.52845764160156 68.24461376667023 43.52845764160156 68.24461376667023 C 43.52845764160156 68.93937993049622 42.96002960205078 69.50154423713684 42.257362365722656 69.50154423713684 Z M 60.245872497558594 69.50154423713684 C 59.54331970214844 69.50154423713684 58.97477722167969 68.93937993049622 58.97477722167969 68.24461376667023 C 58.97477722167969 68.24461376667023 58.97477722167969 63.50557541847229 58.97477722167969 63.50557541847229 C 58.97477722167969 62.8108092546463 59.54331970214844 62.24881386756897 60.245872497558594 62.24881386756897 C 60.94853973388672 62.24881386756897 61.51708221435547 62.8108092546463 61.51708221435547 63.50557541847229 C 61.51708221435547 63.50557541847229 61.51708221435547 68.24461376667023 61.51708221435547 68.24461376667023 C 61.51708221435547 68.93937993049622 60.94853973388672 69.50154423713684 60.245872497558594 69.50154423713684 Z M 50.75196838378906 48.99183762073517 C 37.633148193359375 48.99183762073517 26.959930419921875 38.44044601917267 26.959930419921875 25.471984386444092 C 26.959930419921875 12.503353834152222 37.633148193359375 1.952806830406189 50.75196838378906 1.952806830406189 C 63.87078857421875 1.952806830406189 74.54400634765625 12.503353834152222 74.54400634765625 25.471984386444092 C 74.54400634765625 38.44044601917267 63.87078857421875 48.99183762073517 50.75196838378906 48.99183762073517 Z M 50.75196838378906 4.465992093086243 C 39.034820556640625 4.465992093086243 29.502235412597656 13.889338850975037 29.502235412597656 25.471984386444092 C 29.502235412597656 37.05513668060303 39.034820556640625 46.478652358055115 50.75196838378906 46.478652358055115 C 62.46923065185547 46.478652358055115 72.00170135498047 37.05513668060303 72.00170135498047 25.471984386444092 C 72.00170135498047 13.889338850975037 62.46923065185547 4.465992093086243 50.75196838378906 4.465992093086243 Z M 7.191291809082031 68.51336479187012 C 7.036224365234375 68.51336479187012 6.878410339355469 68.48515522480011 6.7244873046875 68.42637121677399 C 6.071601867675781 68.17130267620087 5.751396179199219 67.44089448451996 6.0083160400390625 66.79562175273895 C 6.0083160400390625 66.79562175273895 12.378898620605469 50.82512164115906 12.378898620605469 50.82512164115906 C 12.537857055664062 50.428667426109314 12.889076232910156 50.137956857681274 13.312393188476562 50.05434167385101 C 13.735710144042969 49.97224676609039 14.172760009765625 50.10501754283905 14.47442626953125 50.41177546977997 C 14.47442626953125 50.41177546977997 18.749710083007812 54.76685965061188 18.749710083007812 54.76685965061188 C 18.749710083007812 54.76685965061188 24.59649658203125 43.7862434387207 24.59649658203125 43.7862434387207 C 24.77399444580078 43.45178270339966 25.09557342529297 43.21428179740906 25.470367431640625 43.13961935043335 C 25.846534729003906 43.0659704208374 26.23632049560547 43.16225457191467 26.530662536621094 43.40212035179138 C 26.530662536621094 43.40212035179138 32.20738983154297 48.032036662101746 32.20738983154297 48.032036662101746 C 32.20738983154297 48.032036662101746 35.89662170410156 43.575769662857056 35.89662170410156 43.575769662857056 C 36.33985137939453 43.03894329071045 37.13933563232422 42.96039569377899 37.685333251953125 43.3990797996521 C 38.22789764404297 43.83843958377838 38.30857849121094 44.630672335624695 37.862945556640625 45.16732978820801 C 37.862945556640625 45.16732978820801 33.36553192138672 50.60079646110535 33.36553192138672 50.60079646110535 C 33.15187072753906 50.858229875564575 32.84288024902344 51.0227575302124 32.50642395019531 51.054683327674866 C 32.167449951171875 51.08897399902344 31.834884643554688 50.98711550235748 31.573043823242188 50.77393901348114 C 31.573043823242188 50.77393901348114 26.118331909179688 46.323753118515015 26.118331909179688 46.323753118515015 C 26.118331909179688 46.323753118515015 20.183425903320312 57.470248341560364 20.183425903320312 57.470248341560364 C 19.993453979492188 57.82616186141968 19.64349365234375 58.07160198688507 19.239974975585938 58.12937247753143 C 18.83153533935547 58.189507842063904 18.42938995361328 58.048291087150574 18.14649200439453 57.75977647304535 C 18.14649200439453 57.75977647304535 14.021240234375 53.55925369262695 14.021240234375 53.55925369262695 C 14.021240234375 53.55925369262695 8.374382019042969 67.71826040744781 8.374382019042969 67.71826040744781 C 8.176971435546875 68.211674451828 7.69769287109375 68.51336479187012 7.191291809082031 68.51336479187012 Z M 42.25621795654297 37.34854996204376 C 41.97801208496094 37.34854996204376 41.69751739501953 37.25817799568176 41.462913513183594 37.07321107387543 C 40.915428161621094 36.63908779621124 40.8260498046875 35.84820640087128 41.2655029296875 35.30648136138916 C 41.2655029296875 35.30648136138916 58.752647399902344 13.707919239997864 58.752647399902344 13.707919239997864 C 59.19072723388672 13.167883396148682 59.990211486816406 13.07835602760315 60.53895568847656 13.512141466140747 C 61.086326599121094 13.945926904678345 61.17570495605469 14.73680830001831 60.73625183105469 15.27870225906372 C 60.73625183105469 15.27870225906372 43.24922180175781 36.87743330001831 43.24922180175781 36.87743330001831 C 42.99836730957031 37.186893939971924 42.62975311279297 37.34854996204376 42.25621795654297 37.34854996204376 Z M 44.255958557128906 24.75306272506714 C 41.075531005859375 24.75306272506714 38.48859405517578 22.194775938987732 38.48859405517578 19.05084502696991 C 38.48859405517578 15.907251954078674 41.075531005859375 13.348965167999268 44.255958557128906 13.348965167999268 C 47.43627166748047 13.348965167999268 50.02458190917969 15.907251954078674 50.02458190917969 19.05084502696991 C 50.02458190917969 22.194775938987732 47.43627166748047 24.75306272506714 44.255958557128906 24.75306272506714 Z M 44.255958557128906 15.862319350242615 C 42.477088928222656 15.862319350242615 41.03089904785156 17.292561292648315 41.03089904785156 19.05084502696991 C 41.03089904785156 20.809297680854797 42.477088928222656 22.239539623260498 44.255958557128906 22.239539623260498 C 46.034828186035156 22.239539623260498 47.482276916503906 20.809297680854797 47.482276916503906 19.05084502696991 C 47.482276916503906 17.292561292648315 46.034828186035156 15.862319350242615 44.255958557128906 15.862319350242615 Z M 57.24809265136719 37.59517252445221 C 54.06755065917969 37.59517252445221 51.479469299316406 35.03739249706268 51.479469299316406 31.893292665481567 C 51.479469299316406 28.74919283390045 54.06755065917969 26.191243886947632 57.24809265136719 26.191243886947632 C 60.42852020263672 26.191243886947632 63.01545715332031 28.74919283390045 63.01545715332031 31.893292665481567 C 63.01545715332031 35.03739249706268 60.42852020263672 37.59517252445221 57.24809265136719 37.59517252445221 Z M 57.24809265136719 28.704429149627686 C 55.46922302246094 28.704429149627686 54.02177429199219 30.134502172470093 54.02177429199219 31.893292665481567 C 54.02177429199219 33.651745319366455 55.46922302246094 35.08164942264557 57.24809265136719 35.08164942264557 C 59.02696228027344 35.08164942264557 60.47315216064453 33.651745319366455 60.47315216064453 31.893292665481567 C 60.47315216064453 30.134502172470093 59.02696228027344 28.704429149627686 57.24809265136719 28.704429149627686 Z"/></g></svg>