<svg version="1.1" xmlns="http://www.w3.org/2000/svg" xmlns:xlink="http://www.w3.org/1999/xlink" width="107" height="69"><defs/><g><path fill="rgb(32,170,151)" stroke="none" paint-order="stroke fill markers" fill-rule="evenodd" d=" M 24.856216430664062 67.9978529214859 C 24.856216430664062 67.9978529214859 19.610702514648438 67.9978529214859 19.610702514648438 67.9978529214859 C 17.880470275878906 67.9978529214859 16.413795471191406 66.78146314620972 16.12403106689453 65.10476756095886 C 16.12403106689453 65.10476756095886 13.6888427734375 46.54033863544464 13.6888427734375 46.54033863544464 C 13.6888427734375 46.54033863544464 11.404258728027344 46.54033863544464 11.404258728027344 46.54033863544464 C 8.705741882324219 46.54033863544464 6.4948577880859375 44.446242809295654 6.368629455566406 41.824780106544495 C 6.368629455566406 41.824780106544495 6.097862243652344 41.824780106544495 6.097862243652344 41.824780106544495 C 3.834564208984375 41.824780106544495 1.993438720703125 40.015482664108276 1.993438720703125 37.79148769378662 C 1.993438720703125 37.79148769378662 1.993438720703125 29.96561324596405 1.993438720703125 29.96561324596405 C 1.993438720703125 27.742631793022156 3.834564208984375 25.933165431022644 6.097862243652344 25.933165431022644 C 6.097862243652344 25.933165431022644 6.368629455566406 25.933165431022644 6.368629455566406 25.933165431022644 C 6.4948577880859375 23.312209486961365 8.704483032226562 21.217606902122498 11.404258728027344 21.217606902122498 C 11.404258728027344 21.217606902122498 27.094451904296875 21.217606902122498 27.094451904296875 21.217606902122498 C 28.9891357421875 21.217606902122498 30.681259155273438 22.241766214370728 31.544601440429688 23.840083122253418 C 35.32000732421875 23.809508681297302 47.05237579345703 23.151566982269287 58.20532989501953 16.71117079257965 C 71.34120178222656 9.13158106803894 73.67476654052734 3.525985360145569 73.69628143310547 3.4704108238220215 C 74.06008911132812 2.469055652618408 75.11775207519531 1.8697290420532227 76.19326782226562 2.0396621227264404 C 77.28194427490234 2.2222641706466675 78.0702133178711 3.1388217210769653 78.0702133178711 4.219062328338623 C 78.0702133178711 4.219062328338623 78.0702133178711 25.03687822818756 78.0702133178711 25.03687822818756 C 78.32061004638672 37.47155404090881 78.27288818359375 41.35585939884186 78.06414794921875 42.72208082675934 C 78.06414794921875 42.72208082675934 78.0702133178711 42.72208082675934 78.0702133178711 42.72208082675934 C 78.0702133178711 42.72208082675934 78.0702133178711 63.539389967918396 78.0702133178711 63.539389967918396 C 78.0702133178711 64.63280630111694 77.2737045288086 65.55240440368652 76.1754150390625 65.72453343868256 C 76.09072875976562 65.74226999282837 75.95122528076172 65.75392544269562 75.81641387939453 65.75392544269562 C 74.85659790039062 65.75392544269562 74.00035095214844 65.1527407169342 73.68678283691406 64.26000082492828 C 73.676025390625 64.23533856868744 71.3377685546875 58.62399959564209 58.20532989501953 51.045592308044434 C 47.048828125 44.60637855529785 35.32000732421875 43.94776117801666 31.545860290527344 43.91718673706055 C 30.682403564453125 45.51601040363312 28.990509033203125 46.54033863544464 27.094451904296875 46.54033863544464 C 27.094451904296875 46.54033863544464 26.089202880859375 46.54033863544464 26.089202880859375 46.54033863544464 C 26.089202880859375 46.54033863544464 28.347694396972656 63.991756558418274 28.347694396972656 63.991756558418274 C 28.51580810546875 64.95003724098206 28.229476928710938 65.98010873794556 27.55461883544922 66.7662603855133 C 26.88697052001953 67.54768228530884 25.9019775390625 67.9978529214859 24.856216430664062 67.9978529214859 Z M 6.097862243652344 28.332836747169495 C 5.180961608886719 28.332836747169495 4.43560791015625 29.065271973609924 4.43560791015625 29.96561324596405 C 4.43560791015625 29.96561324596405 4.43560791015625 37.79148769378662 4.43560791015625 37.79148769378662 C 4.43560791015625 38.69199788570404 5.180961608886719 39.425108790397644 6.097862243652344 39.425108790397644 C 6.097862243652344 39.425108790397644 7.583648681640625 39.425108790397644 7.583648681640625 39.425108790397644 C 8.258621215820312 39.425108790397644 8.804733276367188 39.962104082107544 8.804733276367188 40.62494444847107 C 8.804733276367188 40.62494444847107 8.804733276367188 41.587279200553894 8.804733276367188 41.587279200553894 C 8.804733276367188 42.99573051929474 9.97088623046875 44.140836238861084 11.404258728027344 44.140836238861084 C 11.404258728027344 44.140836238861084 14.763328552246094 44.140836238861084 14.763328552246094 44.140836238861084 C 15.377532958984375 44.140836238861084 15.89617919921875 44.589486598968506 15.97491455078125 45.187461853027344 C 15.97491455078125 45.187461853027344 18.539878845214844 64.75088107585907 18.539878845214844 64.75088107585907 C 18.622047424316406 65.22199773788452 19.075233459472656 65.59835052490234 19.610702514648438 65.59835052490234 C 19.610702514648438 65.59835052490234 24.856216430664062 65.59835052490234 24.856216430664062 65.59835052490234 C 25.179397583007812 65.59835052490234 25.482208251953125 65.45983648300171 25.687400817871094 65.21946394443512 C 25.89842987060547 64.9746994972229 25.986549377441406 64.6572996377945 25.93299102783203 64.34564304351807 C 25.93299102783203 64.34564304351807 23.49219512939453 45.49219274520874 23.49219512939453 45.49219274520874 C 23.447906494140625 45.15063738822937 23.555137634277344 44.80671715736389 23.787796020507812 44.54776346683502 C 24.019195556640625 44.28931653499603 24.3529052734375 44.140836238861084 24.70355224609375 44.140836238861084 C 24.70355224609375 44.140836238861084 27.094451904296875 44.140836238861084 27.094451904296875 44.140836238861084 C 28.233253479003906 44.140836238861084 29.22888946533203 43.42478621006012 29.573471069335938 42.357890248298645 C 29.73334503173828 41.86396944522858 30.196029663085938 41.526805996894836 30.722915649414062 41.52055597305298 C 30.722915649414062 41.52055597305298 31.253692626953125 41.51633298397064 31.253692626953125 41.51633298397064 C 34.83454895019531 41.51633298397064 47.449485778808594 42.05417287349701 59.44300842285156 48.976327657699585 C 70.85242462158203 55.56115007400513 74.5787353515625 60.830426931381226 75.62804412841797 62.716920614242554 C 75.62804412841797 62.716920614242554 75.62804412841797 42.72208082675934 75.62804412841797 42.72208082675934 C 75.62804412841797 42.58795869350433 75.65070343017578 42.45569467544556 75.69476318359375 42.3306941986084 C 75.8534927368164 41.12207472324371 75.78059387207031 32.615623354911804 75.62804412841797 25.060864806175232 C 75.62804412841797 25.060864806175232 75.62804412841797 5.037984371185303 75.62804412841797 5.037984371185303 C 74.57759094238281 6.925153732299805 70.84510040283203 12.200680613517761 59.44300842285156 18.7804354429245 C 47.45417785644531 25.703096985816956 34.835693359375 26.24076795578003 31.253692626953125 26.24076795578003 C 31.253692626953125 26.24076795578003 30.718223571777344 26.238572001457214 30.718223571777344 26.238572001457214 C 30.193511962890625 26.230294942855835 29.732086181640625 25.892793655395508 29.573471069335938 25.401237726211548 C 29.22888946533203 24.33417284488678 28.233253479003906 23.61744713783264 27.094451904296875 23.61744713783264 C 27.094451904296875 23.61744713783264 11.404258728027344 23.61744713783264 11.404258728027344 23.61744713783264 C 9.97088623046875 23.61744713783264 8.804733276367188 24.76272177696228 8.804733276367188 26.16999065876007 C 8.804733276367188 26.16999065876007 8.804733276367188 27.13300108909607 8.804733276367188 27.13300108909607 C 8.804733276367188 27.7956725358963 8.258621215820312 28.332836747169495 7.583648681640625 28.332836747169495 C 7.583648681640625 28.332836747169495 6.097862243652344 28.332836747169495 6.097862243652344 28.332836747169495 Z M 75.98704528808594 63.45273423194885 C 75.98704528808594 63.45493018627167 75.9883041381836 63.45611262321472 75.9883041381836 63.457295060157776 C 75.9883041381836 63.45611262321472 75.98704528808594 63.45493018627167 75.98704528808594 63.45273423194885 Z M 75.97972106933594 41.87984788417816 C 75.97972106933594 41.87984788417816 75.97857666015625 41.88035464286804 75.97857666015625 41.88035464286804 C 75.97857666015625 41.88035464286804 75.97972106933594 41.87984788417816 75.97972106933594 41.87984788417816 Z M 75.98338317871094 41.875624895095825 C 75.98338317871094 41.875624895095825 75.98235321044922 41.87731409072876 75.98109436035156 41.87815868854523 C 75.98235321044922 41.87731409072876 75.98338317871094 41.87596273422241 75.98338317871094 41.87596273422241 C 75.98338317871094 41.87596273422241 75.98338317871094 41.875624895095825 75.98338317871094 41.875624895095825 Z M 75.98704528808594 41.87326002120972 C 75.98704528808594 41.87326002120972 75.9846420288086 41.87444245815277 75.98338317871094 41.875624895095825 C 75.9846420288086 41.87444245815277 75.98578643798828 41.87393569946289 75.98578643798828 41.87393569946289 C 75.98578643798828 41.87393569946289 75.98704528808594 41.87326002120972 75.98704528808594 41.87326002120972 Z M 30.949623107910156 43.08998763561249 C 30.274765014648438 43.08998763561249 29.728538513183594 42.552823424339294 29.728538513183594 41.890320897102356 C 29.728538513183594 41.890320897102356 29.728538513183594 25.7639080286026 29.728538513183594 25.7639080286026 C 29.728538513183594 25.101574420928955 30.274765014648438 24.564072370529175 30.949623107910156 24.564072370529175 C 31.624481201171875 24.564072370529175 32.17070770263672 25.101574420928955 32.17070770263672 25.7639080286026 C 32.17070770263672 25.7639080286026 32.17070770263672 41.890320897102356 32.17070770263672 41.890320897102356 C 32.17070770263672 42.552823424339294 31.624481201171875 43.08998763561249 30.949623107910156 43.08998763561249 Z M 24.70355224609375 46.54033863544464 C 24.70355224609375 46.54033863544464 14.763328552246094 46.54033863544464 14.763328552246094 46.54033863544464 C 14.088470458984375 46.54033863544464 13.5423583984375 46.003512263298035 13.5423583984375 45.341009736061096 C 13.5423583984375 44.678338289260864 14.088470458984375 44.140836238861084 14.763328552246094 44.140836238861084 C 14.763328552246094 44.140836238861084 24.70355224609375 44.140836238861084 24.70355224609375 44.140836238861084 C 25.378524780273438 44.140836238861084 25.92475128173828 44.678338289260864 25.92475128173828 45.341009736061096 C 25.92475128173828 46.003512263298035 25.378524780273438 46.54033863544464 24.70355224609375 46.54033863544464 Z M 7.583648681640625 40.9107563495636 C 6.908790588378906 40.9107563495636 6.3625640869140625 40.37325429916382 6.3625640869140625 39.71092069149017 C 6.3625640869140625 39.71092069149017 6.3625640869140625 27.13300108909607 6.3625640869140625 27.13300108909607 C 6.3625640869140625 26.47049856185913 6.908790588378906 25.933165431022644 7.583648681640625 25.933165431022644 C 8.258621215820312 25.933165431022644 8.804733276367188 26.47049856185913 8.804733276367188 27.13300108909607 C 8.804733276367188 27.13300108909607 8.804733276367188 39.71092069149017 8.804733276367188 39.71092069149017 C 8.804733276367188 40.37325429916382 8.258621215820312 40.9107563495636 7.583648681640625 40.9107563495636 Z M 77.44181823730469 42.0311998128891 C 76.766845703125 42.0311998128891 76.22073364257812 41.4942045211792 76.22073364257812 40.831364154815674 C 76.22073364257812 40.16903054714203 76.766845703125 39.63169741630554 77.44181823730469 39.63169741630554 C 78.60087585449219 39.63169741630554 79.54283905029297 38.8504444360733 79.54283905029297 37.88962996006012 C 79.54283905029297 37.88962996006012 79.54283905029297 29.577267169952393 79.54283905029297 29.577267169952393 C 79.54283905029297 28.61695945262909 78.60087585449219 27.835537552833557 77.44181823730469 27.835537552833557 C 76.766845703125 27.835537552833557 76.22073364257812 27.29820442199707 76.22073364257812 26.635701894760132 C 76.22073364257812 25.972861528396606 76.766845703125 25.435866236686707 77.44181823730469 25.435866236686707 C 79.9470443725586 25.435866236686707 81.9850082397461 27.293474674224854 81.9850082397461 29.577267169952393 C 81.9850082397461 29.577267169952393 81.9850082397461 37.88962996006012 81.9850082397461 37.88962996006012 C 81.9850082397461 40.17308461666107 79.9470443725586 42.0311998128891 77.44181823730469 42.0311998128891 Z M 104.77729034423828 36.16124498844147 C 104.77729034423828 36.16124498844147 95.50139617919922 36.16124498844147 95.50139617919922 36.16124498844147 C 94.82642364501953 36.16124498844147 94.28019714355469 35.62391185760498 94.28019714355469 34.96140933036804 C 94.28019714355469 34.29873788356781 94.82642364501953 33.76157367229462 95.50139617919922 33.76157367229462 C 95.50139617919922 33.76157367229462 104.77729034423828 33.76157367229462 104.77729034423828 33.76157367229462 C 105.4521484375 33.76157367229462 105.99848937988281 34.29873788356781 105.99848937988281 34.96140933036804 C 105.99848937988281 35.62391185760498 105.4521484375 36.16124498844147 104.77729034423828 36.16124498844147 Z M 96.11308288574219 57.473488450050354 C 95.80054473876953 57.473488450050354 95.48823547363281 57.3560893535614 95.24974060058594 57.12179791927338 C 95.24974060058594 57.12179791927338 88.69124603271484 50.67633414268494 88.69124603271484 50.67633414268494 C 88.2142562866211 50.20758235454559 88.2142562866211 49.44862675666809 88.69124603271484 48.97987496852875 C 89.1682357788086 48.511123180389404 89.9409408569336 48.511123180389404 90.41793060302734 48.97987496852875 C 90.41793060302734 48.97987496852875 96.97631072998047 55.42533874511719 96.97631072998047 55.42533874511719 C 97.45341491699219 55.89392161369324 97.45341491699219 56.65321505069733 96.97631072998047 57.12179791927338 C 96.7378158569336 57.3560893535614 96.42550659179688 57.473488450050354 96.11308288574219 57.473488450050354 Z M 89.5545883178711 21.56169605255127 C 89.2421646118164 21.56169605255127 88.92974090576172 21.44446587562561 88.69124603271484 21.210005521774292 C 88.2142562866211 20.741929411888123 88.2142562866211 19.982129216194153 88.69124603271484 19.513546347618103 C 88.69124603271484 19.513546347618103 95.24974060058594 13.06791365146637 95.24974060058594 13.06791365146637 C 95.72673034667969 12.599161863327026 96.49943542480469 12.599161863327026 96.97631072998047 13.06791365146637 C 97.45341491699219 13.535820841789246 97.45341491699219 14.295789957046509 96.97631072998047 14.764541745185852 C 96.97631072998047 14.764541745185852 90.41793060302734 21.210005521774292 90.41793060302734 21.210005521774292 C 90.17943572998047 21.44446587562561 89.86701202392578 21.56169605255127 89.5545883178711 21.56169605255127 Z"/></g></svg>