<svg version="1.1" xmlns="http://www.w3.org/2000/svg" xmlns:xlink="http://www.w3.org/1999/xlink" width="73" height="71"><defs/><g><path fill="rgb(32,170,151)" stroke="none" paint-order="stroke fill markers" fill-rule="evenodd" d=" M 40.978477478027344 33.92711102962494 C 40.978477478027344 33.92711102962494 37.078216552734375 33.92711102962494 37.078216552734375 33.92711102962494 C 35.24853515625 33.92711102962494 33.71125030517578 32.65565347671509 33.39928436279297 30.929802298545837 C 32.10289764404297 31.866461277008057 29.924285888671875 31.700582265853882 28.702743530273438 30.487908720970154 C 28.702743530273438 30.487908720970154 25.923316955566406 27.727256298065186 25.923316955566406 27.727256298065186 C 24.663780212402344 26.4101904630661 24.50653839111328 24.479777693748474 25.493247985839844 23.027576208114624 C 23.78521728515625 22.777575254440308 22.461822509765625 21.238886952400208 22.461822509765625 19.40661644935608 C 22.461822509765625 19.40661644935608 22.461822509765625 15.532108426094055 22.461822509765625 15.532108426094055 C 22.461822509765625 13.715378522872925 23.740928649902344 12.188007831573486 25.478370666503906 11.877702593803406 C 24.454925537109375 10.575501680374146 24.609649658203125 8.517554640769958 25.923316955566406 7.212313175201416 C 25.923316955566406 7.212313175201416 28.702743530273438 4.451322913169861 28.702743530273438 4.451322913169861 C 30.028770446777344 3.199122190475464 31.973922729492188 3.0427026748657227 33.43235778808594 4.023111820220947 C 33.68550109863281 2.326483726501465 35.235145568847656 1.0124584436416626 37.078216552734375 1.0124584436416626 C 37.078216552734375 1.0124584436416626 40.978477478027344 1.0124584436416626 40.978477478027344 1.0124584436416626 C 42.806785583496094 1.0124584436416626 44.34407043457031 2.2830713987350464 44.658668518066406 4.00858473777771 C 45.96855926513672 2.9911822080612183 48.039024353027344 3.146250367164612 49.35395050048828 4.451322913169861 C 49.35395050048828 4.451322913169861 52.12239074707031 7.201671242713928 52.12239074707031 7.201671242713928 C 53.419921875 8.436642169952393 53.59318542480469 10.417730808258057 52.56470489501953 11.911824345588684 C 54.27159118652344 12.16131854057312 55.594871520996094 13.699331164360046 55.594871520996094 15.532108426094055 C 55.594871520996094 15.532108426094055 55.594871520996094 19.40661644935608 55.594871520996094 19.40661644935608 C 55.594871520996094 21.223008513450623 54.315650939941406 22.750041365623474 52.5794677734375 23.061360120773315 C 53.60302734375 24.364912390708923 53.446929931640625 26.423028349876404 52.13337707519531 27.727256298065186 C 52.13337707519531 27.727256298065186 49.35395050048828 30.487908720970154 49.35395050048828 30.487908720970154 C 48.145912170410156 31.6897714138031 46.05461883544922 31.893319487571716 44.622962951660156 30.918991446495056 C 44.371192932128906 32.61308574676514 42.82280731201172 33.92711102962494 40.978477478027344 33.92711102962494 Z M 34.29993438720703 27.508336544036865 C 34.46221160888672 27.508336544036865 34.625633239746094 27.53941774368286 34.780357360839844 27.602762579917908 C 35.178497314453125 27.766445636749268 35.464942932128906 28.121007800102234 35.53978729248047 28.542799949645996 C 35.53978729248047 28.542799949645996 35.853240966796875 30.32354998588562 35.853240966796875 30.32354998588562 C 35.92808532714844 30.998045802116394 36.43803405761719 31.42727041244507 37.078216552734375 31.42727041244507 C 37.078216552734375 31.42727041244507 40.978477478027344 31.42727041244507 40.978477478027344 31.42727041244507 C 41.59291076660156 31.42727041244507 42.08557891845703 31.014599919319153 42.148292541503906 30.446523427963257 C 42.148292541503906 30.446523427963257 42.473876953125 28.547191858291626 42.473876953125 28.547191858291626 C 42.54631805419922 28.12573754787445 42.831504821777344 27.769824028015137 43.22838592529297 27.60529637336731 C 43.62389373779297 27.438572764396667 44.07868194580078 27.48806619644165 44.43379211425781 27.73283064365387 C 44.43379211425781 27.73283064365387 45.912025451660156 28.756652116775513 45.912025451660156 28.756652116775513 C 46.52771759033203 29.240944504737854 47.17030334472656 29.123714327812195 47.5733642578125 28.721685767173767 C 47.5733642578125 28.721685767173767 50.354164123535156 25.95968198776245 50.354164123535156 25.95968198776245 C 50.781715393066406 25.534680366516113 50.850494384765625 24.889238715171814 50.51014709472656 24.49075746536255 C 50.51014709472656 24.49075746536255 49.36482238769531 22.889400005340576 49.36482238769531 22.889400005340576 C 49.115455627441406 22.539567589759827 49.065101623535156 22.08720099925995 49.22852325439453 21.691084623336792 C 49.39320373535156 21.29513716697693 49.750831604003906 21.01033878326416 50.174720764160156 20.93652093410492 C 50.174720764160156 20.93652093410492 51.967552185058594 20.62486433982849 51.967552185058594 20.62486433982849 C 52.645843505859375 20.549864053726196 53.07831573486328 20.042598605155945 53.07831573486328 19.40661644935608 C 53.07831573486328 19.40661644935608 53.07831573486328 15.532108426094055 53.07831573486328 15.532108426094055 C 53.07831573486328 14.921802043914795 52.66289520263672 14.433624505996704 52.09149169921875 14.370786428451538 C 52.09149169921875 14.370786428451538 50.1807861328125 14.048487901687622 50.1807861328125 14.048487901687622 C 49.755638122558594 13.97652816772461 49.39812469482422 13.693756818771362 49.231040954589844 13.29882287979126 C 49.065101623535156 12.90405786037445 49.11316680908203 12.45253586769104 49.360015869140625 12.10168993473053 C 49.360015869140625 12.10168993473053 50.391014099121094 10.631751894950867 50.391014099121094 10.631751894950867 C 50.830810546875 10.070263266563416 50.807464599609375 9.408943176269531 50.37739562988281 9.00235378742218 C 50.37007141113281 8.994921326637268 50.36137390136719 8.987488865852356 50.354164123535156 8.979718565940857 C 50.354164123535156 8.979718565940857 47.574623107910156 6.218559384346008 47.574623107910156 6.218559384346008 C 47.148216247558594 5.795415878295898 46.500709533691406 5.725989937782288 46.09638977050781 6.064842581748962 C 46.09638977050781 6.064842581748962 44.48414611816406 7.202346920967102 44.48414611816406 7.202346920967102 C 44.131553649902344 7.44998300075531 43.67802429199219 7.500827789306641 43.27759552001953 7.3366379737854 C 42.87945556640625 7.173123836517334 42.59312438964844 6.818561673164368 42.51805114746094 6.396093845367432 C 42.51805114746094 6.396093845367432 42.2047119140625 4.61449921131134 42.2047119140625 4.61449921131134 C 42.12975311279297 3.942030429840088 41.61865997314453 3.5121301412582397 40.978477478027344 3.5121301412582397 C 40.978477478027344 3.5121301412582397 37.078216552734375 3.5121301412582397 37.078216552734375 3.5121301412582397 C 36.463897705078125 3.5121301412582397 35.972259521484375 3.9249695539474487 35.90840148925781 4.493890643119812 C 35.90840148925781 4.493890643119812 35.583961486816406 6.391195178031921 35.583961486816406 6.391195178031921 C 35.51289367675781 6.81281840801239 35.22770690917969 7.168900847434998 34.829566955566406 7.334273099899292 C 34.43268585205078 7.500152111053467 33.979270935058594 7.451334357261658 33.62416076660156 7.2065699100494385 C 33.62416076660156 7.2065699100494385 32.14466857910156 6.181903839111328 32.14466857910156 6.181903839111328 C 31.6065673828125 5.768726587295532 30.915802001953125 5.810111880302429 30.458839416503906 6.241025686264038 C 30.458839416503906 6.241025686264038 27.702529907226562 8.979718565940857 27.702529907226562 8.979718565940857 C 27.274978637695312 9.404551267623901 27.20734405517578 10.04948616027832 27.547805786132812 10.447967410087585 C 27.547805786132812 10.447967410087585 28.693016052246094 12.051520824432373 28.693016052246094 12.051520824432373 C 28.941238403320312 12.401184320449829 28.991592407226562 12.853044152259827 28.8270263671875 13.248822689056396 C 28.663490295410156 13.64426338672638 28.30597686767578 13.928892850875854 27.881973266601562 14.002710700035095 C 27.881973266601562 14.002710700035095 26.089141845703125 14.31470513343811 26.089141845703125 14.31470513343811 C 25.409706115722656 14.389705419540405 24.978378295898438 14.896801948547363 24.978378295898438 15.532108426094055 C 24.978378295898438 15.532108426094055 24.978378295898438 19.40661644935608 24.978378295898438 19.40661644935608 C 24.978378295898438 20.017091751098633 25.39368438720703 20.505944967269897 25.966232299804688 20.569289803504944 C 25.966232299804688 20.569289803504944 27.877052307128906 20.890912652015686 27.877052307128906 20.890912652015686 C 28.300941467285156 20.9628723859787 28.65868377685547 21.246150493621826 28.825767517089844 21.640408754348755 C 28.991592407226562 22.035342693328857 28.94249725341797 22.486864686012268 28.696792602539062 22.83771061897278 C 28.696792602539062 22.83771061897278 27.665679931640625 24.306972980499268 27.665679931640625 24.306972980499268 C 27.25048828125 24.843968272209167 27.291000366210938 25.52809250354767 27.725875854492188 25.98299288749695 C 27.725875854492188 25.98299288749695 30.482070922851562 28.72033441066742 30.482070922851562 28.72033441066742 C 30.89257049560547 29.12692379951477 31.726844787597656 29.076754689216614 31.946800231933594 28.886213421821594 C 31.97998809814453 28.857497096061707 32.014434814453125 28.83080780506134 32.050025939941406 28.80580770969391 C 32.050025939941406 28.80580770969391 33.574951171875 27.737053632736206 33.574951171875 27.737053632736206 C 33.78998565673828 27.58570170402527 34.04438781738281 27.508336544036865 34.29993438720703 27.508336544036865 Z M 39.592369079589844 24.940590262413025 C 35.44514465332031 24.940590262413025 32.072227478027344 21.589226126670837 32.072227478027344 17.469446897506714 C 32.072227478027344 13.35017442703247 35.44514465332031 9.998979210853577 39.592369079589844 9.998979210853577 C 43.739479064941406 9.998979210853577 47.11262512207031 13.35017442703247 47.11262512207031 17.469446897506714 C 47.11262512207031 21.589226126670837 43.739479064941406 24.940590262413025 39.592369079589844 24.940590262413025 Z M 39.592369079589844 12.49898874759674 C 36.833770751953125 12.49898874759674 34.588783264160156 14.72855806350708 34.588783264160156 17.469446897506714 C 34.588783264160156 20.210335731506348 36.833770751953125 22.440749645233154 39.592369079589844 22.440749645233154 C 42.35096740722656 22.440749645233154 44.59595489501953 20.210335731506348 44.59595489501953 17.469446897506714 C 44.59595489501953 14.72855806350708 42.35096740722656 12.49898874759674 39.592369079589844 12.49898874759674 Z M 17.666976928710938 69.99211347103119 C 17.3499755859375 69.99211347103119 17.032974243164062 69.87370085716248 16.788414001464844 69.63721346855164 C 16.788414001464844 69.63721346855164 2.3734359741210938 55.684964299201965 2.3734359741210938 55.684964299201965 C 2.1326522827148438 55.451348543167114 1.995208740234375 55.13073921203613 1.99383544921875 54.796109557151794 C 1.9925765991210938 54.46164882183075 2.1265869140625 54.13935029506683 2.3649673461914062 53.903876423835754 C 2.3649673461914062 53.903876423835754 12.687995910644531 43.713634848594666 12.687995910644531 43.713634848594666 C 17.276275634765625 39.18574595451355 24.185760498046875 37.63489544391632 30.290496826171875 39.75939679145813 C 30.290496826171875 39.75939679145813 32.348602294921875 40.47662925720215 32.348602294921875 40.47662925720215 C 32.348602294921875 40.47662925720215 46.09272766113281 40.47662925720215 46.09272766113281 40.47662925720215 C 46.09272766113281 40.47662925720215 46.09764862060547 40.47662925720215 46.09764862060547 40.47662925720215 C 47.59545135498047 40.47662925720215 49.004905700683594 41.05636119842529 50.06657409667969 42.10873007774353 C 51.12938690185547 43.16261923313141 51.71429443359375 44.563807010650635 51.715553283691406 46.055535674095154 C 51.715553283691406 46.055535674095154 51.71074676513672 46.27952301502228 51.71074676513672 46.27952301502228 C 51.53862762451172 49.346933364868164 49.01715087890625 51.70673966407776 45.95013427734375 51.70792210102081 C 45.91820526123047 51.70792210102081 45.88616180419922 51.70673966407776 45.85308837890625 51.70673966407776 C 45.85308837890625 51.70673966407776 37.52796936035156 51.70673966407776 37.52796936035156 51.70673966407776 C 37.282264709472656 51.70673966407776 37.08073425292969 51.90809178352356 37.08073425292969 52.15454542636871 C 37.08073425292969 52.39981663227081 37.282264709472656 52.601675510406494 37.52922821044922 52.601675510406494 C 37.52922821044922 52.601675510406494 45.9034423828125 52.601675510406494 45.9034423828125 52.601675510406494 C 45.9034423828125 52.601675510406494 45.9071044921875 52.601675510406494 45.9071044921875 52.601675510406494 C 49.48029327392578 52.601675510406494 52.434471130371094 49.827847361564636 52.63714599609375 46.28459060192108 C 52.653167724609375 46.003846287727356 52.76371765136719 45.62783133983612 52.951744079589844 45.41718864440918 C 52.951744079589844 45.41718864440918 60.70042419433594 36.751108288764954 60.70042419433594 36.751108288764954 C 62.773521423339844 34.37508571147919 66.36273193359375 34.03505063056946 68.8608627319336 35.98438239097595 C 71.3627700805664 38.0252685546875 71.72406005859375 41.678491950035095 69.6855239868164 44.143535137176514 C 69.64867401123047 44.18981909751892 69.59934997558594 44.24792742729187 69.54773712158203 44.30451548099518 C 69.54773712158203 44.30451548099518 54.09077453613281 61.86032569408417 54.09077453613281 61.86032569408417 C 51.79291534423828 64.47959244251251 48.46669006347656 65.98382115364075 44.9659423828125 65.98483467102051 C 44.9659423828125 65.98483467102051 22.22332763671875 65.98483467102051 22.22332763671875 65.98483467102051 C 22.22332763671875 65.98483467102051 18.556640625 69.62589585781097 18.556640625 69.62589585781097 C 18.310935974121094 69.8703224658966 17.989013671875 69.99211347103119 17.666976928710938 69.99211347103119 Z M 5.04620361328125 54.781413555145264 C 5.04620361328125 54.781413555145264 17.656105041503906 66.98585200309753 17.656105041503906 66.98585200309753 C 17.656105041503906 66.98585200309753 20.812728881835938 63.85104274749756 20.812728881835938 63.85104274749756 C 21.04859161376953 63.616751313209534 21.36811065673828 63.484825134277344 21.702392578125 63.484825134277344 C 21.702392578125 63.484825134277344 44.9659423828125 63.484825134277344 44.9659423828125 63.484825134277344 C 47.73804473876953 63.48364269733429 50.37384796142578 62.29242193698883 52.19483184814453 60.21623158454895 C 52.19483184814453 60.21623158454895 67.66655731201172 42.6438672542572 67.66655731201172 42.6438672542572 C 68.89771270751953 41.15636157989502 68.69377899169922 39.08253610134125 67.28443908691406 37.93337631225586 C 65.86399841308594 36.82408154010773 63.793304443359375 37.02205526828766 62.59281921386719 38.3995943069458 C 62.59281921386719 38.3995943069458 55.12554931640625 46.7513153553009 55.12554931640625 46.7513153553009 C 54.69055938720703 51.460286021232605 50.702980041503906 55.101516127586365 45.908363342285156 55.101516127586365 C 45.908363342285156 55.101516127586365 45.902183532714844 55.101516127586365 45.902183532714844 55.101516127586365 C 45.902183532714844 55.101516127586365 37.52796936035156 55.101516127586365 37.52796936035156 55.101516127586365 C 35.8948974609375 55.09898233413696 34.56658172607422 53.778369188308716 34.564178466796875 52.157079219818115 C 34.56166076660156 50.53257977962494 35.8912353515625 49.2090950012207 37.526710510253906 49.20689904689789 C 37.526710510253906 49.20689904689789 45.87391662597656 49.20689904689789 45.87391662597656 49.20689904689789 C 45.8924560546875 49.20689904689789 45.9107666015625 49.20689904689789 45.92930603027344 49.20689904689789 C 47.678993225097656 49.20689904689789 49.100807189941406 47.87631964683533 49.19773864746094 46.155704975128174 C 49.198997497558594 45.2334041595459 48.87593078613281 44.45958364009857 48.28850555419922 43.8779935836792 C 47.70233917236328 43.29623460769653 46.92448425292969 42.97663879394531 46.09638977050781 42.97663879394531 C 46.09638977050781 42.97663879394531 46.0938720703125 42.97663879394531 46.0938720703125 42.97663879394531 C 46.0938720703125 42.97663879394531 32.13482666015625 42.97663879394531 32.13482666015625 42.97663879394531 C 31.993606567382812 42.97663879394531 31.852272033691406 42.95265221595764 31.71826171875 42.906368255615234 C 31.71826171875 42.906368255615234 29.457366943359375 42.11903417110443 29.457366943359375 42.11903417110443 C 24.25946044921875 40.30770969390869 18.371131896972656 41.6293363571167 14.46240234375 45.48745918273926 C 14.46240234375 45.48745918273926 5.04620361328125 54.781413555145264 5.04620361328125 54.781413555145264 Z"/></g></svg>