<svg version="1.1" xmlns="http://www.w3.org/2000/svg" xmlns:xlink="http://www.w3.org/1999/xlink" width="70" height="73"><defs/><g><path fill="rgb(32,170,151)" stroke="none" paint-order="stroke fill markers" fill-rule="evenodd" d=" M 46.75877380371094 17.227692365646362 C 46.32103729248047 17.227692365646362 45.896690368652344 16.994414448738098 45.66986846923828 16.581912875175476 C 45.66986846923828 16.581912875175476 42.503746032714844 10.803681373596191 42.503746032714844 10.803681373596191 C 42.34490203857422 10.51381540298462 42.30736541748047 10.172091126441956 42.398231506347656 9.85469126701355 C 42.4903564453125 9.536784648895264 42.70378875732422 9.268540382385254 42.992408752441406 9.108911395072937 C 42.992408752441406 9.108911395072937 48.74260711669922 5.929000616073608 48.74260711669922 5.929000616073608 C 49.34513854980469 5.596735835075378 50.09953308105469 5.816331267356873 50.429351806640625 6.420049786567688 C 50.76031494140625 7.02359938621521 50.54081726074219 7.782892823219299 49.940574645996094 8.114819765090942 C 49.940574645996094 8.114819765090942 45.27813720703125 10.69371473789215 45.27813720703125 10.69371473789215 C 45.27813720703125 10.69371473789215 47.84527587890625 15.378023147583008 47.84527587890625 15.378023147583008 C 48.176353454589844 15.981741666793823 47.95685577392578 16.740190505981445 47.35661315917969 17.072962045669556 C 47.166297912597656 17.17819893360138 46.961219787597656 17.227692365646362 46.75877380371094 17.227692365646362 Z M 51.22242736816406 56.00486731529236 C 51.22242736816406 56.00486731529236 51.02833557128906 56.00486731529236 51.02833557128906 56.00486731529236 C 49.390228271484375 56.00486731529236 47.9688720703125 55.47125041484833 46.803749084472656 54.417192339897156 C 45.731781005859375 53.341174721717834 45.01148986816406 52.3714075088501 44.487464904785156 51.319714307785034 C 44.483917236328125 51.312450766563416 44.480369567871094 51.3051872253418 44.476593017578125 51.29758584499359 C 43.47981262207031 49.192341327667236 42.917335510253906 47.00044107437134 42.80690002441406 44.7837096452713 C 42.80690002441406 44.7837096452713 42.805641174316406 43.84502363204956 42.805641174316406 43.84502363204956 C 43.03978729248047 40.86325550079346 44.65729522705078 38.775747537612915 47.488792419433594 37.70817589759827 C 48.609283447265625 37.25783634185791 49.741790771484375 37.04432201385498 51.02833557128906 37.04432201385498 C 52.2626953125 37.04432201385498 53.494651794433594 37.27692425251007 54.59088134765625 37.71746647357941 C 57.34959411621094 38.75733530521393 59.01093292236328 40.89991104602814 59.24610900878906 43.742151618003845 C 59.24610900878906 43.742151618003845 59.24977111816406 44.72154724597931 59.24977111816406 44.72154724597931 C 59.24977111816406 46.8827041387558 58.71979522705078 49.096057176589966 57.67460632324219 51.29910612106323 C 57.26353454589844 52.33965063095093 56.49231719970703 53.38391137123108 55.34882354736328 54.417192339897156 C 54.200523376464844 55.44304084777832 52.7369384765625 56.00486731529236 51.22242736816406 56.00486731529236 Z M 46.71391296386719 50.21481144428253 C 47.114112854003906 51.01515233516693 47.686431884765625 51.77647280693054 48.51338195800781 52.607725977897644 C 48.95970153808594 53.010936975479126 49.490821838378906 53.282559633255005 50.10674285888672 53.415499329566956 C 50.18925476074219 52.807557821273804 50.70332336425781 52.33965063095093 51.330345153808594 52.33965063095093 C 51.330345153808594 52.33965063095093 51.34236145019531 52.33965063095093 51.34236145019531 52.33965063095093 C 51.917198181152344 52.33965063095093 52.39979553222656 52.730868339538574 52.54170227050781 53.26313388347626 C 52.96009826660156 53.101308941841125 53.35045623779297 52.86363911628723 53.69366455078125 52.55772578716278 C 54.5533447265625 51.77917551994324 55.097740173339844 51.060253858566284 55.40100860595703 50.298595547676086 C 56.31779479980469 48.35990571975708 56.76640319824219 46.508716225624084 56.76640319824219 44.72154724597931 C 56.76640319824219 44.72154724597931 56.76640319824219 43.84502363204956 56.76640319824219 43.84502363204956 C 56.61854553222656 42.09535479545593 55.553672790527344 40.745349645614624 53.69366455078125 40.04399561882019 C 52.862937927246094 39.71088624000549 51.949928283691406 39.53960180282593 51.02833557128906 39.53960180282593 C 50.05455780029297 39.53960180282593 49.23973846435547 39.692474007606506 48.38612365722656 40.03504288196564 C 46.442230224609375 40.76764702796936 45.437095642089844 42.04332756996155 45.28546142578125 43.94434833526611 C 45.28546142578125 43.94434833526611 45.28912353515625 44.72154724597931 45.28912353515625 44.72154724597931 C 45.381248474121094 46.54131770133972 45.86155700683594 48.41007483005524 46.71391296386719 50.21481144428253 Z M 62.66205596923828 71.00779616832733 C 62.66205596923828 71.00779616832733 39.58744812011719 71.00779616832733 39.58744812011719 71.00779616832733 C 38.196533203125 71.00779616832733 36.42498779296875 70.29005694389343 35.62218475341797 68.27602899074554 C 35.60169982910156 68.22366392612457 35.58464813232422 68.1687650680542 35.571372985839844 68.11403512954712 C 35.46940612792969 67.70693898200989 35.368812561035156 67.2986603975296 35.266845703125 66.78953683376312 C 35.25128173828125 66.70879328250885 35.242698669433594 66.62619161605835 35.242698669433594 66.54443454742432 C 35.242698669433594 66.54443454742432 35.242698669433594 62.745264649391174 35.242698669433594 62.745264649391174 C 35.230567932128906 62.214181542396545 35.34088897705078 60.322958111763 37.282264709472656 58.83173620700836 C 37.928627014160156 58.31028151512146 38.759239196777344 57.872779846191406 39.53766632080078 57.648454666137695 C 39.53766632080078 57.648454666137695 44.28387451171875 55.831724762916565 44.28387451171875 55.831724762916565 C 44.37359619140625 55.79760301113129 44.46697998046875 55.77327859401703 44.56150817871094 55.76128530502319 C 44.56150817871094 55.76128530502319 46.01673889160156 55.56601428985596 46.01673889160156 55.56601428985596 C 46.173065185546875 55.54405474662781 46.33076477050781 55.55385208129883 46.48114013671875 55.59270358085632 C 46.48114013671875 55.59270358085632 46.86920928955078 55.69033908843994 46.86920928955078 55.69033908843994 C 47.66583251953125 55.848785638809204 48.16777038574219 56.35199701786041 48.609283447265625 56.79693114757538 C 48.76801300048828 56.95622229576111 48.860252380371094 57.11365532875061 48.912322998046875 57.21348679065704 C 49.40705108642578 57.85943520069122 49.876373291015625 58.53055262565613 50.346839904785156 59.20200788974762 C 50.594261169433594 59.55538761615753 50.84282684326172 59.9099497795105 51.09379577636719 60.25944435596466 C 51.09379577636719 60.25944435596466 52.83020782470703 57.82886075973511 52.83020782470703 57.82886075973511 C 52.88731384277344 57.74845504760742 52.952659606933594 57.67767775058746 53.02544403076172 57.61416399478912 C 53.16002655029297 57.38156175613403 53.38684844970703 57.05149292945862 53.737266540527344 56.69929563999176 C 53.737266540527344 56.69929563999176 53.931358337402344 56.504531383514404 53.931358337402344 56.504531383514404 C 53.96763610839844 56.46770691871643 54.006431579589844 56.43358516693115 54.046485900878906 56.40216612815857 C 55.15118408203125 55.53814256191254 56.61968994140625 55.406554222106934 58.17791748046875 56.03290796279907 C 58.17791748046875 56.03290796279907 62.896087646484375 57.774975419044495 62.896087646484375 57.774975419044495 C 63.635719299316406 57.983591079711914 64.35967254638672 58.3479505777359 64.96598052978516 58.82920241355896 C 66.83583068847656 60.199984669685364 67.20204162597656 62.005565881729126 67.00680541992188 62.99627912044525 C 67.00680541992188 62.99627912044525 67.00680541992188 66.4467990398407 67.00680541992188 66.4467990398407 C 67.00680541992188 67.19004511833191 66.87714385986328 67.78244602680206 66.58474731445312 68.36977934837341 C 65.87532806396484 70.16319835186005 64.09416961669922 71.00779616832733 62.66205596923828 71.00779616832733 Z M 37.95769500732422 67.41842436790466 C 38.386962890625 68.40390110015869 39.23577117919922 68.51251637935638 39.58744812011719 68.51251637935638 C 39.58744812011719 68.51251637935638 62.66205596923828 68.51251637935638 62.66205596923828 68.51251637935638 C 62.71046447753906 68.51251637935638 63.8624267578125 68.4991717338562 64.32087707519531 67.34747815132141 C 64.4651870727539 67.05001080036163 64.5234375 66.85288166999817 64.5234375 66.4467990398407 C 64.5234375 66.4467990398407 64.5234375 62.84290015697479 64.5234375 62.84290015697479 C 64.5234375 62.73073756694794 64.53797149658203 62.618743896484375 64.56829833984375 62.511311054229736 C 64.56829833984375 62.34053337574005 64.50890350341797 61.57532775402069 63.486602783203125 60.83360195159912 C 63.47080993652344 60.82143974304199 63.453758239746094 60.808939695358276 63.438079833984375 60.79694640636444 C 63.086402893066406 60.51299262046814 62.645118713378906 60.29508638381958 62.12738800048828 60.146268248558044 C 62.12738800048828 60.146268248558044 57.290199279785156 58.36247766017914 57.290199279785156 58.36247766017914 C 56.277626037597656 57.95791530609131 55.814483642578125 58.1955851316452 55.62645721435547 58.33072078227997 C 55.62645721435547 58.33072078227997 55.493133544921875 58.46366047859192 55.493133544921875 58.46366047859192 C 55.29927062988281 58.658424735069275 55.182769775390625 58.84136462211609 55.14397430419922 58.919405460357666 C 55.100257873535156 59.00707471370697 55.04692840576172 59.088831782341 54.985015869140625 59.16298747062683 C 54.89655303955078 59.29575824737549 54.802024841308594 59.401670813560486 54.70257568359375 59.48731303215027 C 54.70257568359375 59.48731303215027 52.134178161621094 63.0827659368515 52.134178161621094 63.0827659368515 C 51.907470703125 63.39949011802673 51.54606628417969 63.59222733974457 51.158111572265625 63.60320711135864 C 50.76878356933594 63.601855754852295 50.39788055419922 63.439692974090576 50.15538024902344 63.13529992103577 C 50.15538024902344 63.13529992103577 49.767311096191406 62.647629141807556 49.767311096191406 62.647629141807556 C 49.25782012939453 61.98242390155792 48.78620910644531 61.30978620052338 48.31562805175781 60.637317419052124 C 47.87560272216797 60.00876772403717 47.435462951660156 59.37988018989563 46.97346496582031 58.774303555488586 C 46.87401580810547 58.65977609157562 46.80729675292969 58.55268108844757 46.76243591308594 58.47092401981354 C 46.512611389160156 58.22227442264557 46.415679931640625 58.14203763008118 46.3245849609375 58.12362539768219 C 46.3245849609375 58.12362539768219 46.11115264892578 58.07126033306122 46.11115264892578 58.07126033306122 C 46.11115264892578 58.07126033306122 45.03208923339844 58.21501088142395 45.03208923339844 58.21501088142395 C 45.03208923339844 58.21501088142395 40.31986999511719 60.014848828315735 40.31986999511719 60.014848828315735 C 39.760826110839844 60.180558919906616 39.22123718261719 60.466877579689026 38.81382751464844 60.79576396942139 C 37.779396057128906 61.59036159515381 37.720001220703125 62.454047322273254 37.72480773925781 62.701345562934875 C 37.72480773925781 62.701345562934875 37.72606658935547 66.41909623146057 37.72606658935547 66.41909623146057 C 37.80365753173828 66.79308414459229 37.87998962402344 67.10862588882446 37.95769500732422 67.41842436790466 Z M 64.65321350097656 62.28715479373932 C 64.65321350097656 62.28715479373932 64.65321350097656 62.28715479373932 64.65321350097656 62.28833723068237 C 64.65321350097656 62.28715479373932 64.65321350097656 62.28715479373932 64.65321350097656 62.28715479373932 Z M 64.65435791015625 62.28478991985321 C 64.65435791015625 62.285972356796265 64.65435791015625 62.285972356796265 64.65435791015625 62.285972356796265 C 64.65435791015625 62.285972356796265 64.65435791015625 62.285972356796265 64.65435791015625 62.28478991985321 Z M 48.80314636230469 57.08916199207306 C 48.80314636230469 57.08916199207306 48.80451965332031 57.09034442901611 48.80451965332031 57.09034442901611 C 48.80451965332031 57.09034442901611 48.80314636230469 57.08916199207306 48.80314636230469 57.08916199207306 Z M 66.77151489257812 37.04618012905121 C 66.12400817871094 37.04618012905121 65.5796127319336 36.542293071746826 65.53337860107422 35.88333785533905 C 64.74053192138672 24.26910436153412 56.647499084472656 14.630385160446167 45.39704132080078 11.89912474155426 C 45.39704132080078 11.89912474155426 44.52763366699219 11.703009128570557 44.52763366699219 11.703009128570557 C 43.855751037597656 11.561792373657227 43.426597595214844 10.900134444236755 43.56713104248047 10.225807547569275 C 43.70789337158203 9.551311731338501 44.36878967285156 9.117019534111023 45.036895751953125 9.261445760726929 C 45.036895751953125 9.261445760726929 45.929420471191406 9.461277604103088 45.929420471191406 9.461277604103088 C 58.28949737548828 12.462302565574646 67.14264678955078 23.006768465042114 68.0119400024414 35.713066935539246 C 68.05805969238281 36.40023171901703 67.54158782958984 36.99601101875305 66.8576889038086 37.043139576911926 C 66.82850646972656 37.04482877254486 66.80069732666016 37.04618012905121 66.77151489257812 37.04618012905121 Z M 46.75877380371094 17.227692365646362 C 46.32103729248047 17.227692365646362 45.896690368652344 16.994414448738098 45.66986846923828 16.581912875175476 C 45.66986846923828 16.581912875175476 42.503746032714844 10.803681373596191 42.503746032714844 10.803681373596191 C 42.34490203857422 10.51381540298462 42.30736541748047 10.172091126441956 42.398231506347656 9.85469126701355 C 42.4903564453125 9.536784648895264 42.70378875732422 9.268540382385254 42.992408752441406 9.108911395072937 C 42.992408752441406 9.108911395072937 48.74260711669922 5.929000616073608 48.74260711669922 5.929000616073608 C 49.34513854980469 5.596735835075378 50.09953308105469 5.816331267356873 50.429351806640625 6.420049786567688 C 50.76031494140625 7.02359938621521 50.54081726074219 7.782892823219299 49.940574645996094 8.114819765090942 C 49.940574645996094 8.114819765090942 45.27813720703125 10.69371473789215 45.27813720703125 10.69371473789215 C 45.27813720703125 10.69371473789215 47.84527587890625 15.378023147583008 47.84527587890625 15.378023147583008 C 48.176353454589844 15.981741666793823 47.95685577392578 16.740190505981445 47.35661315917969 17.072962045669556 C 47.166297912597656 17.17819893360138 46.961219787597656 17.227692365646362 46.75877380371094 17.227692365646362 Z M 25.21813201904297 67.03430128097534 C 25.13573455810547 67.03430128097534 25.051963806152344 67.02585530281067 24.96704864501953 67.00879442691803 C 24.96704864501953 67.00879442691803 24.01512908935547 66.7954490184784 24.01512908935547 66.7954490184784 C 11.709869384765625 63.80776870250702 2.8566055297851562 53.2621203660965 1.9870834350585938 40.55666649341583 C 1.9410781860351562 39.86916387081146 2.457550048828125 39.27338457107544 3.1415634155273438 39.22659385204315 C 3.8254623413085938 39.18503963947296 4.417121887207031 39.69804835319519 4.46575927734375 40.38588881492615 C 5.2588348388671875 51.9996155500412 13.351638793945312 61.63884150981903 24.602210998535156 64.37077760696411 C 24.602210998535156 64.37077760696411 25.466812133789062 64.56435942649841 25.466812133789062 64.56435942649841 C 26.138465881347656 64.70354914665222 26.57128143310547 65.36250436306 26.433151245117188 66.03767585754395 C 26.31310272216797 66.6273740530014 25.795257568359375 67.03430128097534 25.21813201904297 67.03430128097534 Z M 21.47248077392578 70.04529249668121 C 21.034629821777344 70.04529249668121 20.61028289794922 69.81235241889954 20.383460998535156 69.39934408664703 C 20.052383422851562 68.7961323261261 20.271881103515625 68.0370078086853 20.872238159179688 67.70440518856049 C 20.872238159179688 67.70440518856049 24.719741821289062 65.57584977149963 24.719741821289062 65.57584977149963 C 24.719741821289062 65.57584977149963 22.602584838867188 61.70961880683899 22.602584838867188 61.70961880683899 C 22.271507263183594 61.10539352893829 22.491004943847656 60.347620368003845 23.09124755859375 60.014848828315735 C 23.69263458251953 59.684611082077026 24.44817352294922 59.902517318725586 24.777877807617188 60.50572907924652 C 24.777877807617188 60.50572907924652 27.494247436523438 65.46503853797913 27.494247436523438 65.46503853797913 C 27.825210571289062 66.06926381587982 27.605712890625 66.82720589637756 27.005470275878906 67.15997743606567 C 27.005470275878906 67.15997743606567 22.070205688476562 69.89039325714111 22.070205688476562 69.89039325714111 C 21.87989044189453 69.99546122550964 21.6749267578125 70.04529249668121 21.47248077392578 70.04529249668121 Z M 38.35663604736328 16.670257806777954 C 38.35663604736328 16.670257806777954 3.6666183471679688 16.670257806777954 3.6666183471679688 16.670257806777954 C 3.12451171875 16.670257806777954 2.6455764770507812 16.316878080368042 2.4819259643554688 15.797450423240662 C 2.3194198608398438 15.2775160074234 2.5109939575195312 14.7121422290802 2.9547958374023438 14.399978876113892 C 2.9547958374023438 14.399978876113892 20.2998046875 2.2137837409973145 20.2998046875 2.2137837409973145 C 20.726669311523438 1.912769079208374 21.296585083007812 1.912769079208374 21.72333526611328 2.2137837409973145 C 21.72333526611328 2.2137837409973145 39.068458557128906 14.399978876113892 39.068458557128906 14.399978876113892 C 39.51226043701172 14.7121422290802 39.703834533691406 15.2775160074234 39.54132843017578 15.797450423240662 C 39.37767791748047 16.316878080368042 38.89885711669922 16.670257806777954 38.35663604736328 16.670257806777954 Z M 7.6099090576171875 14.174809098243713 C 7.6099090576171875 14.174809098243713 34.413230895996094 14.174809098243713 34.413230895996094 14.174809098243713 C 34.413230895996094 14.174809098243713 21.011627197265625 4.758388042449951 21.011627197265625 4.758388042449951 C 21.011627197265625 4.758388042449951 7.6099090576171875 14.174809098243713 7.6099090576171875 14.174809098243713 Z M 7.904594421386719 31.08348846435547 C 7.218292236328125 31.08348846435547 6.6627960205078125 30.524702548980713 6.6627960205078125 29.835848569869995 C 6.6627960205078125 29.835848569869995 6.6627960205078125 16.06214737892151 6.6627960205078125 16.06214737892151 C 6.6627960205078125 15.373124480247498 7.218292236328125 14.814507484436035 7.904594421386719 14.814507484436035 C 8.590896606445312 14.814507484436035 9.146278381347656 15.373124480247498 9.146278381347656 16.06214737892151 C 9.146278381347656 16.06214737892151 9.146278381347656 29.835848569869995 9.146278381347656 29.835848569869995 C 9.146278381347656 30.524702548980713 8.590896606445312 31.08348846435547 7.904594421386719 31.08348846435547 Z M 14.508407592773438 31.08348846435547 C 13.821990966796875 31.08348846435547 13.2667236328125 30.524702548980713 13.2667236328125 29.835848569869995 C 13.2667236328125 29.835848569869995 13.2667236328125 16.06214737892151 13.2667236328125 16.06214737892151 C 13.2667236328125 15.373124480247498 13.821990966796875 14.814507484436035 14.508407592773438 14.814507484436035 C 15.194709777832031 14.814507484436035 15.750205993652344 15.373124480247498 15.750205993652344 16.06214737892151 C 15.750205993652344 16.06214737892151 15.750205993652344 29.835848569869995 15.750205993652344 29.835848569869995 C 15.750205993652344 30.524702548980713 15.194709777832031 31.08348846435547 14.508407592773438 31.08348846435547 Z M 27.414138793945312 31.08348846435547 C 26.72783660888672 31.08348846435547 26.172340393066406 30.524702548980713 26.172340393066406 29.835848569869995 C 26.172340393066406 29.835848569869995 26.172340393066406 16.06214737892151 26.172340393066406 16.06214737892151 C 26.172340393066406 15.373124480247498 26.72783660888672 14.814507484436035 27.414138793945312 14.814507484436035 C 28.100555419921875 14.814507484436035 28.65582275390625 15.373124480247498 28.65582275390625 16.06214737892151 C 28.65582275390625 16.06214737892151 28.65582275390625 29.835848569869995 28.65582275390625 29.835848569869995 C 28.65582275390625 30.524702548980713 28.100555419921875 31.08348846435547 27.414138793945312 31.08348846435547 Z M 21.11107635498047 31.08348846435547 C 20.424659729003906 31.08348846435547 19.86939239501953 30.524702548980713 19.86939239501953 29.835848569869995 C 19.86939239501953 29.835848569869995 19.86939239501953 16.06214737892151 19.86939239501953 16.06214737892151 C 19.86939239501953 15.373124480247498 20.424659729003906 14.814507484436035 21.11107635498047 14.814507484436035 C 21.797378540039062 14.814507484436035 22.352760314941406 15.373124480247498 22.352760314941406 16.06214737892151 C 22.352760314941406 16.06214737892151 22.352760314941406 29.835848569869995 22.352760314941406 29.835848569869995 C 22.352760314941406 30.524702548980713 21.797378540039062 31.08348846435547 21.11107635498047 31.08348846435547 Z M 33.717201232910156 31.08348846435547 C 33.03089904785156 31.08348846435547 32.47551727294922 30.524702548980713 32.47551727294922 29.835848569869995 C 32.47551727294922 29.835848569869995 32.47551727294922 16.06214737892151 32.47551727294922 16.06214737892151 C 32.47551727294922 15.373124480247498 33.03089904785156 14.814507484436035 33.717201232910156 14.814507484436035 C 34.40350341796875 14.814507484436035 34.958885192871094 15.373124480247498 34.958885192871094 16.06214737892151 C 34.958885192871094 16.06214737892151 34.958885192871094 29.835848569869995 34.958885192871094 29.835848569869995 C 34.958885192871094 30.524702548980713 34.40350341796875 31.08348846435547 33.717201232910156 31.08348846435547 Z M 35.71923065185547 31.586193084716797 C 35.71923065185547 31.586193084716797 6.003273010253906 31.586193084716797 6.003273010253906 31.586193084716797 C 5.316856384277344 31.586193084716797 4.761589050292969 31.027238249778748 4.761589050292969 30.33838427066803 C 4.761589050292969 29.64936137199402 5.316856384277344 29.090575456619263 6.003273010253906 29.090575456619263 C 6.003273010253906 29.090575456619263 35.71923065185547 29.090575456619263 35.71923065185547 29.090575456619263 C 36.40553283691406 29.090575456619263 36.960914611816406 29.64936137199402 36.960914611816406 30.33838427066803 C 36.960914611816406 31.027238249778748 36.40553283691406 31.586193084716797 35.71923065185547 31.586193084716797 Z M 38.36888122558594 35.27742338180542 C 38.36888122558594 35.27742338180542 3.8703231811523438 35.27742338180542 3.8703231811523438 35.27742338180542 C 3.18402099609375 35.27742338180542 2.6286392211914062 34.71846854686737 2.6286392211914062 34.029783487319946 C 2.6286392211914062 33.340760588645935 3.18402099609375 32.78197467327118 3.8703231811523438 32.78197467327118 C 3.8703231811523438 32.78197467327118 38.36888122558594 32.78197467327118 38.36888122558594 32.78197467327118 C 39.05518341064453 32.78197467327118 39.610565185546875 33.340760588645935 39.610565185546875 34.029783487319946 C 39.610565185546875 34.71846854686737 39.05518341064453 35.27742338180542 38.36888122558594 35.27742338180542 Z"/></g></svg>