<svg version="1.1" xmlns="http://www.w3.org/2000/svg" xmlns:xlink="http://www.w3.org/1999/xlink" width="98" height="72"><defs/><g><path fill="rgb(32,170,151)" stroke="none" paint-order="stroke fill markers" fill-rule="evenodd" d=" M 77.9836196899414 54.59118330478668 C 77.9836196899414 54.59118330478668 23.463851928710938 54.59118330478668 23.463851928710938 54.59118330478668 C 22.757064819335938 54.59118330478668 22.184974670410156 54.0305392742157 22.184974670410156 53.337462306022644 C 22.184974670410156 53.337462306022644 22.184974670410156 24.622994661331177 22.184974670410156 24.622994661331177 C 22.184974670410156 23.93025553226471 22.757064819335938 23.369104743003845 23.463851928710938 23.369104743003845 C 23.463851928710938 23.369104743003845 77.9836196899414 23.369104743003845 77.9836196899414 23.369104743003845 C 78.6904067993164 23.369104743003845 79.26249694824219 23.93025553226471 79.26249694824219 24.622994661331177 C 79.26249694824219 24.622994661331177 79.26249694824219 53.337462306022644 79.26249694824219 53.337462306022644 C 79.26249694824219 54.0305392742157 78.6904067993164 54.59118330478668 77.9836196899414 54.59118330478668 Z M 24.742843627929688 52.0839102268219 C 24.742843627929688 52.0839102268219 76.70474243164062 52.0839102268219 76.70474243164062 52.0839102268219 C 76.70474243164062 52.0839102268219 76.70474243164062 25.876377820968628 76.70474243164062 25.876377820968628 C 76.70474243164062 25.876377820968628 24.742843627929688 25.876377820968628 24.742843627929688 25.876377820968628 C 24.742843627929688 25.876377820968628 24.742843627929688 52.0839102268219 24.742843627929688 52.0839102268219 Z M 23.80248260498047 32.681809186935425 C 23.0955810546875 32.681809186935425 22.523605346679688 32.12065839767456 22.523605346679688 31.428088188171387 C 22.523605346679688 30.7358558177948 23.0955810546875 30.17436718940735 23.80248260498047 30.17436718940735 C 26.832191467285156 30.17436718940735 29.29633331298828 27.75814175605774 29.29633331298828 24.788535833358765 C 29.29633331298828 24.09647238254547 29.868423461914062 23.53498375415802 30.575210571289062 23.53498375415802 C 31.28211212158203 23.53498375415802 31.854087829589844 24.09647238254547 31.854087829589844 24.788535833358765 C 31.854087829589844 29.141086220741272 28.242218017578125 32.681809186935425 23.80248260498047 32.681809186935425 Z M 77.30670166015625 32.681809186935425 C 72.86685180664062 32.681809186935425 69.2549819946289 29.141086220741272 69.2549819946289 24.788535833358765 C 69.2549819946289 24.09647238254547 69.82707214355469 23.53498375415802 70.53397369384766 23.53498375415802 C 71.24076080322266 23.53498375415802 71.81285095214844 24.09647238254547 71.81285095214844 24.788535833358765 C 71.81285095214844 27.75814175605774 74.2768783569336 30.17436718940735 77.30670166015625 30.17436718940735 C 78.01360321044922 30.17436718940735 78.58557891845703 30.7358558177948 78.58557891845703 31.428088188171387 C 78.58557891845703 32.12065839767456 78.01360321044922 32.681809186935425 77.30670166015625 32.681809186935425 Z M 70.53397369384766 54.59118330478668 C 69.82707214355469 54.59118330478668 69.2549819946289 54.0305392742157 69.2549819946289 53.337462306022644 C 69.2549819946289 48.985249757766724 72.86685180664062 45.44435787200928 77.30670166015625 45.44435787200928 C 78.01360321044922 45.44435787200928 78.58557891845703 46.00584650039673 78.58557891845703 46.6984167098999 C 78.58557891845703 47.3903112411499 78.01360321044922 47.95179986953735 77.30670166015625 47.95179986953735 C 74.2768783569336 47.95179986953735 71.81285095214844 50.36734962463379 71.81285095214844 53.337462306022644 C 71.81285095214844 54.0305392742157 71.24076080322266 54.59118330478668 70.53397369384766 54.59118330478668 Z M 30.575210571289062 54.59118330478668 C 29.868423461914062 54.59118330478668 29.29633331298828 54.0305392742157 29.29633331298828 53.337462306022644 C 29.29633331298828 50.36734962463379 26.832191467285156 47.95179986953735 23.80248260498047 47.95179986953735 C 23.0955810546875 47.95179986953735 22.523605346679688 47.3903112411499 22.523605346679688 46.6984167098999 C 22.523605346679688 46.00584650039673 23.0955810546875 45.44435787200928 23.80248260498047 45.44435787200928 C 28.242218017578125 45.44435787200928 31.854087829589844 48.985249757766724 31.854087829589844 53.337462306022644 C 31.854087829589844 54.0305392742157 31.28211212158203 54.59118330478668 30.575210571289062 54.59118330478668 Z M 51.44316864013672 50.69049274921417 C 44.880096435546875 50.69049274921417 39.539825439453125 45.456013321876526 39.539825439453125 39.021698236465454 C 39.539825439453125 32.587552070617676 44.880096435546875 27.352396965026855 51.44316864013672 27.352396965026855 C 58.00738525390625 27.352396965026855 63.34777069091797 32.587552070617676 63.34777069091797 39.021698236465454 C 63.34777069091797 45.456013321876526 58.00738525390625 50.69049274921417 51.44316864013672 50.69049274921417 Z M 51.44316864013672 29.859670042991638 C 46.290122985839844 29.859670042991638 42.097694396972656 33.969820857048035 42.097694396972656 39.021698236465454 C 42.097694396972656 44.07340669631958 46.290122985839844 48.18338859081268 51.44316864013672 48.18338859081268 C 56.59735870361328 48.18338859081268 60.790016174316406 44.07340669631958 60.790016174316406 39.021698236465454 C 60.790016174316406 33.969820857048035 56.59735870361328 29.859670042991638 51.44316864013672 29.859670042991638 Z M 50.80790710449219 43.238099455833435 C 49.97065734863281 43.160396456718445 49.28229522705078 42.942490220069885 48.712493896484375 42.61985385417938 C 48.228065490722656 42.3456974029541 48.090049743652344 41.72120177745819 48.412315368652344 41.27305817604065 C 48.412315368652344 41.27305817604065 48.424903869628906 41.25549054145813 48.424903869628906 41.25549054145813 C 48.7083740234375 40.8612322807312 49.25414276123047 40.73961019515991 49.67448425292969 40.99113142490387 C 50.19816589355469 41.304139375686646 50.84681701660156 41.51748478412628 51.58770751953125 41.51748478412628 C 52.306968688964844 41.51748478412628 52.745506286621094 41.24315941333771 52.745506286621094 40.8612322807312 C 52.745506286621094 39.773728132247925 48.140174865722656 40.645015239715576 48.140174865722656 37.57574677467346 C 48.140174865722656 36.36983001232147 49.077674865722656 35.28266370296478 50.80790710449219 35.07928454875946 C 50.80790710449219 35.07928454875946 50.80790710449219 33.95698297023773 50.80790710449219 33.95698297023773 C 50.80790710449219 33.95698297023773 52.16014099121094 33.95698297023773 52.16014099121094 33.95698297023773 C 52.16014099121094 33.95698297023773 52.16014099121094 35.091784596443176 52.16014099121094 35.091784596443176 C 52.74882507324219 35.1711767911911 53.29322052001953 35.33300173282623 53.78485870361328 35.57523238658905 C 54.297096252441406 35.82726037502289 54.413368225097656 36.50023591518402 54.06512451171875 36.946521401405334 C 54.06512451171875 36.946521401405334 54.06512451171875 36.946521401405334 54.06512451171875 36.946521401405334 C 53.7803955078125 37.311556577682495 53.27696990966797 37.39838123321533 52.857086181640625 37.19415748119354 C 52.315895080566406 36.93114972114563 51.718055725097656 36.79973030090332 51.16107177734375 36.79973030090332 C 50.55201721191406 36.79973030090332 50.28399658203125 37.03875148296356 50.28399658203125 37.37253654003143 C 50.28399658203125 38.3879120349884 54.877540588378906 37.647706508636475 54.877540588378906 40.610217809677124 C 54.877540588378906 42.04282462596893 53.91509246826172 43.04620683193207 52.16014099121094 43.238099455833435 C 52.16014099121094 43.238099455833435 52.16014099121094 44.32442116737366 52.16014099121094 44.32442116737366 C 52.16014099121094 44.32442116737366 50.80790710449219 44.32442116737366 50.80790710449219 44.32442116737366 C 50.80790710449219 44.32442116737366 50.80790710449219 43.238099455833435 50.80790710449219 43.238099455833435 Z M 73.41273498535156 21.89274775981903 C 73.41273498535156 21.89274775981903 27.358047485351562 21.89274775981903 27.358047485351562 21.89274775981903 C 26.651145935058594 21.89274775981903 26.07917022705078 21.33125913143158 26.07917022705078 20.638688921928406 C 26.07917022705078 19.94645655155182 26.651145935058594 19.385305762290955 27.358047485351562 19.385305762290955 C 27.358047485351562 19.385305762290955 73.41273498535156 19.385305762290955 73.41273498535156 19.385305762290955 C 74.11952209472656 19.385305762290955 74.69161224365234 19.94645655155182 74.69161224365234 20.638688921928406 C 74.69161224365234 21.33125913143158 74.11952209472656 21.89274775981903 73.41273498535156 21.89274775981903 Z M 67.69755554199219 18.241044640541077 C 67.69755554199219 18.241044640541077 33.284027099609375 18.241044640541077 33.284027099609375 18.241044640541077 C 32.577239990234375 18.241044640541077 32.005149841308594 17.679556012153625 32.005149841308594 16.987492561340332 C 32.005149841308594 16.29509127140045 32.577239990234375 15.733771562576294 33.284027099609375 15.733771562576294 C 33.284027099609375 15.733771562576294 67.69755554199219 15.733771562576294 67.69755554199219 15.733771562576294 C 68.40457153320312 15.733771562576294 68.97643280029297 16.29509127140045 68.97643280029297 16.987492561340332 C 68.97643280029297 17.679556012153625 68.40457153320312 18.241044640541077 67.69755554199219 18.241044640541077 Z M 74.61161804199219 13.30555284023285 C 74.16060638427734 13.30555284023285 73.722412109375 13.070754647254944 73.49009704589844 12.656394958496094 C 73.49009704589844 12.656394958496094 70.30669403076172 6.98813009262085 70.30669403076172 6.98813009262085 C 70.14292907714844 6.696574926376343 70.10436248779297 6.353161454200745 70.19923400878906 6.034072399139404 C 70.2928466796875 5.714645504951477 70.5125732421875 5.445218801498413 70.80989074707031 5.285251975059509 C 70.80989074707031 5.285251975059509 76.59236145019531 2.165307641029358 76.59236145019531 2.165307641029358 C 77.21183013916016 1.8313536643981934 77.98991394042969 2.0521315336227417 78.32957458496094 2.6592284440994263 C 78.67049407958984 3.265987515449524 78.4443588256836 4.027983665466309 77.82637786865234 4.36176872253418 C 77.82637786865234 4.36176872253418 73.16405487060547 6.877149939537048 73.16405487060547 6.877149939537048 C 73.16405487060547 6.877149939537048 75.73062133789062 11.446761965751648 75.73062133789062 11.446761965751648 C 76.07154083251953 12.053352117538452 75.84540557861328 12.816192865371704 75.22731018066406 13.149640083312988 C 75.03115844726562 13.255890488624573 74.82012939453125 13.30555284023285 74.61161804199219 13.30555284023285 Z M 94.73399353027344 32.74616754055023 C 94.06703186035156 32.74616754055023 93.50501251220703 32.23991560935974 93.45877838134766 31.577919840812683 C 92.6631851196289 20.19814670085907 84.53524780273438 10.753853917121887 73.23397827148438 8.07681667804718 C 73.23397827148438 8.07681667804718 72.9566879272461 8.01279616355896 72.9566879272461 8.01279616355896 C 72.9566879272461 8.01279616355896 73.10031127929688 6.759075164794922 73.10031127929688 6.759075164794922 C 73.10031127929688 6.759075164794922 72.82061767578125 7.982221722602844 72.82061767578125 7.982221722602844 C 72.82061767578125 7.982221722602844 72.36605834960938 7.886613249778748 72.36605834960938 7.886613249778748 C 71.67414855957031 7.746410012245178 71.22943115234375 7.083400726318359 71.37202453613281 6.4048508405685425 C 71.51553344726562 5.726300954818726 72.18753051757812 5.289981722831726 72.88310241699219 5.430522799491882 C 72.88310241699219 5.430522799491882 73.83353424072266 5.639307379722595 73.83353424072266 5.639307379722595 C 86.2263412475586 8.575129389762878 95.13854217529297 18.929898619651794 96.01161193847656 31.406466484069824 C 96.0591049194336 32.09700965881348 95.5269546508789 32.695998430252075 94.82257080078125 32.74278914928436 C 94.7927017211914 32.74464726448059 94.76260375976562 32.74616754055023 94.73399353027344 32.74616754055023 Z M 74.61161804199219 13.30555284023285 C 74.16060638427734 13.30555284023285 73.722412109375 13.070754647254944 73.49009704589844 12.656394958496094 C 73.49009704589844 12.656394958496094 70.30669403076172 6.98813009262085 70.30669403076172 6.98813009262085 C 70.14292907714844 6.696574926376343 70.10436248779297 6.353161454200745 70.19923400878906 6.034072399139404 C 70.2928466796875 5.714645504951477 70.5125732421875 5.445218801498413 70.80989074707031 5.285251975059509 C 70.80989074707031 5.285251975059509 76.59236145019531 2.165307641029358 76.59236145019531 2.165307641029358 C 77.21183013916016 1.8313536643981934 77.98991394042969 2.0521315336227417 78.32957458496094 2.6592284440994263 C 78.67049407958984 3.265987515449524 78.4443588256836 4.027983665466309 77.82637786865234 4.36176872253418 C 77.82637786865234 4.36176872253418 73.16405487060547 6.877149939537048 73.16405487060547 6.877149939537048 C 73.16405487060547 6.877149939537048 75.73062133789062 11.446761965751648 75.73062133789062 11.446761965751648 C 76.07154083251953 12.053352117538452 75.84540557861328 12.816192865371704 75.22731018066406 13.149640083312988 C 75.03115844726562 13.255890488624573 74.82012939453125 13.30555284023285 74.61161804199219 13.30555284023285 Z M 20.817405700683594 70.99563777446747 C 20.366737365722656 70.99563777446747 19.928314208984375 70.76185309886932 19.695884704589844 70.346648812294 C 19.354965209960938 69.73955190181732 19.581100463867188 68.97806251049042 20.199310302734375 68.64377069473267 C 20.199310302734375 68.64377069473267 24.861404418945312 66.12771379947662 24.861404418945312 66.12771379947662 C 24.861404418945312 66.12771379947662 22.294952392578125 61.5587774515152 22.294952392578125 61.5587774515152 C 21.95403289794922 60.952694058418274 22.1800537109375 60.190022230148315 22.798263549804688 59.85589933395386 C 23.41773223876953 59.52278995513916 24.194442749023438 59.741878628730774 24.535476684570312 60.34897553920746 C 24.535476684570312 60.34897553920746 27.718994140625 66.01656472682953 27.718994140625 66.01656472682953 C 27.882530212402344 66.30795097351074 27.92132568359375 66.65051984786987 27.827598571777344 66.9701156616211 C 27.73261260986328 67.28971147537231 27.51288604736328 67.55896925926208 27.215682983398438 67.71944284439087 C 27.215682983398438 67.71944284439087 21.43309783935547 70.84023177623749 21.43309783935547 70.84023177623749 C 21.237060546875 70.9456375837326 21.026145935058594 70.99563777446747 20.817405700683594 70.99563777446747 Z M 25.402252197265625 67.60069239139557 C 25.3148193359375 67.60069239139557 25.22612762451172 67.5920774936676 25.137435913085938 67.5740031003952 C 25.137435913085938 67.5740031003952 24.7178955078125 67.48582708835602 24.7178955078125 67.48582708835602 C 24.710342407226562 67.48447573184967 24.499313354492188 67.43802285194397 24.49176025390625 67.43532013893127 C 24.49176025390625 67.43532013893127 24.19329833984375 67.36555635929108 24.19329833984375 67.36555635929108 C 11.799118041992188 64.42990326881409 2.8869171142578125 54.07564079761505 2.0127029418945312 41.59839725494385 C 1.9653244018554688 40.9076851606369 2.4973602294921875 40.309203147888184 3.2017440795898438 40.26207458972931 C 3.938629150390625 40.2260947227478 4.51678466796875 40.737245321273804 4.5655364990234375 41.42711281776428 C 5.362274169921875 52.80621027946472 13.488838195800781 62.25033414363861 24.789077758789062 64.92804706096649 C 24.789077758789062 64.92804706096649 25.083763122558594 64.99662840366364 25.083763122558594 64.99662840366364 C 25.083763122558594 64.99662840366364 24.99266815185547 66.26132917404175 24.99266815185547 66.26132917404175 C 24.99266815185547 66.26132917404175 25.26732635498047 65.03700017929077 25.26732635498047 65.03700017929077 C 25.26732635498047 65.03700017929077 25.66443634033203 65.12027752399445 25.66443634033203 65.12027752399445 C 26.356460571289062 65.2635213136673 26.798545837402344 65.92838871479034 26.65229034423828 66.60524940490723 C 26.52503204345703 67.19545435905457 25.99425506591797 67.60069239139557 25.402252197265625 67.60069239139557 Z M 20.817405700683594 70.99563777446747 C 20.366737365722656 70.99563777446747 19.928314208984375 70.76185309886932 19.695884704589844 70.346648812294 C 19.354965209960938 69.73955190181732 19.581100463867188 68.97806251049042 20.199310302734375 68.64377069473267 C 20.199310302734375 68.64377069473267 24.861404418945312 66.12771379947662 24.861404418945312 66.12771379947662 C 24.861404418945312 66.12771379947662 22.294952392578125 61.5587774515152 22.294952392578125 61.5587774515152 C 21.95403289794922 60.952694058418274 22.1800537109375 60.190022230148315 22.798263549804688 59.85589933395386 C 23.41773223876953 59.52278995513916 24.194442749023438 59.741878628730774 24.535476684570312 60.34897553920746 C 24.535476684570312 60.34897553920746 27.718994140625 66.01656472682953 27.718994140625 66.01656472682953 C 27.882530212402344 66.30795097351074 27.92132568359375 66.65051984786987 27.827598571777344 66.9701156616211 C 27.73261260986328 67.28971147537231 27.51288604736328 67.55896925926208 27.215682983398438 67.71944284439087 C 27.215682983398438 67.71944284439087 21.43309783935547 70.84023177623749 21.43309783935547 70.84023177623749 C 21.237060546875 70.9456375837326 21.026145935058594 70.99563777446747 20.817405700683594 70.99563777446747 Z"/></g></svg>