<svg version="1.1" xmlns="http://www.w3.org/2000/svg" xmlns:xlink="http://www.w3.org/1999/xlink" width="56" height="52"><defs/><g><path fill="rgb(32,170,151)" stroke="none" paint-order="stroke fill markers" fill-rule="evenodd" d=" M 4.754241943359375 50.99524140357971 C 4.5896759033203125 50.99524140357971 4.4235076904296875 50.950984477996826 4.273933410644531 50.85774087905884 C 3.85015869140625 50.592706084251404 3.7218704223632812 50.036285042762756 3.9872589111328125 49.614492893218994 C 3.9872589111328125 49.614492893218994 8.172134399414062 42.966325640678406 8.172134399414062 42.966325640678406 C 8.439239501953125 42.54470241069794 8.998283386230469 42.41683030128479 9.421028137207031 42.68102049827576 C 9.844802856445312 42.94605529308319 9.972976684570312 43.50264525413513 9.70770263671875 43.92477524280548 C 9.70770263671875 43.92477524280548 5.522941589355469 50.572266817092896 5.522941589355469 50.572266817092896 C 5.3504791259765625 50.845409750938416 5.055908203125 50.99524140357971 4.754241943359375 50.99524140357971 Z M 42.816261291503906 50.99524140357971 C 42.51459503173828 50.99524140357971 42.22002410888672 50.845409750938416 42.047447204589844 50.572266817092896 C 42.047447204589844 50.572266817092896 37.86360168457031 43.92477524280548 37.86360168457031 43.92477524280548 C 37.59832763671875 43.501800656318665 37.72650146484375 42.94605529308319 38.15027618408203 42.68102049827576 C 38.573020935058594 42.41598570346832 39.13206481933594 42.54402673244476 39.399169921875 42.966325640678406 C 39.399169921875 42.966325640678406 43.5831298828125 49.614492893218994 43.5831298828125 49.614492893218994 C 43.84840393066406 50.03696072101593 43.720115661621094 50.592706084251404 43.29645538330078 50.85774087905884 C 43.146995544433594 50.950984477996826 42.980712890625 50.99524140357971 42.816261291503906 50.99524140357971 Z M 24.402603149414062 49.39050555229187 C 22.102798461914062 49.39050555229187 19.79235076904297 49.03391635417938 17.539466857910156 48.31364333629608 C 11.8509521484375 46.49522423744202 7.214149475097656 42.57899308204651 4.4827880859375 37.28826344013214 C 1.7521133422851562 31.997533798217773 1.2540664672851562 25.964909434318542 3.080657958984375 20.301036477088928 C 4.907249450683594 14.637670278549194 8.840812683105469 10.021098613739014 14.155220031738281 7.302000403404236 C 21.908248901367188 3.3361068964004517 31.35076904296875 4.237461686134338 38.208641052246094 9.599982142448425 C 38.602203369140625 9.90758466720581 38.67121124267578 10.474309802055359 38.36164855957031 10.866372108459473 C 38.053001403808594 11.256914138793945 37.483314514160156 11.325495481491089 37.090553283691406 11.018568634986877 C 30.786346435546875 6.089495778083801 22.108978271484375 5.260438561439514 14.983200073242188 8.906567335128784 C 10.0986328125 11.4052255153656 6.4843597412109375 15.647640347480774 4.805511474609375 20.852896690368652 C 3.1266632080078125 26.05764627456665 3.5839691162109375 31.601755261421204 6.0943450927734375 36.46427381038666 C 8.603805541992188 41.32679235935211 12.865585327148438 44.92511689662933 18.09313201904297 46.59657597541809 C 23.32262420654297 48.26871073246002 28.8907470703125 47.811445474624634 33.77439880371094 45.3132940530777 C 38.658851623535156 42.81497371196747 42.27312469482422 38.572389960289 43.95197296142578 33.36730253696442 C 45.630821228027344 28.162384033203125 45.17351531982422 22.618275046348572 42.66313934326172 17.755756497383118 C 42.43494415283203 17.312849402427673 42.61003875732422 16.76875948905945 43.05498504638672 16.54122483730316 C 43.500732421875 16.313352346420288 44.04570007324219 16.488184094429016 44.274810791015625 16.93159794807434 C 47.00548553466797 22.222158670425415 47.50341796875 28.25545871257782 45.67682647705078 33.91899383068085 C 43.85023498535156 39.58236002922058 39.91667175292969 44.198593854904175 34.602378845214844 46.91769206523895 C 31.393112182617188 48.55925238132477 27.910675048828125 49.39050555229187 24.402603149414062 49.39050555229187 Z M 24.403404235839844 43.40332055091858 C 18.211692810058594 43.40332055091858 12.277244567871094 39.89030039310455 9.517501831054688 33.93622362613678 C 7.686561584472656 29.98418152332306 7.510551452636719 25.558826804161072 9.022201538085938 21.475534200668335 C 10.533737182617188 17.391565918922424 13.55291748046875 14.138681888580322 17.521728515625 12.315364122390747 C 22.730850219726562 9.923125267028809 28.908485412597656 10.445255637168884 33.64439392089844 13.676517963409424 C 34.056495666503906 13.95776903629303 34.161781311035156 14.519088745117188 33.87968444824219 14.929732203483582 C 33.59667205810547 15.340713500976562 33.032249450683594 15.445443630218506 32.620033264160156 15.163854718208313 C 28.407005310058594 12.290195107460022 22.91223907470703 11.826004147529602 18.28070068359375 13.953208208084106 C 14.75042724609375 15.574498176574707 12.065986633300781 18.46775245666504 10.721420288085938 22.09884738922119 C 9.377769470214844 25.730618000030518 9.534324645996094 29.66610598564148 11.162818908691406 33.18047749996185 C 14.524063110351562 40.434728145599365 23.187355041503906 43.61548352241516 30.476783752441406 40.26749777793884 C 37.763580322265625 36.91934311389923 40.956825256347656 28.29414129257202 37.59466552734375 21.039721727371216 C 37.38512420654297 20.587355136871338 37.583221435546875 20.0513733625412 38.03789520263672 19.84275770187378 C 38.496116638183594 19.63363528251648 39.03124237060547 19.833129286766052 39.23998260498047 20.284144520759583 C 43.020538330078125 28.44110131263733 39.42926788330078 38.14080047607422 31.235755920410156 41.90517294406891 C 29.02269744873047 42.92156195640564 26.69451141357422 43.40332055091858 24.403404235839844 43.40332055091858 Z M 24.362777709960938 37.66258919239044 C 22.583221435546875 37.66258919239044 20.823806762695312 37.211742877960205 19.225296020507812 36.32660436630249 C 16.753143310546875 34.95599102973938 14.9637451171875 32.70868515968323 14.188751220703125 29.998708605766296 C 13.413871765136719 27.289238810539246 13.744720458984375 24.441086053848267 15.121101379394531 21.97908341884613 C 16.49736785888672 19.517249703407288 18.75482940673828 17.736668586730957 21.477378845214844 16.965044021606445 C 24.1080322265625 16.21858847141266 26.891807556152344 16.506765246391296 29.31269073486328 17.775520086288452 C 29.7550048828125 18.00744664669037 29.925636291503906 18.552718997001648 29.692176818847656 18.993430137634277 C 29.459632873535156 19.434648036956787 28.910202026367188 19.60238516330719 28.468917846679688 19.37130320072174 C 26.4627685546875 18.320116758346558 24.155868530273438 18.081433415412903 21.97290802001953 18.69984793663025 C 19.71624755859375 19.33954632282257 17.845481872558594 20.815396547317505 16.704391479492188 22.856282711029053 C 15.56341552734375 24.896999955177307 15.288299560546875 27.258495450019836 15.931343078613281 29.50495672225952 C 16.573471069335938 31.751417994499207 18.056854248046875 33.614431858062744 20.10637664794922 34.75041592121124 C 22.157615661621094 35.8874135017395 24.52906036376953 36.160218596458435 26.784805297851562 35.51984453201294 C 29.041236877441406 34.8806529045105 30.912002563476562 33.404295921325684 32.05309295654297 31.363409757614136 C 33.194068908691406 29.32303035259247 33.46918487548828 26.961703777313232 32.826255798339844 24.71541142463684 C 32.68904113769531 24.236186623573303 32.968505859375 23.73719823360443 33.449729919433594 23.60088014602661 C 33.926490783691406 23.466251254081726 34.43243408203125 23.742603659629822 34.56861877441406 24.221152782440186 C 35.34361267089844 26.93129825592041 35.01264953613281 29.779282093048096 33.636383056640625 32.240946888923645 C 32.26000213623047 34.70278060436249 30.002655029296875 36.48336172103882 27.279991149902344 37.25464844703674 C 26.317657470703125 37.52779138088226 25.33758544921875 37.66258919239044 24.362777709960938 37.66258919239044 Z M 24.391159057617188 32.72355008125305 C 24.045204162597656 32.72355008125305 23.69684600830078 32.691962122917175 23.34917449951172 32.62709701061249 C 20.29383087158203 32.06273674964905 18.269256591796875 29.127421498298645 18.83631134033203 26.084673404693604 C 19.111312866210938 24.61085021495819 19.947189331054688 23.331791281700134 21.188186645507812 22.483983993530273 C 22.429298400878906 21.635163187980652 23.92847442626953 21.318101167678833 25.408309936523438 21.592933297157288 C 25.900177001953125 21.683812022209167 26.22484588623047 22.154590845108032 26.133750915527344 22.643950819969177 C 26.04082489013672 23.13364863395691 25.56841278076172 23.457298517227173 25.07757568359375 23.365575194358826 C 24.071868896484375 23.180777192115784 23.056320190429688 23.394460439682007 22.213348388671875 23.97013831138611 C 21.371292114257812 24.546154022216797 20.804237365722656 25.41406273841858 20.617698669433594 26.41389763355255 C 20.232948303222656 28.479108214378357 21.60669708251953 30.471007704734802 23.679908752441406 30.854117274284363 C 24.684814453125 31.0416179895401 25.70116424560547 30.825907707214355 26.544021606445312 30.25006091594696 C 27.386192321777344 29.674045205116272 27.95313262939453 28.805798649787903 28.139785766601562 27.805794835090637 C 28.231796264648438 27.316097021102905 28.699745178222656 26.98940658569336 29.195960998535156 27.08417046070099 C 29.687713623046875 27.17471134662628 30.01238250732422 27.645490169525146 29.921287536621094 28.135019063949585 C 29.64617156982422 29.609349012374878 28.81029510498047 30.887901186943054 27.569297790527344 31.73638415336609 C 26.61932373046875 32.38587987422943 25.51885986328125 32.72355008125305 24.391159057617188 32.72355008125305 Z M 48.15081024169922 13.782768368721008 C 48.092559814453125 13.782768368721008 48.034080505371094 13.77989673614502 47.97571563720703 13.774491310119629 C 47.97571563720703 13.774491310119629 43.86602783203125 13.357428908348083 43.86602783203125 13.357428908348083 C 43.86602783203125 13.357428908348083 42.864898681640625 13.363172173500061 42.864898681640625 13.363172173500061 C 42.864898681640625 13.363172173500061 42.85688781738281 13.363172173500061 42.85688781738281 13.363172173500061 C 42.48621368408203 13.363172173500061 42.13945770263672 13.199151277542114 41.90508270263672 12.91215693950653 C 41.66807556152344 12.622628808021545 41.577781677246094 12.247965216636658 41.656517028808594 11.883436799049377 C 41.656517028808594 11.883436799049377 41.87590026855469 10.872284293174744 41.87590026855469 10.872284293174744 C 41.87590026855469 10.872284293174744 42.285484313964844 6.829870223999023 42.285484313964844 6.829870223999023 C 42.33148956298828 6.327503442764282 42.59687805175781 5.857738137245178 43.01344299316406 5.550811290740967 C 43.01344299316406 5.550811290740967 47.462677001953125 2.354177474975586 47.462677001953125 2.354177474975586 C 47.753700256347656 2.1418455839157104 48.119911193847656 2.017858624458313 48.48955535888672 2.0090748071670532 C 48.99744415283203 1.9773179292678833 49.49537658691406 2.2154945135116577 49.85712432861328 2.6075568199157715 C 50.21807098388672 2.999112367630005 50.393165588378906 3.5119521617889404 50.337547302246094 4.013305425643921 C 50.337547302246094 4.013305425643921 50.107521057128906 6.261624813079834 50.107521057128906 6.261624813079834 C 50.107521057128906 6.261624813079834 52.37287902832031 6.491186499595642 52.37287902832031 6.491186499595642 C 53.06719207763672 6.564835429191589 53.681053161621094 7.058080554008484 53.90489959716797 7.7180492877960205 C 54.125999450683594 8.375484228134155 53.93305206298828 9.133426308631897 53.42710876464844 9.606401085853577 C 53.42710876464844 9.606401085853577 49.38482666015625 13.300334095954895 49.38482666015625 13.300334095954895 C 49.054893493652344 13.609287977218628 48.610862731933594 13.782768368721008 48.15081024169922 13.782768368721008 Z M 43.88914489746094 11.553874731063843 C 43.912147521972656 11.553874731063843 43.96959686279297 11.556239604949951 43.99351501464844 11.557759881019592 C 43.99351501464844 11.557759881019592 48.15435791015625 11.979720950126648 48.15435791015625 11.979720950126648 C 48.15435791015625 11.979720950126648 52.195037841796875 8.284774422645569 52.195037841796875 8.284774422645569 C 52.195037841796875 8.284774422645569 49.343284606933594 7.996766567230225 49.343284606933594 7.996766567230225 C 48.67094421386719 7.928523063659668 48.17827606201172 7.328014016151428 48.245567321777344 6.658079028129578 C 48.245567321777344 6.658079028129578 48.535675048828125 3.8231019973754883 48.535675048828125 3.8231019973754883 C 48.535675048828125 3.8231019973754883 44.08197784423828 7.007404685020447 44.08197784423828 7.007404685020447 C 44.08197784423828 7.007404685020447 43.667930603027344 11.119244694709778 43.667930603027344 11.119244694709778 C 43.66541290283203 11.140528559684753 43.65831756591797 11.189008474349976 43.65476989746094 11.210123419761658 C 43.65476989746094 11.210123419761658 43.58038330078125 11.555901765823364 43.58038330078125 11.555901765823364 C 43.58038330078125 11.555901765823364 43.883880615234375 11.553874731063843 43.883880615234375 11.553874731063843 C 43.885597229003906 11.553874731063843 43.88731384277344 11.553874731063843 43.88731384277344 11.553874731063843 C 43.88731384277344 11.553874731063843 43.88914489746094 11.553874731063843 43.88914489746094 11.553874731063843 Z M 42.85425567626953 11.559786915779114 C 42.85425567626953 11.559786915779114 42.85334014892578 11.559786915779114 42.85334014892578 11.559786915779114 C 42.85334014892578 11.559786915779114 42.85425567626953 11.559786915779114 42.85425567626953 11.559786915779114 Z M 24.783920288085938 27.70917284488678 C 24.520362854003906 27.70917284488678 24.260238647460938 27.596165657043457 24.08056640625 27.37741482257843 C 23.76482391357422 26.991264700889587 23.82318878173828 26.423357129096985 24.210800170898438 26.108828902244568 C 24.210800170898438 26.108828902244568 41.88471221923828 11.765362024307251 41.88471221923828 11.765362024307251 C 42.27392578125 11.45015811920166 42.84361267089844 11.508604288101196 43.15946960449219 11.894247651100159 C 43.47521209716797 12.280566692352295 43.416847229003906 12.848474264144897 43.02935028076172 13.162833571434021 C 43.02935028076172 13.162833571434021 25.355323791503906 27.50646936893463 25.355323791503906 27.50646936893463 C 25.187210083007812 27.64278745651245 24.984649658203125 27.70917284488678 24.783920288085938 27.70917284488678 Z"/></g></svg>