<svg version="1.1" xmlns="http://www.w3.org/2000/svg" xmlns:xlink="http://www.w3.org/1999/xlink" width="52" height="47"><defs/><g><path fill="rgb(32,170,151)" stroke="none" paint-order="stroke fill markers" fill-rule="evenodd" d=" M 32.026947021484375 45.99129045009613 C 32.026947021484375 45.99129045009613 31.88835906982422 45.99129045009613 31.88835906982422 45.99129045009613 C 31.17779541015625 45.99129045009613 30.362747192382812 45.91105365753174 29.652069091796875 45.77101933956146 C 25.490768432617188 45.00632047653198 21.46771240234375 43.24415159225464 17.365234375 40.38569474220276 C 13.496559143066406 37.73196840286255 10.075233459472656 34.33786761760712 7.199104309082031 30.300352215766907 C 5.573127746582031 28.03091788291931 4.259346008300781 25.582090973854065 3.2947235107421875 23.023804187774658 C 2.5283126831054688 20.909775853157043 1.8558578491210938 18.822098970413208 1.9991378784179688 16.42107629776001 C 1.9991378784179688 16.42107629776001 2.0070343017578125 16.315163731575012 2.0070343017578125 16.315163731575012 C 2.0826797485351562 15.390498042106628 2.3119049072265625 12.576804876327515 4.746406555175781 10.777811527252197 C 6.054695129394531 9.764463067054749 7.3511962890625 9.031858921051025 8.695304870605469 8.55026924610138 C 9.192665100097656 8.3870929479599 9.765670776367188 8.297734498977661 10.289352416992188 8.297734498977661 C 11.811759948730469 8.297734498977661 13.151176452636719 8.971385717391968 14.061553955078125 10.194701194763184 C 15.019882202148438 11.54267930984497 15.999496459960938 12.92207646369934 16.96800994873047 14.218196272850037 C 16.96800994873047 14.218196272850037 17.66747283935547 15.18238914012909 17.66747283935547 15.18238914012909 C 18.01537322998047 15.662458539009094 18.37506103515625 16.15823745727539 18.73394775390625 16.725300431251526 C 19.65313720703125 18.207738518714905 19.59271240234375 20.12683367729187 18.58277130126953 21.620420455932617 C 18.12592315673828 22.29576086997986 17.653968811035156 22.835121035575867 17.180526733398438 23.224480628967285 C 16.843040466308594 23.515697956085205 16.492164611816406 23.818232893943787 16.136367797851562 24.107761025428772 C 16.282737731933594 24.301005005836487 16.429222106933594 24.493066549301147 16.59241485595703 24.686310529708862 C 19.14227294921875 27.62821364402771 21.794784545898438 30.118425846099854 24.67652130126953 32.273839473724365 C 24.76166534423828 32.167757987976074 24.84680938720703 32.06150758266449 24.93195343017578 31.955595016479492 C 25.196197509765625 31.625526189804077 25.46044158935547 31.295457363128662 25.707176208496094 30.983462929725647 C 26.097076416015625 30.52129900455475 26.467178344726562 30.218595147132874 26.78314971923828 29.982107758522034 C 26.78314971923828 29.982107758522034 26.81256103515625 29.953391432762146 26.81256103515625 29.953391432762146 C 26.834075927734375 29.932276487350464 26.856277465820312 29.912681818008423 26.87950897216797 29.894100666046143 C 27.693527221679688 29.252544164657593 28.709762573242188 28.899333357810974 29.742820739746094 28.899333357810974 C 30.72655487060547 28.899333357810974 31.62903594970703 29.177881717681885 32.42474365234375 29.726532459259033 C 34.33567810058594 30.940726280212402 36.360939025878906 32.26437997817993 38.77472686767578 33.87435233592987 C 40.54558563232422 34.99124848842621 41.29517364501953 36.86946511268616 40.77870178222656 38.902074217796326 C 39.977272033691406 41.38806343078613 38.77964782714844 43.21053659915924 37.102745056152344 44.52084565162659 C 36.762168884277344 44.773380398750305 36.524131774902344 44.92794179916382 36.33793640136719 45.019665122032166 C 36.33793640136719 45.019665122032166 36.06098937988281 45.155983209609985 36.06098937988281 45.155983209609985 C 34.680145263671875 45.718316435813904 33.341529846191406 45.99129045009613 32.026947021484375 45.99129045009613 Z M 10.289352416992188 9.903652787208557 C 9.938362121582031 9.903652787208557 9.542854309082031 9.964970588684082 9.230888366699219 10.06699800491333 C 8.072975158691406 10.482202291488647 6.9238739013671875 11.133893966674805 5.7387237548828125 12.051633954048157 C 3.8780288696289062 13.426977038383484 3.6989288330078125 15.618539452552795 3.6322097778320312 16.44354259967804 C 3.6322097778320312 16.44354259967804 3.6241989135742188 16.5349280834198 3.6241989135742188 16.5349280834198 C 3.500946044921875 18.61753737926483 4.0953521728515625 20.457747101783752 4.8259429931640625 22.473971009254456 C 5.738037109375 24.89289915561676 6.985786437988281 27.218076944351196 8.532112121582031 29.375686526298523 C 11.299293518066406 33.260329723358154 14.585235595703125 36.52182865142822 18.30101776123047 39.07133162021637 C 22.212608337402344 41.796679854393005 26.025436401367188 43.47084164619446 29.961746215820312 44.193817377090454 C 30.581558227539062 44.31611514091492 31.28033447265625 44.38520324230194 31.88835906982422 44.38520324230194 C 31.88835906982422 44.38520324230194 32.026947021484375 44.38520324230194 32.026947021484375 44.38520324230194 C 33.127525329589844 44.38520324230194 34.25762939453125 44.15310776233673 35.386016845703125 43.694997906684875 C 35.386016845703125 43.694997906684875 35.60894775390625 43.58300423622131 35.60894775390625 43.58300423622131 C 35.65186309814453 43.56172037124634 35.78564453125 43.48739576339722 36.10791015625 43.249894857406616 C 37.504661560058594 42.15647852420807 38.52570343017578 40.58738470077515 39.21166229248047 38.46355903148651 C 39.54125213623047 37.158655405044556 39.064491271972656 35.960508942604065 37.888954162597656 35.223175048828125 C 37.882659912109375 35.21945881843567 37.876251220703125 35.21472907066345 37.869956970214844 35.21067500114441 C 35.46246337890625 33.60374319553375 33.44349670410156 32.28481924533844 31.515968322753906 31.059476733207703 C 30.41779327392578 30.303561687469482 28.970115661621094 30.325690150260925 27.931564331054688 31.12231481075287 C 27.931564331054688 31.12231481075287 27.8956298828125 31.157281160354614 27.8956298828125 31.157281160354614 C 27.868621826171875 31.184139370918274 27.839210510253906 31.20880162715912 27.808082580566406 31.231605768203735 C 27.544754028320312 31.427045702934265 27.260597229003906 31.65441143512726 26.9764404296875 31.990561366081238 C 26.74492645263672 32.28481924533844 26.47747802734375 32.61809754371643 26.210830688476562 32.95086908340454 C 26.210830688476562 32.95086908340454 25.470054626464844 33.87908208370209 25.470054626464844 33.87908208370209 C 25.19940185546875 34.22266447544098 24.703529357910156 34.29006338119507 24.344642639160156 34.033812403678894 C 21.11431884765625 31.69900619983673 18.170440673828125 28.98075258731842 15.346153259277344 25.72161853313446 C 15.157554626464844 25.498644709587097 14.993560791015625 25.283441185951233 14.829681396484375 25.068068742752075 C 14.681594848632812 24.873980164527893 14.534309387207031 24.67989158630371 14.370429992675781 24.48630976676941 C 14.227951049804688 24.317390203475952 14.161117553710938 24.097625851631165 14.187324523925781 23.878875017166138 C 14.212844848632812 23.660462021827698 14.329002380371094 23.461812615394592 14.508102416992188 23.330055356025696 C 15.037277221679688 22.938499808311462 15.588882446289062 22.46299123764038 16.12206268310547 22.003361105918884 C 16.490562438964844 21.700319409370422 16.857460021972656 21.27599346637726 17.226646423339844 20.72987651824951 C 17.885597229003906 19.754703879356384 17.933433532714844 18.514158606529236 17.346923828125 17.569222569465637 C 17.018936157226562 17.050808429718018 16.690261840820312 16.59658372402191 16.34178924560547 16.116007566452026 C 16.34178924560547 16.116007566452026 15.649421691894531 15.161612033843994 15.649421691894531 15.161612033843994 C 14.675186157226562 13.85924220085144 13.689964294433594 12.471905827522278 12.736671447753906 11.130177736282349 C 12.142837524414062 10.332708477973938 11.292884826660156 9.903652787208557 10.289352416992188 9.903652787208557 Z M 37.102745056152344 27.31503677368164 C 35.56683349609375 27.31503677368164 34.16127014160156 27.07517099380493 32.805946350097656 26.583277225494385 C 31.849449157714844 26.289526104927063 30.888031005859375 25.81148374080658 29.833572387695312 25.097967505455017 C 29.494483947753906 25.132089257240295 29.18572235107422 25.132089257240295 28.86414337158203 25.132089257240295 C 28.86414337158203 25.132089257240295 28.171775817871094 25.132089257240295 28.171775817871094 25.132089257240295 C 27.340133666992188 25.132089257240295 26.49590301513672 24.96468997001648 25.365684509277344 24.573641180992126 C 25.29564666748047 24.564857363700867 25.226409912109375 24.550499200820923 25.177200317382812 24.531918048858643 C 23.694503784179688 23.96350371837616 22.846954345703125 23.0640070438385 22.659042358398438 21.858259201049805 C 22.559593200683594 20.708592653274536 23.02674102783203 19.748791694641113 23.966529846191406 19.10030949115753 C 23.966529846191406 19.10030949115753 24.71794891357422 18.565341234207153 24.71794891357422 18.565341234207153 C 23.8966064453125 15.940669059753418 23.935630798339844 13.164982795715332 24.838111877441406 10.49943208694458 C 25.69115447998047 8.20432198047638 27.072799682617188 6.266814589500427 28.83953857421875 4.8733971118927 C 32.361915588378906 2.0537917613983154 37.027099609375 1.2384170293807983 41.31428527832031 2.6950104236602783 C 44.591529846191406 3.7960281372070312 47.21863555908203 6.099753141403198 48.70762634277344 9.18017029762268 C 50.192726135253906 12.253999590873718 50.40203857421875 15.668708562850952 49.29493713378906 18.79490292072296 C 48.444984436035156 21.078526496887207 47.06425476074219 23.016202807426453 45.296714782714844 24.41012704372406 C 42.958457946777344 26.28209364414215 40.0465087890625 27.31503677368164 37.102745056152344 27.31503677368164 Z M 30.041282653808594 23.45775854587555 C 30.20996856689453 23.45775854587555 30.375450134277344 23.50961685180664 30.51483917236328 23.60725235939026 C 31.544578552246094 24.33141052722931 32.412841796875 24.780398726463318 33.330543518066406 25.06300115585327 C 34.541786193847656 25.50168526172638 35.76252746582031 25.708780646324158 37.102745056152344 25.708780646324158 C 39.673316955566406 25.708780646324158 42.219970703125 24.80354070663452 44.27326965332031 23.15978443622589 C 45.81318664550781 21.945590615272522 47.017333984375 20.250313878059387 47.76062774658203 18.25385355949402 C 48.72044372558594 15.541512131690979 48.535736083984375 12.56041967868805 47.23534393310547 9.870713472366333 C 45.937355041503906 7.184216737747192 43.646934509277344 5.175594210624695 40.785797119140625 4.214104056358337 C 37.031105041503906 2.938761353492737 32.95002746582031 3.6519397497177124 29.86298370361328 6.123908638954163 C 28.32306671142578 7.337426781654358 27.118919372558594 9.032703518867493 26.375625610351562 11.029839515686035 C 25.532882690429688 13.524105787277222 25.554397583007812 16.149622559547424 26.447265625 18.599969744682312 C 26.56983184814453 18.936626434326172 26.451271057128906 19.3128103017807 26.157501220703125 19.522270560264587 C 26.157501220703125 19.522270560264587 24.911239624023438 20.40926718711853 24.911239624023438 20.40926718711853 C 24.436996459960938 20.73663330078125 24.23249053955078 21.14660108089447 24.276206970214844 21.669744968414307 C 24.3287353515625 21.99136781692505 24.538848876953125 22.53630232810974 25.665748596191406 22.99458110332489 C 25.72228240966797 23.002182483673096 25.77629852294922 23.01316225528717 25.815322875976562 23.026675820350647 C 26.809356689453125 23.37667715549469 27.514541625976562 23.526002049446106 28.171775817871094 23.526002049446106 C 28.171775817871094 23.526002049446106 28.86414337158203 23.526002049446106 28.86414337158203 23.526002049446106 C 29.266860961914062 23.526002049446106 29.5582275390625 23.526002049446106 29.907615661621094 23.46856939792633 C 29.952133178710938 23.461305856704712 29.99676513671875 23.45775854587555 30.041282653808594 23.45775854587555 Z M 38.98735809326172 11.384739518165588 C 38.98735809326172 11.384739518165588 34.30134582519531 11.384739518165588 34.30134582519531 11.384739518165588 C 33.85090637207031 11.384739518165588 33.48652648925781 11.025109767913818 33.48652648925781 10.581695914268494 C 33.48652648925781 10.138282060623169 33.85090637207031 9.778821229934692 34.30134582519531 9.778821229934692 C 34.30134582519531 9.778821229934692 38.98735809326172 9.778821229934692 38.98735809326172 9.778821229934692 C 39.43768310546875 9.778821229934692 39.80229187011719 10.138282060623169 39.80229187011719 10.581695914268494 C 39.80229187011719 11.025109767913818 39.43768310546875 11.384739518165588 38.98735809326172 11.384739518165588 Z M 42.69982147216797 15.318369388580322 C 42.69982147216797 15.318369388580322 32.605445861816406 15.318369388580322 32.605445861816406 15.318369388580322 C 32.155006408691406 15.318369388580322 31.790512084960938 14.958739638328552 31.790512084960938 14.515325784683228 C 31.790512084960938 14.072080850601196 32.155006408691406 13.712451100349426 32.605445861816406 13.712451100349426 C 32.605445861816406 13.712451100349426 42.69982147216797 13.712451100349426 42.69982147216797 13.712451100349426 C 43.15026092529297 13.712451100349426 43.51475524902344 14.072080850601196 43.51475524902344 14.515325784683228 C 43.51475524902344 14.958739638328552 43.15026092529297 15.318369388580322 42.69982147216797 15.318369388580322 Z M 41.43605041503906 19.535277366638184 C 41.43605041503906 19.535277366638184 35.48237609863281 19.535277366638184 35.48237609863281 19.535277366638184 C 35.03205108642578 19.535277366638184 34.667442321777344 19.17547869682312 34.667442321777344 18.732064843177795 C 34.667442321777344 18.28865098953247 35.03205108642578 17.9290212392807 35.48237609863281 17.9290212392807 C 35.48237609863281 17.9290212392807 41.43605041503906 17.9290212392807 41.43605041503906 17.9290212392807 C 41.88660430908203 17.9290212392807 42.25098419189453 18.28865098953247 42.25098419189453 18.732064843177795 C 42.25098419189453 19.17547869682312 41.88660430908203 19.535277366638184 41.43605041503906 19.535277366638184 Z"/></g></svg>