<svg version="1.1" xmlns="http://www.w3.org/2000/svg" xmlns:xlink="http://www.w3.org/1999/xlink" width="65" height="42"><defs/><g><path fill="rgb(32,170,151)" stroke="none" paint-order="stroke fill markers" fill-rule="evenodd" d=" M 32.68232727050781 21.5398610830307 C 32.68232727050781 21.5398610830307 32.456764221191406 21.5398610830307 32.456764221191406 21.5398610830307 C 30.731796264648438 21.5398610830307 29.238914489746094 20.982595443725586 28.01897430419922 19.884449362754822 C 26.85614013671875 18.722620606422424 26.059860229492188 17.65825843811035 25.48571014404297 16.50842297077179 C 25.483421325683594 16.504199981689453 25.481361389160156 16.499808073043823 25.47918701171875 16.495585083961487 C 24.3594970703125 14.142366647720337 23.728927612304688 11.695904612541199 23.605789184570312 9.224104642868042 C 23.605789184570312 9.224104642868042 23.6051025390625 8.172580361366272 23.6051025390625 8.172580361366272 C 23.850692749023438 5.070034742355347 25.57428741455078 2.86259388923645 28.59186553955078 1.730832815170288 C 29.820388793945312 1.2391079664230347 31.053146362304688 1.0073503255844116 32.456764221191406 1.0073503255844116 C 33.80339050292969 1.0073503255844116 35.14509582519531 1.2597161531448364 36.33757019042969 1.7364071607589722 C 39.286598205566406 2.842492461204529 41.056312561035156 5.108548402786255 41.306251525878906 8.11143147945404 C 41.306251525878906 8.11143147945404 41.309112548828125 9.187280178070068 41.309112548828125 9.187280178070068 C 41.309112548828125 11.58019471168518 40.71607971191406 14.039156794548035 39.54740905761719 16.495585083961487 C 39.08495330810547 17.65521788597107 38.272193908691406 18.74542474746704 37.00762176513672 19.884449362754822 C 35.80644989013672 20.95303452014923 34.27179718017578 21.5398610830307 32.68232727050781 21.5398610830307 Z M 26.80853271484375 15.854366421699524 C 27.310012817382812 16.855552673339844 28.017601013183594 17.7964346408844 29.0341796875 18.814175009727478 C 29.946388244628906 19.633941650390625 31.107276916503906 20.063335180282593 32.456764221191406 20.063335180282593 C 32.456764221191406 20.063335180282593 32.68232727050781 20.063335180282593 32.68232727050781 20.063335180282593 C 33.91004943847656 20.063335180282593 35.09668731689453 19.608941555023193 36.02411651611328 18.78393840789795 C 37.110618591308594 17.805049538612366 37.80229949951172 16.88916766643524 38.19574737548828 15.9040287733078 C 39.28877258300781 13.60401999950409 39.83351135253906 11.358572244644165 39.83351135253906 9.187280178070068 C 39.83351135253906 9.187280178070068 39.83351135253906 8.172580361366272 39.83351135253906 8.172580361366272 C 39.63323974609375 5.797402381896973 38.23900604248047 4.026280760765076 35.805076599121094 3.113439440727234 C 34.769615173339844 2.6994175910949707 33.61753845214844 2.4838762283325195 32.456764221191406 2.4838762283325195 C 31.23041534423828 2.4838762283325195 30.202964782714844 2.676275610923767 29.124359130859375 3.1076961755752563 C 26.632064819335938 4.042665958404541 25.27605438232422 5.764969825744629 25.078529357910156 8.231533288955688 C 25.078529357910156 8.231533288955688 25.080703735351562 9.187280178070068 25.080703735351562 9.187280178070068 C 25.193084716796875 11.4247887134552 25.774559020996094 13.680033802986145 26.80853271484375 15.854366421699524 Z M 45.981163024902344 40.007161259651184 C 45.981163024902344 40.007161259651184 19.158729553222656 40.007161259651184 19.158729553222656 40.007161259651184 C 17.77239227294922 40.007161259651184 16.00634002685547 39.29313826560974 15.20513916015625 37.28738737106323 C 15.192893981933594 37.25647509098053 15.182823181152344 37.22556281089783 15.174812316894531 37.19296133518219 C 15.058883666992188 36.73164200782776 14.944328308105469 36.269647002220154 14.829086303710938 35.69194209575653 C 14.819587707519531 35.64447569847107 14.814552307128906 35.59616470336914 14.814552307128906 35.548022627830505 C 14.814552307128906 35.548022627830505 14.814552307128906 31.15053963661194 14.814552307128906 31.15053963661194 C 14.801620483398438 30.603747010231018 14.915489196777344 28.70509111881256 16.9071044921875 27.181774497032166 C 17.604507446289062 26.623157501220703 18.47917938232422 26.16268277168274 19.294113159179688 25.929911613464355 C 19.294113159179688 25.929911613464355 24.869674682617188 23.80760622024536 24.869674682617188 23.80760622024536 C 24.923004150390625 23.78750479221344 24.9783935546875 23.77331554889679 25.034584045410156 23.765883088111877 C 25.034584045410156 23.765883088111877 26.724990844726562 23.540544390678406 26.724990844726562 23.540544390678406 C 26.817115783691406 23.528213262557983 26.910842895507812 23.533280849456787 27.001022338867188 23.556084990501404 C 27.001022338867188 23.556084990501404 27.45123291015625 23.668585419654846 27.45123291015625 23.668585419654846 C 28.200592041015625 23.817403554916382 28.660301208496094 24.277709364891052 29.14667510986328 24.765042304992676 C 29.28789520263672 24.905583381652832 29.357017517089844 25.043928503990173 29.398101806640625 25.126530170440674 C 30.00841522216797 25.920452117919922 30.55750274658203 26.701029419898987 31.08770751953125 27.455762028694153 C 31.558975219726562 28.124852418899536 32.04454803466797 28.815226674079895 32.54167938232422 29.47266161441803 C 32.54167938232422 29.47266161441803 35.125640869140625 25.871127605438232 35.125640869140625 25.871127605438232 C 35.17748260498047 25.79916787147522 35.240882873535156 25.73818790912628 35.31217956542969 25.689876914024353 C 35.3201904296875 25.679234981536865 35.328086853027344 25.668424129486084 35.33747100830078 25.657613277435303 C 35.518287658691406 25.324841737747192 35.79420471191406 24.963353872299194 36.10548400878906 24.65186619758606 C 36.10548400878906 24.65186619758606 36.33104705810547 24.426527500152588 36.33104705810547 24.426527500152588 C 36.35267639160156 24.404905796051025 36.37567901611328 24.38463544845581 36.39948272705078 24.366392135620117 C 37.493309020996094 23.514192938804626 38.91558074951172 23.400172233581543 40.507225036621094 24.037505745887756 C 40.507225036621094 24.037505745887756 46.0098876953125 26.06014859676361 46.0098876953125 26.06014859676361 C 46.83203125 26.2927508354187 47.59580993652344 26.675015807151794 48.231300354003906 27.17957854270935 C 50.227149963378906 28.63076651096344 50.52320861816406 30.544118404388428 50.325225830078125 31.36945939064026 C 50.325225830078125 31.36945939064026 50.325225830078125 35.43535327911377 50.325225830078125 35.43535327911377 C 50.325225830078125 36.19076156616211 50.20048522949219 36.761202931404114 49.90934753417969 37.34448218345642 C 49.18310546875 39.16611075401306 47.40778350830078 40.007161259651184 45.981163024902344 40.007161259651184 Z M 16.593650817871094 36.783669233322144 C 17.26587677001953 38.40411460399628 18.724197387695312 38.53097319602966 19.158729553222656 38.53097319602966 C 19.158729553222656 38.53097319602966 45.981163024902344 38.53097319602966 45.981163024902344 38.53097319602966 C 46.674217224121094 38.53097319602966 47.99852752685547 38.15377581119537 48.564208984375 36.73958122730255 C 48.74571228027344 36.37116765975952 48.849510192871094 36.040085315704346 48.849510192871094 35.43535327911377 C 48.849510192871094 35.43535327911377 48.849510192871094 31.262871146202087 48.849510192871094 31.262871146202087 C 48.849510192871094 31.17706000804901 48.86461639404297 31.09192454814911 48.893455505371094 31.01185667514801 C 48.907875061035156 30.865572333335876 48.97917175292969 29.541242957115173 47.35227966308594 28.366238474845886 C 47.3428955078125 28.358974933624268 47.33351135253906 28.35171139240265 47.324127197265625 28.34444785118103 C 46.83924102783203 27.956777453422546 46.24334716796875 27.660492539405823 45.55303955078125 27.46302556991577 C 45.55303955078125 27.46302556991577 39.97908020019531 25.41605830192566 39.97908020019531 25.41605830192566 C 38.883880615234375 24.978049874305725 38.002685546875 25.011327028274536 37.33904266357422 25.50558567047119 C 37.33904266357422 25.50558567047119 37.148155212402344 25.696295857429504 37.148155212402344 25.696295857429504 C 36.810211181640625 26.034810662269592 36.650909423828125 26.326196908950806 36.609825134277344 26.407278299331665 C 36.57457733154297 26.477548837661743 36.52845764160156 26.541738271713257 36.47306823730469 26.59714388847351 C 36.400169372558594 26.720455169677734 36.312278747558594 26.81842851638794 36.21076965332031 26.890557169914246 C 36.21076965332031 26.890557169914246 33.16938781738281 31.129424691200256 33.16938781738281 31.129424691200256 C 33.034576416015625 31.317094326019287 32.81988525390625 31.430777192115784 32.58928680419922 31.43736505508423 C 32.345069885253906 31.43652045726776 32.138275146484375 31.34074306488037 31.99419403076172 31.160674810409546 C 31.99419403076172 31.160674810409546 31.543067932128906 30.596821308135986 31.543067932128906 30.596821308135986 C 30.961021423339844 29.84056842327118 30.411819458007812 29.05982220172882 29.881614685058594 28.305089592933655 C 29.36640167236328 27.5733300447464 28.833908081054688 26.81657040119171 28.287796020507812 26.10406768321991 C 28.17461395263672 25.97906720638275 28.11487579345703 25.860485672950745 28.078140258789062 25.78700566291809 C 27.665924072265625 25.370787858963013 27.45844268798828 25.175010085105896 27.127708435058594 25.108624696731567 C 27.127708435058594 25.108624696731567 26.780380249023438 25.02230679988861 26.780380249023438 25.02230679988861 C 26.780380249023438 25.02230679988861 25.314048767089844 25.218084573745728 25.314048767089844 25.218084573745728 C 25.314048767089844 25.218084573745728 19.75885772705078 27.32957911491394 19.75885772705078 27.32957911491394 C 19.07518768310547 27.528059601783752 18.37114715576172 27.89985156059265 17.81633758544922 28.34394109249115 C 16.3651123046875 29.454756140708923 16.2808837890625 30.74597728252411 16.289466857910156 31.11489760875702 C 16.289466857910156 31.11489760875702 16.290267944335938 35.47437369823456 16.290267944335938 35.47437369823456 C 16.391090393066406 35.97099721431732 16.492027282714844 36.37893795967102 16.593650817871094 36.783669233322144 Z M 48.8919677734375 31.025876998901367 C 48.8919677734375 31.025876998901367 48.8919677734375 31.025876998901367 48.8919677734375 31.025876998901367 C 48.8919677734375 31.025876998901367 48.8919677734375 31.025876998901367 48.8919677734375 31.025876998901367 Z M 48.928016662597656 30.931113123893738 C 48.928016662597656 30.931113123893738 48.928016662597656 30.931957721710205 48.928016662597656 30.931957721710205 C 48.928016662597656 30.931957721710205 48.928016662597656 30.931113123893738 48.928016662597656 30.931113123893738 Z M 51.20195770263672 19.336305379867554 C 51.20195770263672 19.336305379867554 51.055015563964844 19.336305379867554 51.055015563964844 19.336305379867554 C 49.86402893066406 19.336305379867554 48.832115173339844 18.950493097305298 47.987770080566406 18.190017223358154 C 47.20018768310547 17.403696656227112 46.66551971435547 16.68832230567932 46.27653503417969 15.911461234092712 C 46.27436065673828 15.906900405883789 46.272186279296875 15.902677416801453 46.27001190185547 15.898285508155823 C 45.525001525878906 14.330880880355835 45.104888916015625 12.701820611953735 45.02272033691406 11.05586838722229 C 45.02272033691406 11.05586838722229 45.02203369140625 10.356879234313965 45.02203369140625 10.356879234313965 C 45.19140625 8.205519676208496 46.373695373535156 6.689297676086426 48.44244384765625 5.91260552406311 C 49.27099609375 5.581523180007935 50.105384826660156 5.4244279861450195 51.055015563964844 5.4244279861450195 C 51.96653747558594 5.4244279861450195 52.875083923339844 5.595374584197998 53.68212127685547 5.918348789215088 C 55.699485778808594 6.675784111022949 56.91370391845703 8.232040047645569 57.08513641357422 10.295392513275146 C 57.08513641357422 10.295392513275146 57.08799743652344 11.019381761550903 57.08799743652344 11.019381761550903 C 57.08799743652344 12.619218945503235 56.69248962402344 14.261117100715637 55.912803649902344 15.89862334728241 C 55.60369873046875 16.677173614501953 55.05255126953125 17.419068336486816 54.196533203125 18.190017223358154 C 53.36363220214844 18.930391669273376 52.30150604248047 19.336305379867554 51.20195770263672 19.336305379867554 Z M 47.59935760498047 15.257404685020447 C 47.91498565673828 15.88544762134552 48.3609619140625 16.477341771125793 49.00297546386719 17.119067192077637 C 49.540504455566406 17.601839303970337 50.240081787109375 17.85994839668274 51.055015563964844 17.85994839668274 C 51.055015563964844 17.85994839668274 51.20195770263672 17.85994839668274 51.20195770263672 17.85994839668274 C 51.93975830078125 17.85994839668274 52.65386962890625 17.58629870414734 53.21302795410156 17.08950626850128 C 53.89097595214844 16.479030966758728 54.320472717285156 15.911123394966125 54.56194305419922 15.307067036628723 C 55.26518249511719 13.825980305671692 55.612396240234375 12.397934317588806 55.612396240234375 11.019381761550903 C 55.612396240234375 11.019381761550903 55.612396240234375 10.356879234313965 55.612396240234375 10.356879234313965 C 55.49131774902344 8.934069752693176 54.63896179199219 7.853998064994812 53.14894104003906 7.295549988746643 C 52.499717712402344 7.035413861274719 51.78057098388672 6.900953888893127 51.055015563964844 6.900953888893127 C 50.2890625 6.900953888893127 49.647850036621094 7.0207178592681885 48.975624084472656 7.2898067235946655 C 47.42357635498047 7.872241377830505 46.617340087890625 8.892853379249573 46.495460510253906 10.415325403213501 C 46.495460510253906 10.415325403213501 46.49774932861328 11.019381761550903 46.49774932861328 11.019381761550903 C 46.568931579589844 12.43036687374115 46.9400634765625 13.868548035621643 47.59935760498047 15.257404685020447 Z M 59.880699157714844 31.770474433898926 C 59.880699157714844 31.770474433898926 50.22852325439453 31.770474433898926 50.22852325439453 31.770474433898926 C 49.820770263671875 31.770474433898926 49.49083709716797 31.44040560722351 49.49083709716797 31.032127022743225 C 49.49083709716797 30.624017357826233 49.820770263671875 30.293948531150818 50.22852325439453 30.293948531150818 C 50.22852325439453 30.293948531150818 59.880699157714844 30.293948531150818 59.880699157714844 30.293948531150818 C 60.26842498779297 30.293948531150818 61.01057434082031 30.081785559654236 61.32837677001953 29.286174416542053 C 61.441444396972656 29.054754614830017 61.49626159667969 28.875868797302246 61.49626159667969 28.530766129493713 C 61.49626159667969 28.530766129493713 61.49626159667969 25.808120608329773 61.49626159667969 25.808120608329773 C 61.49626159667969 25.734302759170532 61.50701904296875 25.660991668701172 61.528648376464844 25.590721130371094 C 61.53448486328125 25.47078824043274 61.52429962158203 24.775177478790283 60.62513732910156 24.12517499923706 C 60.30664825439453 23.87162673473358 59.9478759765625 23.693585515022278 59.53062438964844 23.574328303337097 C 59.53062438964844 23.574328303337097 55.87538146972656 22.23310697078705 55.87538146972656 22.23310697078705 C 54.98846435546875 21.879051566123962 54.573387145996094 22.122971415519714 54.41053771972656 22.244086742401123 C 54.41053771972656 22.244086742401123 54.29804229736328 22.356418251991272 54.29804229736328 22.356418251991272 C 54.14251708984375 22.51216208934784 54.03734588623047 22.66756808757782 53.994773864746094 22.753210306167603 C 53.96742248535156 22.808447003364563 53.93274688720703 22.85962963104248 53.89246368408203 22.90608251094818 C 53.83123779296875 23.000677466392517 53.76348876953125 23.073312878608704 53.69505310058594 23.12973201274872 C 53.69505310058594 23.12973201274872 51.727928161621094 25.870620846748352 51.727928161621094 25.870620846748352 C 51.593231201171875 26.05812156200409 51.3785400390625 26.172142267227173 51.147254943847656 26.17788553237915 C 50.94984436035156 26.18666934967041 50.69624328613281 26.08160138130188 50.552162170410156 25.901195287704468 C 50.552162170410156 25.901195287704468 50.25804901123047 25.53295063972473 50.25804901123047 25.53295063972473 C 49.87627410888672 25.03598928451538 49.52104949951172 24.531595468521118 49.16582489013672 24.026694893836975 C 48.82856750488281 23.546963334083557 48.491424560546875 23.067569613456726 48.13688659667969 22.60506784915924 C 48.061241149902344 22.51959455013275 48.014434814453125 22.43800640106201 47.985595703125 22.382600784301758 C 47.75144958496094 22.14966070652008 47.656349182128906 22.0690860748291 47.527374267578125 22.043241381645203 C 47.527374267578125 22.043241381645203 47.33717346191406 21.996112823486328 47.33717346191406 21.996112823486328 C 47.33717346191406 21.996112823486328 46.45735168457031 22.11351191997528 46.45735168457031 22.11351191997528 C 46.45735168457031 22.11351191997528 42.85978698730469 23.481253623962402 42.85978698730469 23.481253623962402 C 42.429603576660156 23.60676085948944 41.993011474609375 23.838011741638184 41.661590576171875 24.10321545600891 C 41.366790771484375 24.32889199256897 41.146263122558594 24.576528072357178 40.994285583496094 24.849164247512817 C 40.794700622558594 25.204739928245544 40.345176696777344 25.331936359405518 39.989952087402344 25.13261127471924 C 39.634613037109375 24.933624029159546 39.50712585449219 24.484129071235657 39.706024169921875 24.12804663181305 C 39.95745086669922 23.678889513015747 40.30901336669922 23.279056906700134 40.75224304199219 22.94020426273346 C 41.228431701660156 22.558952808380127 41.83153533935547 22.2420597076416 42.395042419433594 22.08124828338623 C 42.395042419433594 22.08124828338623 46.01274871826172 20.703033566474915 46.01274871826172 20.703033566474915 C 46.066078186035156 20.682932138442993 46.12158203125 20.668911814689636 46.177772521972656 20.66131043434143 C 46.177772521972656 20.66131043434143 47.280982971191406 20.51418149471283 47.280982971191406 20.51418149471283 C 47.37310791015625 20.50151252746582 47.46672058105469 20.50691795349121 47.556785583496094 20.529722094535828 C 47.556785583496094 20.529722094535828 47.85089874267578 20.60320210456848 47.85089874267578 20.60320210456848 C 48.403533935546875 20.71299982070923 48.74571228027344 21.055230855941772 49.076446533203125 21.386144280433655 C 49.18516540527344 21.494759559631348 49.245018005371094 21.60388159751892 49.27820587158203 21.667564272880554 C 49.28106689453125 21.671111583709717 49.28392791748047 21.67516565322876 49.286102294921875 21.678881883621216 C 49.66089630126953 22.165876984596252 50.016693115234375 22.671622157096863 50.372718811035156 23.17719841003418 C 50.61476135253906 23.521794319152832 50.85760498046875 23.86672806739807 51.106170654296875 24.205073952674866 C 51.106170654296875 24.205073952674866 52.588409423828125 22.13986337184906 52.588409423828125 22.13986337184906 C 52.628578186035156 22.083444237709045 52.676185607910156 22.034119725227356 52.72882843017578 21.99222767353058 C 52.85711669921875 21.765368700027466 53.044456481933594 21.52364480495453 53.254112243652344 21.312833189964294 C 53.254112243652344 21.312833189964294 53.40185546875 21.165366411209106 53.40185546875 21.165366411209106 C 53.423484802246094 21.143744707107544 53.446372985839844 21.123305439949036 53.47029113769531 21.104555368423462 C 54.02143859863281 20.67634427547455 54.979766845703125 20.282930612564087 56.403526306152344 20.85523009300232 C 56.403526306152344 20.85523009300232 59.98747253417969 22.171958088874817 59.98747253417969 22.171958088874817 C 60.541481018066406 22.32753300666809 61.073974609375 22.59527051448822 61.51789093017578 22.95000159740448 C 62.85295867919922 23.913856625556946 63.115257263183594 25.233625173568726 62.97186279296875 25.904911518096924 C 62.97186279296875 25.904911518096924 62.97186279296875 28.530766129493713 62.97186279296875 28.530766129493713 C 62.97186279296875 29.0655654668808 62.882484436035156 29.471985936164856 62.67351531982422 29.890737533569336 C 62.1634521484375 31.1721613407135 60.898193359375 31.770474433898926 59.880699157714844 31.770474433898926 Z M 61.57408142089844 25.47855854034424 C 61.573280334472656 25.478896379470825 61.573280334472656 25.479572057724 61.573280334472656 25.479740977287292 C 61.573280334472656 25.479572057724 61.573280334472656 25.478896379470825 61.57408142089844 25.47855854034424 Z M 53.857215881347656 22.944258332252502 C 53.857215881347656 22.944258332252502 53.856414794921875 22.94459617137909 53.856414794921875 22.94510293006897 C 53.856414794921875 22.94459617137909 53.857215881347656 22.94459617137909 53.857215881347656 22.94459617137909 C 53.857215881347656 22.94459617137909 53.857215881347656 22.944258332252502 53.857215881347656 22.944258332252502 Z M 49.223388671875 21.607091069221497 C 49.223388671875 21.607091069221497 49.22418975830078 21.60725998878479 49.22418975830078 21.60725998878479 C 49.22418975830078 21.60725998878479 49.223388671875 21.607091069221497 49.223388671875 21.607091069221497 Z M 13.934158325195312 19.336305379867554 C 13.934158325195312 19.336305379867554 13.787216186523438 19.336305379867554 13.787216186523438 19.336305379867554 C 12.687667846679688 19.336305379867554 11.625541687011719 18.930391669273376 10.796302795410156 18.19322669506073 C 9.936622619628906 17.419068336486816 9.385475158691406 16.677173614501953 9.056915283203125 15.855042099952698 C 8.296684265136719 14.261117100715637 7.90106201171875 12.619218945503235 7.90106201171875 11.019381761550903 C 7.90106201171875 11.019381761550903 7.90106201171875 10.356879234313965 7.90106201171875 10.356879234313965 C 8.075469970703125 8.232040047645569 9.288887023925781 6.675784111022949 11.320785522460938 5.913112282752991 C 12.114776611328125 5.595374584197998 13.023323059082031 5.4244279861450195 13.934158325195312 5.4244279861450195 C 14.8837890625 5.4244279861450195 15.718177795410156 5.581523180007935 16.56114959716797 5.918348789215088 C 18.61536407470703 6.689297676086426 19.797767639160156 8.205519676208496 19.9649658203125 10.297926306724548 C 19.9649658203125 10.297926306724548 19.967140197753906 11.019381761550903 19.967140197753906 11.019381761550903 C 19.967140197753906 11.031543970108032 19.967140197753906 11.043706178665161 19.966453552246094 11.05586838722229 C 19.88428497314453 12.701820611953735 19.46417236328125 14.330880880355835 18.719161987304688 15.898285508155823 C 18.32353973388672 16.68832230567932 17.788986206054688 17.403696656227112 17.029441833496094 18.163665771484375 C 16.156944274902344 18.950493097305298 15.125259399414062 19.336305379867554 13.934158325195312 19.336305379867554 Z M 13.934158325195312 6.900953888893127 C 13.20928955078125 6.900953888893127 12.489456176757812 7.035413861274719 11.853965759277344 7.2898067235946655 C 10.350212097167969 7.854335904121399 9.497856140136719 8.934069752693176 9.373802185058594 10.418028116226196 C 9.373802185058594 10.418028116226196 9.376777648925781 11.019381761550903 9.376777648925781 11.019381761550903 C 9.376777648925781 12.397934317588806 9.723991394042969 13.825980305671692 10.407890319824219 15.263485789299011 C 10.668701171875 15.911123394966125 11.09808349609375 16.479030966758728 11.779693603515625 17.09288465976715 C 12.335189819335938 17.58629870414734 13.049301147460938 17.85994839668274 13.787216186523438 17.85994839668274 C 13.787216186523438 17.85994839668274 13.934158325195312 17.85994839668274 13.934158325195312 17.85994839668274 C 14.749092102050781 17.85994839668274 15.44866943359375 17.601839303970337 16.014236450195312 17.09288465976715 C 16.630386352539062 16.475314736366272 17.077163696289062 15.881224632263184 17.392677307128906 15.250478982925415 C 18.045448303222656 13.878852128982544 18.416580200195312 12.444387197494507 18.491539001464844 11.000462770462036 C 18.491539001464844 11.000462770462036 18.491539001464844 10.356879234313965 18.491539001464844 10.356879234313965 C 18.3719482421875 8.892853379249573 17.565597534179688 7.872241377830505 16.027969360351562 7.295549988746643 C 15.341323852539062 7.0207178592681885 14.699996948242188 6.900953888893127 13.934158325195312 6.900953888893127 Z M 19.229339599609375 11.019381761550903 C 19.229339599609375 11.019381761550903 19.236434936523438 11.019381761550903 19.236434936523438 11.019381761550903 C 19.236434936523438 11.019381761550903 19.229339599609375 11.019381761550903 19.229339599609375 11.019381761550903 Z M 14.760536193847656 31.770474433898926 C 14.760536193847656 31.770474433898926 5.108360290527344 31.770474433898926 5.108360290527344 31.770474433898926 C 4.090980529785156 31.770474433898926 2.8257217407226562 31.1721613407135 2.2903671264648438 29.835500836372375 C 2.1065750122070312 29.471985936164856 2.0173110961914062 29.0655654668808 2.0173110961914062 28.530766129493713 C 2.0173110961914062 28.530766129493713 2.0173110961914062 25.904911518096924 2.0173110961914062 25.904911518096924 C 1.874603271484375 25.23294949531555 2.1398773193359375 23.91115391254425 3.4994354248046875 22.928379893302917 C 3.9151992797851562 22.59527051448822 4.446891784667969 22.32803976535797 5.0528564453125 22.154897212982178 C 5.0528564453125 22.154897212982178 8.6051025390625 20.847628712654114 8.6051025390625 20.847628712654114 C 10.011581420898438 20.285295486450195 10.968421936035156 20.67600643634796 11.518997192382812 21.104555368423462 C 11.542686462402344 21.123305439949036 11.565689086914062 21.143744707107544 11.587318420410156 21.165366411209106 C 11.587318420410156 21.165366411209106 11.734375 21.312495350837708 11.734375 21.312495350837708 C 12.001022338867188 21.579726099967957 12.166618347167969 21.82803785800934 12.260345458984375 21.99188983440399 C 12.31298828125 22.033950805664062 12.360481262207031 22.083444237709045 12.40087890625 22.13986337184906 C 12.40087890625 22.13986337184906 13.883003234863281 24.205073952674866 13.883003234863281 24.205073952674866 C 14.130081176757812 23.869768619537354 14.3729248046875 23.523314595222473 14.616455078125 23.17719841003418 C 14.972366333007812 22.671622157096863 15.328392028808594 22.165876984596252 15.703071594238281 21.678881883621216 C 15.7059326171875 21.674996733665466 15.708793640136719 21.671111583709717 15.711654663085938 21.667564272880554 C 15.748390197753906 21.59509778022766 15.808128356933594 21.49002981185913 15.912727355957031 21.386144280433655 C 16.24346160888672 21.055230855941772 16.58563995361328 20.71299982070923 17.172264099121094 20.595600724220276 C 17.172264099121094 20.595600724220276 17.432273864746094 20.529722094535828 17.432273864746094 20.529722094535828 C 17.5223388671875 20.50691795349121 17.615379333496094 20.50151252746582 17.70819091796875 20.51418149471283 C 17.70819091796875 20.51418149471283 18.8114013671875 20.66131043434143 18.8114013671875 20.66131043434143 C 18.867591857910156 20.668911814689636 18.92298126220703 20.682932138442993 18.976425170898438 20.703033566474915 C 18.976425170898438 20.703033566474915 22.65398406982422 22.101349711418152 22.65398406982422 22.101349711418152 C 23.157638549804688 22.2420597076416 23.7607421875 22.558952808380127 24.249862670898438 22.950339436531067 C 24.68004608154297 23.279056906700134 25.031723022460938 23.678889513015747 25.28314971923828 24.12804663181305 C 25.48204803466797 24.484129071235657 25.354446411132812 24.933624029159546 24.99933624267578 25.13261127471924 C 24.643310546875 25.33210527896881 24.19367218017578 25.204739928245544 23.994888305664062 24.849164247512817 C 23.842910766601562 24.576528072357178 23.62238311767578 24.32889199256897 23.34062957763672 24.11335062980652 C 22.99616241455078 23.838011741638184 22.5595703125 23.60676085948944 22.189239501953125 23.500848293304443 C 22.189239501953125 23.500848293304443 18.531707763671875 22.11351191997528 18.531707763671875 22.11351191997528 C 18.531707763671875 22.11351191997528 17.653488159179688 21.99628174304962 17.653488159179688 21.99628174304962 C 17.653488159179688 21.99628174304962 17.49567413330078 22.035640001296997 17.49567413330078 22.035640001296997 C 17.334999084472656 22.068917155265808 17.23772430419922 22.14966070652008 17.003578186035156 22.382600784301758 C 16.971878051757812 22.44324290752411 16.924957275390625 22.52297294139862 16.85228729248047 22.60506784915924 C 16.49774932861328 23.067569613456726 16.160606384277344 23.546963334083557 15.823463439941406 24.026694893836975 C 15.468124389648438 24.531595468521118 15.112899780273438 25.03598928451538 14.739707946777344 25.52213978767395 C 14.739707946777344 25.52213978767395 14.43701171875 25.901195287704468 14.43701171875 25.901195287704468 C 14.292243957519531 26.08160138130188 14.036468505859375 26.18869638442993 13.8419189453125 26.17788553237915 C 13.610633850097656 26.172142267227173 13.395942687988281 26.05812156200409 13.261131286621094 25.870620846748352 C 13.261131286621094 25.870620846748352 11.296981811523438 23.132434725761414 11.296981811523438 23.132434725761414 C 11.226371765136719 23.076353430747986 11.157135009765625 23.002028822898865 11.095909118652344 22.905406832695007 C 11.056312561035156 22.859967470169067 11.023239135742188 22.809460520744324 10.995887756347656 22.755744099617004 C 10.97998046875 22.723987221717834 10.889915466308594 22.55574333667755 10.690330505371094 22.356080412864685 C 10.690330505371094 22.356080412864685 10.578636169433594 22.244086742401123 10.578636169433594 22.244086742401123 C 10.41510009765625 22.122971415519714 10.001510620117188 21.87837588787079 9.133247375488281 22.225674510002136 C 9.133247375488281 22.225674510002136 5.50970458984375 23.55743634700775 5.50970458984375 23.55743634700775 C 5.041412353515625 23.693585515022278 4.682525634765625 23.87162673473358 4.392189025878906 24.103384375572205 C 3.4670486450195312 24.77315044403076 3.454803466796875 25.47078824043274 3.4605255126953125 25.59105896949768 C 3.4821548461914062 25.660991668701172 3.4929122924804688 25.734302759170532 3.4929122924804688 25.808120608329773 C 3.4929122924804688 25.808120608329773 3.4929122924804688 28.530766129493713 3.4929122924804688 28.530766129493713 C 3.4929122924804688 28.875868797302246 3.5477294921875 29.054754614830017 3.6356201171875 29.2307687997818 C 3.9785995483398438 30.081785559654236 4.7207489013671875 30.293948531150818 5.108360290527344 30.293948531150818 C 5.108360290527344 30.293948531150818 14.760536193847656 30.293948531150818 14.760536193847656 30.293948531150818 C 15.168403625488281 30.293948531150818 15.498336791992188 30.624017357826233 15.498336791992188 31.032127022743225 C 15.498336791992188 31.44040560722351 15.168403625488281 31.770474433898926 14.760536193847656 31.770474433898926 Z M 3.4152069091796875 25.47855854034424 C 3.4157791137695312 25.478896379470825 3.4157791137695312 25.479572057724 3.4157791137695312 25.479740977287292 C 3.4157791137695312 25.479572057724 3.4157791137695312 25.478896379470825 3.4152069091796875 25.47855854034424 Z M 11.132072448730469 22.944258332252502 C 11.132072448730469 22.944258332252502 11.132759094238281 22.94510293006897 11.132759094238281 22.94510293006897 C 11.132759094238281 22.94510293006897 11.132072448730469 22.944258332252502 11.132072448730469 22.944258332252502 Z M 15.765670776367188 21.607091069221497 C 15.765670776367188 21.607091069221497 15.764984130859375 21.60725998878479 15.764984130859375 21.60725998878479 C 15.764984130859375 21.60725998878479 15.765670776367188 21.607091069221497 15.765670776367188 21.607091069221497 Z M 22.6712646484375 34.6936274766922 C 22.6712646484375 34.6936274766922 19.229339599609375 34.6936274766922 19.229339599609375 34.6936274766922 C 18.82147216796875 34.6936274766922 18.491539001464844 34.36338973045349 18.491539001464844 33.95544898509979 C 18.491539001464844 33.5473393201828 18.82147216796875 33.21710157394409 19.229339599609375 33.21710157394409 C 19.229339599609375 33.21710157394409 22.6712646484375 33.21710157394409 22.6712646484375 33.21710157394409 C 23.079017639160156 33.21710157394409 23.40906524658203 33.5473393201828 23.40906524658203 33.95544898509979 C 23.40906524658203 34.36338973045349 23.079017639160156 34.6936274766922 22.6712646484375 34.6936274766922 Z M 59.56232452392578 28.049683213233948 C 59.56232452392578 28.049683213233948 57.164329528808594 28.049683213233948 57.164329528808594 28.049683213233948 C 56.75657653808594 28.049683213233948 56.42664337158203 27.719614386558533 56.42664337158203 27.31150472164154 C 56.42664337158203 26.903563976287842 56.75657653808594 26.573326230049133 57.164329528808594 26.573326230049133 C 57.164329528808594 26.573326230049133 59.56232452392578 26.573326230049133 59.56232452392578 26.573326230049133 C 59.970191955566406 26.573326230049133 60.30012512207031 26.903563976287842 60.30012512207031 27.31150472164154 C 60.30012512207031 27.719614386558533 59.970191955566406 28.049683213233948 59.56232452392578 28.049683213233948 Z M 7.914794921875 28.049683213233948 C 7.914794921875 28.049683213233948 5.516914367675781 28.049683213233948 5.516914367675781 28.049683213233948 C 5.109161376953125 28.049683213233948 4.77911376953125 27.719614386558533 4.77911376953125 27.31150472164154 C 4.77911376953125 26.903563976287842 5.109161376953125 26.573326230049133 5.516914367675781 26.573326230049133 C 5.516914367675781 26.573326230049133 7.914794921875 26.573326230049133 7.914794921875 26.573326230049133 C 8.322547912597656 26.573326230049133 8.6527099609375 26.903563976287842 8.6527099609375 27.31150472164154 C 8.6527099609375 27.719614386558533 8.322547912597656 28.049683213233948 7.914794921875 28.049683213233948 Z"/></g></svg>