<svg version="1.1" xmlns="http://www.w3.org/2000/svg" xmlns:xlink="http://www.w3.org/1999/xlink" width="75" height="72"><defs/><g><path fill="rgb(32,170,151)" stroke="none" paint-order="stroke fill markers" fill-rule="evenodd" d=" M 66.73345947265625 28.146848678588867 C 66.02896118164062 28.146848678588867 65.45881652832031 27.57775866985321 65.45881652832031 26.875391125679016 C 65.45881652832031 14.016727209091187 53.00432586669922 3.555369734764099 37.69659423828125 3.555369734764099 C 22.38886260986328 3.555369734764099 9.935630798339844 14.016727209091187 9.935630798339844 26.875391125679016 C 9.935630798339844 27.57775866985321 9.365486145019531 28.146848678588867 8.660987854003906 28.146848678588867 C 7.956489562988281 28.146848678588867 7.38623046875 27.57775866985321 7.38623046875 26.875391125679016 C 7.38623046875 12.613681316375732 20.98352813720703 1.0116100311279297 37.69659423828125 1.0116100311279297 C 54.410919189453125 1.0116100311279297 68.00821685791016 12.613681316375732 68.00821685791016 26.875391125679016 C 68.00821685791016 27.57775866985321 67.43807220458984 28.146848678588867 66.73345947265625 28.146848678588867 Z M 15.641998291015625 52.73765194416046 C 15.641998291015625 52.73765194416046 11.600059509277344 52.73765194416046 11.600059509277344 52.73765194416046 C 6.3020172119140625 52.73765194416046 1.9911422729492188 48.43662202358246 1.9911422729492188 43.150959968566895 C 1.9911422729492188 43.150959968566895 1.9911422729492188 35.80093193054199 1.9911422729492188 35.80093193054199 C 1.9911422729492188 32.55277764797211 3.6318817138671875 29.54888105392456 6.3816680908203125 27.765259385108948 C 6.4301910400390625 27.733333587646484 6.482490539550781 27.70427942276001 6.536048889160156 27.67944824695587 C 6.536048889160156 27.67944824695587 8.426841735839844 26.795661091804504 8.426841735839844 26.795661091804504 C 8.470443725585938 26.775221824645996 8.516448974609375 26.757147431373596 8.562568664550781 26.741437911987305 C 9.629501342773438 26.385355472564697 10.622848510742188 26.211875081062317 11.600059509277344 26.211875081062317 C 11.600059509277344 26.211875081062317 15.641998291015625 26.211875081062317 15.641998291015625 26.211875081062317 C 17.90758514404297 26.211875081062317 19.749855041503906 28.05073344707489 19.749855041503906 30.310877203941345 C 19.749855041503906 30.310877203941345 19.749855041503906 48.64033901691437 19.749855041503906 48.64033901691437 C 19.749855041503906 50.899638175964355 17.90758514404297 52.73765194416046 15.641998291015625 52.73765194416046 Z M 7.7000274658203125 29.944321751594543 C 5.719512939453125 31.26240110397339 4.5405426025390625 33.445348620414734 4.5405426025390625 35.80093193054199 C 4.5405426025390625 35.80093193054199 4.5405426025390625 43.150959968566895 4.5405426025390625 43.150959968566895 C 4.5405426025390625 47.034082889556885 7.7073516845703125 50.19423007965088 11.600059509277344 50.19423007965088 C 11.600059509277344 50.19423007965088 15.641998291015625 50.19423007965088 15.641998291015625 50.19423007965088 C 16.500877380371094 50.19423007965088 17.200454711914062 49.497267961502075 17.200454711914062 48.64033901691437 C 17.200454711914062 48.64033901691437 17.200454711914062 30.310877203941345 17.200454711914062 30.310877203941345 C 17.200454711914062 29.45310366153717 16.500877380371094 28.75580370426178 15.641998291015625 28.75580370426178 C 15.641998291015625 28.75580370426178 11.600059509277344 28.75580370426178 11.600059509277344 28.75580370426178 C 10.921539306640625 28.75580370426178 10.214408874511719 28.878270387649536 9.4388427734375 29.131480813026428 C 9.4388427734375 29.131480813026428 7.7000274658203125 29.944321751594543 7.7000274658203125 29.944321751594543 Z M 13.866905212402344 51.514336466789246 C 13.162178039550781 51.514336466789246 12.592147827148438 50.94592213630676 12.592147827148438 50.242372155189514 C 12.592147827148438 50.242372155189514 12.592147827148438 27.48383939266205 12.592147827148438 27.48383939266205 C 12.592147827148438 26.78130292892456 13.162178039550781 26.211875081062317 13.866905212402344 26.211875081062317 C 14.571403503417969 26.211875081062317 15.141548156738281 26.78130292892456 15.141548156738281 27.48383939266205 C 15.141548156738281 27.48383939266205 15.141548156738281 50.242372155189514 15.141548156738281 50.242372155189514 C 15.141548156738281 50.94592213630676 14.571403503417969 51.514336466789246 13.866905212402344 51.514336466789246 Z M 15.641998291015625 52.73765194416046 C 15.641998291015625 52.73765194416046 11.600059509277344 52.73765194416046 11.600059509277344 52.73765194416046 C 6.3020172119140625 52.73765194416046 1.9911422729492188 48.43662202358246 1.9911422729492188 43.150959968566895 C 1.9911422729492188 43.150959968566895 1.9911422729492188 35.80093193054199 1.9911422729492188 35.80093193054199 C 1.9911422729492188 32.55277764797211 3.6318817138671875 29.54888105392456 6.3816680908203125 27.765259385108948 C 6.4301910400390625 27.733333587646484 6.482490539550781 27.70427942276001 6.536048889160156 27.67944824695587 C 6.536048889160156 27.67944824695587 8.426841735839844 26.795661091804504 8.426841735839844 26.795661091804504 C 8.470443725585938 26.775221824645996 8.516448974609375 26.757147431373596 8.562568664550781 26.741437911987305 C 9.629501342773438 26.385355472564697 10.622848510742188 26.211875081062317 11.600059509277344 26.211875081062317 C 11.600059509277344 26.211875081062317 15.641998291015625 26.211875081062317 15.641998291015625 26.211875081062317 C 17.90758514404297 26.211875081062317 19.749855041503906 28.05073344707489 19.749855041503906 30.310877203941345 C 19.749855041503906 30.310877203941345 19.749855041503906 48.64033901691437 19.749855041503906 48.64033901691437 C 19.749855041503906 50.899638175964355 17.90758514404297 52.73765194416046 15.641998291015625 52.73765194416046 Z M 7.7000274658203125 29.944321751594543 C 5.719512939453125 31.26240110397339 4.5405426025390625 33.445348620414734 4.5405426025390625 35.80093193054199 C 4.5405426025390625 35.80093193054199 4.5405426025390625 43.150959968566895 4.5405426025390625 43.150959968566895 C 4.5405426025390625 47.034082889556885 7.7073516845703125 50.19423007965088 11.600059509277344 50.19423007965088 C 11.600059509277344 50.19423007965088 15.641998291015625 50.19423007965088 15.641998291015625 50.19423007965088 C 16.500877380371094 50.19423007965088 17.200454711914062 49.497267961502075 17.200454711914062 48.64033901691437 C 17.200454711914062 48.64033901691437 17.200454711914062 30.310877203941345 17.200454711914062 30.310877203941345 C 17.200454711914062 29.45310366153717 16.500877380371094 28.75580370426178 15.641998291015625 28.75580370426178 C 15.641998291015625 28.75580370426178 11.600059509277344 28.75580370426178 11.600059509277344 28.75580370426178 C 10.921539306640625 28.75580370426178 10.214408874511719 28.878270387649536 9.4388427734375 29.131480813026428 C 9.4388427734375 29.131480813026428 7.7000274658203125 29.944321751594543 7.7000274658203125 29.944321751594543 Z M 13.866905212402344 51.514336466789246 C 13.162178039550781 51.514336466789246 12.592147827148438 50.94592213630676 12.592147827148438 50.242372155189514 C 12.592147827148438 50.242372155189514 12.592147827148438 27.48383939266205 12.592147827148438 27.48383939266205 C 12.592147827148438 26.78130292892456 13.162178039550781 26.211875081062317 13.866905212402344 26.211875081062317 C 14.571403503417969 26.211875081062317 15.141548156738281 26.78130292892456 15.141548156738281 27.48383939266205 C 15.141548156738281 27.48383939266205 15.141548156738281 50.242372155189514 15.141548156738281 50.242372155189514 C 15.141548156738281 50.94592213630676 14.571403503417969 51.514336466789246 13.866905212402344 51.514336466789246 Z M 63.39739227294922 52.73765194416046 C 63.39739227294922 52.73765194416046 59.35533905029297 52.73765194416046 59.35533905029297 52.73765194416046 C 57.09112548828125 52.73765194416046 55.248626708984375 50.899638175964355 55.248626708984375 48.64033901691437 C 55.248626708984375 48.64033901691437 55.248626708984375 30.310877203941345 55.248626708984375 30.310877203941345 C 55.248626708984375 28.05073344707489 57.09112548828125 26.211875081062317 59.35533905029297 26.211875081062317 C 59.35533905029297 26.211875081062317 63.39739227294922 26.211875081062317 63.39739227294922 26.211875081062317 C 64.37586212158203 26.211875081062317 65.36920928955078 26.385355472564697 66.43602752685547 26.741437911987305 C 66.4820327758789 26.757147431373596 66.52815246582031 26.775221824645996 66.5728988647461 26.796336770057678 C 66.5728988647461 26.796336770057678 68.46266174316406 27.680123925209045 68.46266174316406 27.680123925209045 C 68.51496124267578 27.704955101013184 68.56600189208984 27.732995748519897 68.61578369140625 27.765259385108948 C 71.36431121826172 29.547529697418213 73.00619506835938 32.55159521102905 73.00619506835938 35.80093193054199 C 73.00619506835938 35.80093193054199 73.00619506835938 43.150959968566895 73.00619506835938 43.150959968566895 C 73.00619506835938 48.43662202358246 68.6954345703125 52.73765194416046 63.39739227294922 52.73765194416046 Z M 59.35533905029297 28.75580370426178 C 58.4964599609375 28.75580370426178 57.79802703857422 29.45310366153717 57.79802703857422 30.310877203941345 C 57.79802703857422 30.310877203941345 57.79802703857422 48.64033901691437 57.79802703857422 48.64033901691437 C 57.79802703857422 49.497267961502075 58.4964599609375 50.19423007965088 59.35533905029297 50.19423007965088 C 59.35533905029297 50.19423007965088 63.39739227294922 50.19423007965088 63.39739227294922 50.19423007965088 C 67.28987121582031 50.19423007965088 70.45679473876953 47.034082889556885 70.45679473876953 43.150959968566895 C 70.45679473876953 43.150959968566895 70.45679473876953 35.80093193054199 70.45679473876953 35.80093193054199 C 70.45679473876953 33.44433510303497 69.27667999267578 31.26104974746704 67.29742431640625 29.944321751594543 C 67.29742431640625 29.944321751594543 65.55963897705078 29.131480813026428 65.55963897705078 29.131480813026428 C 64.78407287597656 28.878270387649536 64.07579803466797 28.75580370426178 63.39739227294922 28.75580370426178 C 63.39739227294922 28.75580370426178 59.35533905029297 28.75580370426178 59.35533905029297 28.75580370426178 Z M 61.131805419921875 51.514336466789246 C 60.42719268798828 51.514336466789246 59.85704803466797 50.94592213630676 59.85704803466797 50.242372155189514 C 59.85704803466797 50.242372155189514 59.85704803466797 27.48383939266205 59.85704803466797 27.48383939266205 C 59.85704803466797 26.78130292892456 60.42719268798828 26.211875081062317 61.131805419921875 26.211875081062317 C 61.83641815185547 26.211875081062317 62.40644836425781 26.78130292892456 62.40644836425781 27.48383939266205 C 62.40644836425781 27.48383939266205 62.40644836425781 50.242372155189514 62.40644836425781 50.242372155189514 C 62.40644836425781 50.94592213630676 61.83641815185547 51.514336466789246 61.131805419921875 51.514336466789246 Z M 41.889137268066406 70.0108597278595 C 41.889137268066406 70.0108597278595 35.770896911621094 70.0108597278595 35.770896911621094 70.0108597278595 C 32.953704833984375 70.0108597278595 30.662139892578125 67.72436451911926 30.662139892578125 64.91354298591614 C 30.662139892578125 62.10255253314972 32.953704833984375 59.8157194852829 35.770896911621094 59.8157194852829 C 35.770896911621094 59.8157194852829 41.889137268066406 59.8157194852829 41.889137268066406 59.8157194852829 C 44.706214904785156 59.8157194852829 46.998008728027344 62.10255253314972 46.998008728027344 64.91354298591614 C 46.998008728027344 67.72436451911926 44.706214904785156 70.0108597278595 41.889137268066406 70.0108597278595 Z M 35.770896911621094 62.35947918891907 C 34.359153747558594 62.35947918891907 33.21154022216797 63.504753828048706 33.21154022216797 64.91354298591614 C 33.21154022216797 66.32199430465698 34.359153747558594 67.46726894378662 35.770896911621094 67.46726894378662 C 35.770896911621094 67.46726894378662 41.889137268066406 67.46726894378662 41.889137268066406 67.46726894378662 C 43.30076599121094 67.46726894378662 44.44849395751953 66.32199430465698 44.44849395751953 64.91354298591614 C 44.44849395751953 63.504753828048706 43.30076599121094 62.35947918891907 41.889137268066406 62.35947918891907 C 41.889137268066406 62.35947918891907 35.770896911621094 62.35947918891907 35.770896911621094 62.35947918891907 Z M 50.454925537109375 66.18500053882599 C 50.454925537109375 66.18500053882599 46.61955261230469 66.18500053882599 46.61955261230469 66.18500053882599 C 45.91505432128906 66.18500053882599 45.34479522705078 65.61641728878021 45.34479522705078 64.91354298591614 C 45.34479522705078 64.21016192436218 45.91505432128906 63.641578674316406 46.61955261230469 63.641578674316406 C 46.61955261230469 63.641578674316406 50.454925537109375 63.641578674316406 50.454925537109375 63.641578674316406 C 51.354888916015625 63.641578674316406 52.223724365234375 63.26860427856445 52.970680236816406 62.56319618225098 C 52.970680236816406 62.56319618225098 66.35271453857422 49.90841817855835 66.35271453857422 49.90841817855835 C 66.86415100097656 49.42530822753906 67.67095947265625 49.446423172950745 68.15390014648438 49.95672917366028 C 68.63809967041016 50.466190576553345 68.61681365966797 51.27126121520996 68.10537719726562 51.75403332710266 C 68.10537719726562 51.75403332710266 54.72334289550781 64.40914916992188 54.72334289550781 64.40914916992188 C 53.51347351074219 65.55408596992493 51.99724578857422 66.18500053882599 50.454925537109375 66.18500053882599 Z M 38.68009948730469 53.63377022743225 C 37.975486755371094 53.63377022743225 37.40534210205078 53.064680218696594 37.40534210205078 52.36180591583252 C 37.40534210205078 52.36180591583252 37.40534210205078 47.24844181537628 37.40534210205078 47.24844181537628 C 37.40534210205078 46.54624319076538 37.975486755371094 45.976646423339844 38.68009948730469 45.976646423339844 C 39.38459777832031 45.976646423339844 39.954742431640625 46.54624319076538 39.954742431640625 47.24844181537628 C 39.954742431640625 47.24844181537628 39.954742431640625 52.36180591583252 39.954742431640625 52.36180591583252 C 39.954742431640625 53.064680218696594 39.38459777832031 53.63377022743225 38.68009948730469 53.63377022743225 Z M 47.0377197265625 56.911654353141785 C 46.71167755126953 56.911654353141785 46.385406494140625 56.7873295545578 46.136497497558594 56.53901779651642 C 45.63867950439453 56.04222536087036 45.63867950439453 55.23749256134033 46.136497497558594 54.740193367004395 C 46.136497497558594 54.740193367004395 49.76026916503906 51.12430119514465 49.76026916503906 51.12430119514465 C 50.258201599121094 50.62784659862518 51.064781188964844 50.62784659862518 51.562713623046875 51.12430119514465 C 52.060760498046875 51.621262550354004 52.060760498046875 52.42616426944733 51.562713623046875 52.92312562465668 C 51.562713623046875 52.92312562465668 47.939170837402344 56.53901779651642 47.939170837402344 56.53901779651642 C 47.690147399902344 56.7873295545578 47.36387634277344 56.911654353141785 47.0377197265625 56.911654353141785 Z M 30.471481323242188 56.911654353141785 C 30.14543914794922 56.911654353141785 29.81928253173828 56.7873295545578 29.57037353515625 56.53901779651642 C 29.57037353515625 56.53901779651642 25.94660186767578 52.92312562465668 25.94660186767578 52.92312562465668 C 25.44878387451172 52.42616426944733 25.44878387451172 51.621262550354004 25.94660186767578 51.12430119514465 C 26.44464874267578 50.62784659862518 27.25122833251953 50.62784659862518 27.749160766601562 51.12430119514465 C 27.749160766601562 51.12430119514465 31.372817993164062 54.740193367004395 31.372817993164062 54.740193367004395 C 31.870864868164062 55.23749256134033 31.870864868164062 56.04222536087036 31.372817993164062 56.53901779651642 C 31.12390899658203 56.7873295545578 30.797752380371094 56.911654353141785 30.471481323242188 56.911654353141785 Z"/></g></svg>