<svg version="1.1" xmlns="http://www.w3.org/2000/svg" xmlns:xlink="http://www.w3.org/1999/xlink" width="79" height="72"><defs/><g><path fill="rgb(32,170,151)" stroke="none" paint-order="stroke fill markers" fill-rule="evenodd" d=" M 33.40336608886719 53.056549072265625 C 18.85918426513672 53.056549072265625 7.027366638183594 41.38099777698517 7.027366638183594 27.02959167957306 C 7.027366638183594 12.67869234085083 18.85918426513672 1.003309965133667 33.40336608886719 1.003309965133667 C 47.947547912597656 1.003309965133667 59.77925109863281 12.67869234085083 59.77925109863281 27.02959167957306 C 59.77925109863281 41.38099777698517 47.947547912597656 53.056549072265625 33.40336608886719 53.056549072265625 Z M 33.40336608886719 3.536596655845642 C 20.275619506835938 3.536596655845642 9.594505310058594 14.075826048851013 9.594505310058594 27.02959167957306 C 9.594505310058594 39.984370827674866 20.275619506835938 50.52343130111694 33.40336608886719 50.52343130111694 C 46.53111267089844 50.52343130111694 57.21211242675781 39.984370827674866 57.21211242675781 27.02959167957306 C 57.21211242675781 14.075826048851013 46.53111267089844 3.536596655845642 33.40336608886719 3.536596655845642 Z M 56.95759582519531 51.30907618999481 C 56.62926483154297 51.30907618999481 56.300819396972656 51.185089230537415 56.050079345703125 50.93795990943909 C 56.050079345703125 50.93795990943909 50.35298156738281 45.31614792346954 50.35298156738281 45.31614792346954 C 49.85150146484375 44.82138252258301 49.85150146484375 44.02002811431885 50.35298156738281 43.52526271343231 C 50.854461669921875 43.03032839298248 51.666648864746094 43.03032839298248 52.168128967285156 43.52526271343231 C 52.168128967285156 43.52526271343231 57.8651123046875 49.14690577983856 57.8651123046875 49.14690577983856 C 58.36659240722656 49.6416711807251 58.36659240722656 50.44302558898926 57.8651123046875 50.93795990943909 C 57.61448669433594 51.185089230537415 57.286041259765625 51.30907618999481 56.95759582519531 51.30907618999481 Z M 67.9380874633789 70.01353943347931 C 66.41888427734375 70.01353943347931 64.8996810913086 69.4432669878006 63.7427978515625 68.30170857906342 C 63.7427978515625 68.30170857906342 53.33256530761719 58.02920317649841 53.33256530761719 58.02920317649841 C 52.657020568847656 57.36247766017914 52.284629821777344 56.47683238983154 52.284629821777344 55.533078789711 C 52.284629821777344 54.5906765460968 52.657020568847656 53.70503127574921 53.33256530761719 53.037967920303345 C 53.33256530761719 53.037967920303345 59.77925109863281 46.676119327545166 59.77925109863281 46.676119327545166 C 61.17302703857422 45.300607323646545 63.44445037841797 45.300100564956665 64.83834075927734 46.67544364929199 C 64.83834075927734 46.67544364929199 75.247314453125 56.94811797142029 75.247314453125 56.94811797142029 C 77.56119537353516 59.23140370845795 77.56119537353516 62.94695842266083 75.247314453125 65.23041307926178 C 75.247314453125 65.23041307926178 72.13612365722656 68.30170857906342 72.13612365722656 68.30170857906342 C 70.97924041748047 69.4432669878006 69.45866394042969 70.01353943347931 67.9380874633789 70.01353943347931 Z M 62.30885314941406 48.176125049591064 C 62.050559997558594 48.176125049591064 61.79112243652344 48.2732537984848 61.59416961669922 48.46768021583557 C 61.59416961669922 48.46768021583557 55.14759826660156 54.82935988903046 55.14759826660156 54.82935988903046 C 54.75392150878906 55.217705965042114 54.75392150878906 55.84980297088623 55.14759826660156 56.23814904689789 C 55.14759826660156 56.23814904689789 65.5577163696289 66.51082336902618 65.5577163696289 66.51082336902618 C 66.87149810791016 67.80457830429077 69.0074234008789 67.80457830429077 70.32109069824219 66.51082336902618 C 70.32109069824219 66.51082336902618 73.43216705322266 63.439358949661255 73.43216705322266 63.439358949661255 C 73.43216705322266 63.439358949661255 73.43216705322266 63.439358949661255 73.43216705322266 63.439358949661255 C 74.74583435058594 62.143070220947266 74.74583435058594 60.03529191017151 73.43216705322266 58.73917210102081 C 73.43216705322266 58.73917210102081 63.023193359375 48.467342376708984 63.023193359375 48.467342376708984 C 62.82646942138672 48.2732537984848 62.56817626953125 48.176125049591064 62.30885314941406 48.176125049591064 Z M 3.2519607543945312 48.68812024593353 C 2.91973876953125 48.68812024593353 2.5876312255859375 48.56176841259003 2.3367767333984375 48.30974042415619 C 1.8391876220703125 47.811089873313904 1.84674072265625 47.008890867233276 2.3518829345703125 46.518179535865784 C 2.3518829345703125 46.518179535865784 10.710189819335938 38.40632426738739 10.710189819335938 38.40632426738739 C 11.214073181152344 37.91476833820343 12.028892517089844 37.92253863811493 12.525222778320312 38.421189188957214 C 13.022811889648438 38.91950190067291 13.015373229980469 39.72153198719025 12.510231018066406 40.212074398994446 C 12.510231018066406 40.212074398994446 4.151924133300781 48.324267506599426 4.151924133300781 48.324267506599426 C 3.902557373046875 48.56666707992554 3.5765151977539062 48.68812024593353 3.2519607543945312 48.68812024593353 Z M 56.698158264160156 15.274817109107971 C 56.365936279296875 15.274817109107971 56.03382873535156 15.148634195327759 55.78308868408203 14.896268367767334 C 55.28538513183594 14.397786736488342 55.293052673339844 13.595756649971008 55.79808044433594 13.105383157730103 C 55.79808044433594 13.105383157730103 64.1562728881836 4.992514371871948 64.1562728881836 4.992514371871948 C 64.66038513183594 4.501971960067749 65.47509002685547 4.507546305656433 65.97142028808594 5.007210373878479 C 66.46912384033203 5.505860924720764 66.46145629882812 6.307722091674805 65.95642852783203 6.798264503479004 C 65.95642852783203 6.798264503479004 57.598236083984375 14.911302208900452 57.598236083984375 14.911302208900452 C 57.3487548828125 15.153870701789856 57.02271270751953 15.274817109107971 56.698158264160156 15.274817109107971 Z M 67.06696319580078 12.943389296531677 C 66.3575439453125 12.943389296531677 65.78339385986328 12.376157402992249 65.78339385986328 11.676830410957336 C 65.78339385986328 11.676830410957336 65.78339385986328 5.013967156410217 65.78339385986328 5.013967156410217 C 65.78339385986328 5.013967156410217 59.030921936035156 5.013967156410217 59.030921936035156 5.013967156410217 C 58.321388244628906 5.013967156410217 57.747352600097656 4.446735262870789 57.747352600097656 3.7474082708358765 C 57.747352600097656 3.048250198364258 58.321388244628906 2.4808493852615356 59.030921936035156 2.4808493852615356 C 59.030921936035156 2.4808493852615356 67.06696319580078 2.4808493852615356 67.06696319580078 2.4808493852615356 C 67.77649688720703 2.4808493852615356 68.35053253173828 3.048250198364258 68.35053253173828 3.7474082708358765 C 68.35053253173828 3.7474082708358765 68.35053253173828 11.676830410957336 68.35053253173828 11.676830410957336 C 68.35053253173828 12.376157402992249 67.77649688720703 12.943389296531677 67.06696319580078 12.943389296531677 Z M 17.930381774902344 33.34363603591919 C 17.596900939941406 33.34363603591919 17.262161254882812 33.215426087379456 17.01142120361328 32.96069538593292 C 16.51634979248047 32.45984888076782 16.52630615234375 31.65832555294037 17.033966064453125 31.169641256332397 C 17.033966064453125 31.169641256332397 27.53197479248047 21.076021671295166 27.53197479248047 21.076021671295166 C 28.029563903808594 20.599161744117737 28.820465087890625 20.597472548484802 29.31816864013672 21.071123003959656 C 29.31816864013672 21.071123003959656 39.01646423339844 30.284502744674683 39.01646423339844 30.284502744674683 C 39.01646423339844 30.284502744674683 47.95018005371094 21.10558259487152 47.95018005371094 21.10558259487152 C 48.44273376464844 20.60220229625702 49.254920959472656 20.585479259490967 49.765098571777344 21.069771647453308 C 50.276649475097656 21.55406403541565 50.29290008544922 22.356094121932983 49.80274963378906 22.860825777053833 C 49.80274963378906 22.860825777053833 39.97776794433594 32.95461428165436 39.97776794433594 32.95461428165436 C 39.740989685058594 33.19718277454376 39.417579650878906 33.336541414260864 39.07666015625 33.34363603591919 C 38.76709747314453 33.34921038150787 38.40729522705078 33.22285854816437 38.161590576171875 32.98907387256622 C 38.161590576171875 32.98907387256622 28.433311462402344 23.746302127838135 28.433311462402344 23.746302127838135 C 28.433311462402344 23.746302127838135 18.826568603515625 32.98417520523071 18.826568603515625 32.98417520523071 C 18.57708740234375 33.22404098510742 18.253677368164062 33.34363603591919 17.930381774902344 33.34363603591919 Z"/></g></svg>