<svg version="1.1" xmlns="http://www.w3.org/2000/svg" xmlns:xlink="http://www.w3.org/1999/xlink" width="57" height="55"><defs/><g><path fill="rgb(32,170,151)" stroke="none" paint-order="stroke fill markers" fill-rule="evenodd" d=" M 50.236572265625 22.441200852394104 C 49.70087432861328 22.441200852394104 49.26725769042969 22.012145161628723 49.26725769042969 21.482582330703735 C 49.26725769042969 11.790484547615051 39.797386169433594 3.905319333076477 28.157943725585938 3.905319333076477 C 16.51861572265625 3.905319333076477 7.049659729003906 11.790484547615051 7.049659729003906 21.482582330703735 C 7.049659729003906 22.012145161628723 6.6160430908203125 22.441200852394104 6.080345153808594 22.441200852394104 C 5.544647216796875 22.441200852394104 5.11114501953125 22.012145161628723 5.11114501953125 21.482582330703735 C 5.11114501953125 10.732879161834717 15.450080871582031 1.9877444505691528 28.157943725585938 1.9877444505691528 C 40.86683654785156 1.9877444505691528 51.205772399902344 10.732879161834717 51.205772399902344 21.482582330703735 C 51.205772399902344 22.012145161628723 50.77227020263672 22.441200852394104 50.236572265625 22.441200852394104 Z M 11.388458251953125 40.97691345214844 C 11.388458251953125 40.97691345214844 8.315147399902344 40.97691345214844 8.315147399902344 40.97691345214844 C 4.286712646484375 40.97691345214844 1.0088958740234375 37.73450243473053 1.0088958740234375 33.75036561489105 C 1.0088958740234375 33.75036561489105 1.0088958740234375 28.21064853668213 1.0088958740234375 28.21064853668213 C 1.0088958740234375 25.762328386306763 2.2564163208007812 23.49796164035797 4.3473663330078125 22.153361916542053 C 4.38421630859375 22.12971317768097 4.423927307128906 22.10775363445282 4.464668273925781 22.089003562927246 C 4.464668273925781 22.089003562927246 5.9023895263671875 21.422615885734558 5.9023895263671875 21.422615885734558 C 5.935577392578125 21.407244205474854 5.9705963134765625 21.393730640411377 6.005500793457031 21.38207519054413 C 6.8167724609375 21.113155245780945 7.57208251953125 20.982749342918396 8.315147399902344 20.982749342918396 C 8.315147399902344 20.982749342918396 11.388458251953125 20.982749342918396 11.388458251953125 20.982749342918396 C 13.111137390136719 20.982749342918396 14.512008666992188 22.368903279304504 14.512008666992188 24.07245707511902 C 14.512008666992188 24.07245707511902 14.512008666992188 37.888219237327576 14.512008666992188 37.888219237327576 C 14.512008666992188 39.59126627445221 13.111137390136719 40.97691345214844 11.388458251953125 40.97691345214844 Z M 5.349639892578125 23.796104669570923 C 3.8438262939453125 24.78935170173645 2.9474105834960938 26.434797167778015 2.9474105834960938 28.21064853668213 C 2.9474105834960938 28.21064853668213 2.9474105834960938 33.75036561489105 2.9474105834960938 33.75036561489105 C 2.9474105834960938 36.67757272720337 5.3553619384765625 39.05933856964111 8.315147399902344 39.05933856964111 C 8.315147399902344 39.05933856964111 11.388458251953125 39.05933856964111 11.388458251953125 39.05933856964111 C 12.04168701171875 39.05933856964111 12.5736083984375 38.534167647361755 12.5736083984375 37.888219237327576 C 12.5736083984375 37.888219237327576 12.5736083984375 24.07245707511902 12.5736083984375 24.07245707511902 C 12.5736083984375 23.42566406726837 12.04168701171875 22.90032422542572 11.388458251953125 22.90032422542572 C 11.388458251953125 22.90032422542572 8.315147399902344 22.90032422542572 8.315147399902344 22.90032422542572 C 7.799247741699219 22.90032422542572 7.261604309082031 22.99272322654724 6.6718902587890625 23.18326449394226 C 6.6718902587890625 23.18326449394226 5.349639892578125 23.796104669570923 5.349639892578125 23.796104669570923 Z M 10.038742065429688 40.05444371700287 C 9.503044128417969 40.05444371700287 9.069541931152344 39.62589478492737 9.069541931152344 39.0958251953125 C 9.069541931152344 39.0958251953125 9.069541931152344 21.941536784172058 9.069541931152344 21.941536784172058 C 9.069541931152344 21.411805033683777 9.503044128417969 20.982749342918396 10.038742065429688 20.982749342918396 C 10.574440002441406 20.982749342918396 11.007942199707031 21.411805033683777 11.007942199707031 21.941536784172058 C 11.007942199707031 21.941536784172058 11.007942199707031 39.0958251953125 11.007942199707031 39.0958251953125 C 11.007942199707031 39.62589478492737 10.574440002441406 40.05444371700287 10.038742065429688 40.05444371700287 Z M 11.388458251953125 40.97691345214844 C 11.388458251953125 40.97691345214844 8.315147399902344 40.97691345214844 8.315147399902344 40.97691345214844 C 4.286712646484375 40.97691345214844 1.0088958740234375 37.73450243473053 1.0088958740234375 33.75036561489105 C 1.0088958740234375 33.75036561489105 1.0088958740234375 28.21064853668213 1.0088958740234375 28.21064853668213 C 1.0088958740234375 25.762328386306763 2.2564163208007812 23.49796164035797 4.3473663330078125 22.153361916542053 C 4.38421630859375 22.12971317768097 4.423927307128906 22.10775363445282 4.464668273925781 22.089003562927246 C 4.464668273925781 22.089003562927246 5.9023895263671875 21.422615885734558 5.9023895263671875 21.422615885734558 C 5.935577392578125 21.407244205474854 5.9705963134765625 21.393730640411377 6.005500793457031 21.38207519054413 C 6.8167724609375 21.113155245780945 7.57208251953125 20.982749342918396 8.315147399902344 20.982749342918396 C 8.315147399902344 20.982749342918396 11.388458251953125 20.982749342918396 11.388458251953125 20.982749342918396 C 13.111137390136719 20.982749342918396 14.512008666992188 22.368903279304504 14.512008666992188 24.07245707511902 C 14.512008666992188 24.07245707511902 14.512008666992188 37.888219237327576 14.512008666992188 37.888219237327576 C 14.512008666992188 39.59126627445221 13.111137390136719 40.97691345214844 11.388458251953125 40.97691345214844 Z M 5.349639892578125 23.796104669570923 C 3.8438262939453125 24.78935170173645 2.9474105834960938 26.434797167778015 2.9474105834960938 28.21064853668213 C 2.9474105834960938 28.21064853668213 2.9474105834960938 33.75036561489105 2.9474105834960938 33.75036561489105 C 2.9474105834960938 36.67757272720337 5.3553619384765625 39.05933856964111 8.315147399902344 39.05933856964111 C 8.315147399902344 39.05933856964111 11.388458251953125 39.05933856964111 11.388458251953125 39.05933856964111 C 12.04168701171875 39.05933856964111 12.5736083984375 38.534167647361755 12.5736083984375 37.888219237327576 C 12.5736083984375 37.888219237327576 12.5736083984375 24.07245707511902 12.5736083984375 24.07245707511902 C 12.5736083984375 23.42566406726837 12.04168701171875 22.90032422542572 11.388458251953125 22.90032422542572 C 11.388458251953125 22.90032422542572 8.315147399902344 22.90032422542572 8.315147399902344 22.90032422542572 C 7.799247741699219 22.90032422542572 7.261604309082031 22.99272322654724 6.6718902587890625 23.18326449394226 C 6.6718902587890625 23.18326449394226 5.349639892578125 23.796104669570923 5.349639892578125 23.796104669570923 Z M 10.038742065429688 40.05444371700287 C 9.503044128417969 40.05444371700287 9.069541931152344 39.62589478492737 9.069541931152344 39.0958251953125 C 9.069541931152344 39.0958251953125 9.069541931152344 21.941536784172058 9.069541931152344 21.941536784172058 C 9.069541931152344 21.411805033683777 9.503044128417969 20.982749342918396 10.038742065429688 20.982749342918396 C 10.574440002441406 20.982749342918396 11.007942199707031 21.411805033683777 11.007942199707031 21.941536784172058 C 11.007942199707031 21.941536784172058 11.007942199707031 39.0958251953125 11.007942199707031 39.0958251953125 C 11.007942199707031 39.62589478492737 10.574440002441406 40.05444371700287 10.038742065429688 40.05444371700287 Z M 47.69976043701172 40.97691345214844 C 47.69976043701172 40.97691345214844 44.62644958496094 40.97691345214844 44.62644958496094 40.97691345214844 C 42.90480041503906 40.97691345214844 41.503929138183594 39.59126627445221 41.503929138183594 37.888219237327576 C 41.503929138183594 37.888219237327576 41.503929138183594 24.07245707511902 41.503929138183594 24.07245707511902 C 41.503929138183594 22.368903279304504 42.90480041503906 20.982749342918396 44.62644958496094 20.982749342918396 C 44.62644958496094 20.982749342918396 47.69976043701172 20.982749342918396 47.69976043701172 20.982749342918396 C 48.44374084472656 20.982749342918396 49.19916534423828 21.113155245780945 50.01032257080078 21.38207519054413 C 50.04534149169922 21.393730640411377 50.080360412597656 21.407244205474854 50.114349365234375 21.42312264442444 C 50.114349365234375 21.42312264442444 51.55126953125 22.089341402053833 51.55126953125 22.089341402053833 C 51.591094970703125 22.108091473579407 51.62977600097656 22.129375338554382 51.66765594482422 22.153361916542053 C 53.75746154785156 23.496779203414917 55.006011962890625 25.76114594936371 55.006011962890625 28.21064853668213 C 55.006011962890625 28.21064853668213 55.006011962890625 33.75036561489105 55.006011962890625 33.75036561489105 C 55.006011962890625 37.73450243473053 51.72819519042969 40.97691345214844 47.69976043701172 40.97691345214844 Z M 44.62644958496094 22.90032422542572 C 43.97333526611328 22.90032422542572 43.44232940673828 23.42566406726837 43.44232940673828 24.07245707511902 C 43.44232940673828 24.07245707511902 43.44232940673828 37.888219237327576 43.44232940673828 37.888219237327576 C 43.44232940673828 38.534167647361755 43.97333526611328 39.05933856964111 44.62644958496094 39.05933856964111 C 44.62644958496094 39.05933856964111 47.69976043701172 39.05933856964111 47.69976043701172 39.05933856964111 C 50.6595458984375 39.05933856964111 53.06749725341797 36.67757272720337 53.06749725341797 33.75036561489105 C 53.06749725341797 33.75036561489105 53.06749725341797 28.21064853668213 53.06749725341797 28.21064853668213 C 53.06749725341797 26.433783650398254 52.17028045654297 24.788507103919983 50.66526794433594 23.796104669570923 C 50.66526794433594 23.796104669570923 49.34393310546875 23.18326449394226 49.34393310546875 23.18326449394226 C 48.75433349609375 22.99272322654724 48.215660095214844 22.90032422542572 47.69976043701172 22.90032422542572 C 47.69976043701172 22.90032422542572 44.62644958496094 22.90032422542572 44.62644958496094 22.90032422542572 Z M 45.977195739746094 40.05444371700287 C 45.441383361816406 40.05444371700287 45.00799560546875 39.62589478492737 45.00799560546875 39.0958251953125 C 45.00799560546875 39.0958251953125 45.00799560546875 21.941536784172058 45.00799560546875 21.941536784172058 C 45.00799560546875 21.411805033683777 45.441383361816406 20.982749342918396 45.977195739746094 20.982749342918396 C 46.51289367675781 20.982749342918396 46.94639587402344 21.411805033683777 46.94639587402344 21.941536784172058 C 46.94639587402344 21.941536784172058 46.94639587402344 39.0958251953125 46.94639587402344 39.0958251953125 C 46.94639587402344 39.62589478492737 46.51289367675781 40.05444371700287 45.977195739746094 40.05444371700287 Z M 31.345809936523438 53.99638879299164 C 31.345809936523438 53.99638879299164 26.69367218017578 53.99638879299164 26.69367218017578 53.99638879299164 C 24.551681518554688 53.99638879299164 22.8092041015625 52.272902488708496 22.8092041015625 50.15397548675537 C 22.8092041015625 48.03521740436554 24.551681518554688 46.311562180519104 26.69367218017578 46.311562180519104 C 26.69367218017578 46.311562180519104 31.345809936523438 46.311562180519104 31.345809936523438 46.311562180519104 C 33.48780059814453 46.311562180519104 35.23039245605469 48.03521740436554 35.23039245605469 50.15397548675537 C 35.23039245605469 52.272902488708496 33.48780059814453 53.99638879299164 31.345809936523438 53.99638879299164 Z M 26.69367218017578 48.22913706302643 C 25.620330810546875 48.22913706302643 24.747718811035156 49.092316031455994 24.747718811035156 50.15397548675537 C 24.747718811035156 51.21563494205475 25.620330810546875 52.07898283004761 26.69367218017578 52.07898283004761 C 26.69367218017578 52.07898283004761 31.345809936523438 52.07898283004761 31.345809936523438 52.07898283004761 C 32.41926574707031 52.07898283004761 33.29187774658203 51.21563494205475 33.29187774658203 50.15397548675537 C 33.29187774658203 49.092316031455994 32.41926574707031 48.22913706302643 31.345809936523438 48.22913706302643 C 31.345809936523438 48.22913706302643 26.69367218017578 48.22913706302643 26.69367218017578 48.22913706302643 Z M 37.85887145996094 51.11259400844574 C 37.85887145996094 51.11259400844574 34.94268798828125 51.11259400844574 34.94268798828125 51.11259400844574 C 34.40699005126953 51.11259400844574 33.97337341308594 50.683876156806946 33.97337341308594 50.15397548675537 C 33.97337341308594 49.62424373626709 34.40699005126953 49.19518804550171 34.94268798828125 49.19518804550171 C 34.94268798828125 49.19518804550171 37.85887145996094 49.19518804550171 37.85887145996094 49.19518804550171 C 38.54322814941406 49.19518804550171 39.203895568847656 48.91444373130798 39.771751403808594 48.382853865623474 C 39.771751403808594 48.382853865623474 49.946922302246094 38.84413504600525 49.946922302246094 38.84413504600525 C 50.335906982421875 38.47977554798126 50.949310302734375 38.49582290649414 51.316551208496094 38.880621671676636 C 51.684593200683594 39.264575839042664 51.66857147216797 39.870997071266174 51.27958679199219 40.23535656929016 C 51.27958679199219 40.23535656929016 41.10441589355469 49.77390646934509 41.10441589355469 49.77390646934509 C 40.184425354003906 50.63708543777466 39.03166198730469 51.11259400844574 37.85887145996094 51.11259400844574 Z M 28.90570068359375 41.6517471075058 C 28.37000274658203 41.6517471075058 27.936500549316406 41.2231981754303 27.936500549316406 40.69312858581543 C 27.936500549316406 40.69312858581543 27.936500549316406 36.839059829711914 27.936500549316406 36.839059829711914 C 27.936500549316406 36.30966591835022 28.37000274658203 35.88027238845825 28.90570068359375 35.88027238845825 C 29.44139862060547 35.88027238845825 29.875015258789062 36.30966591835022 29.875015258789062 36.839059829711914 C 29.875015258789062 36.839059829711914 29.875015258789062 40.69312858581543 29.875015258789062 40.69312858581543 C 29.875015258789062 41.2231981754303 29.44139862060547 41.6517471075058 28.90570068359375 41.6517471075058 Z M 35.26060485839844 44.12270247936249 C 35.012611389160156 44.12270247936249 34.764617919921875 44.02912104129791 34.57533264160156 43.84178924560547 C 34.19676208496094 43.467294573783875 34.19676208496094 42.86070442199707 34.57533264160156 42.486209750175476 C 34.57533264160156 42.486209750175476 37.330726623535156 39.76052367687225 37.330726623535156 39.76052367687225 C 37.70929718017578 39.386366844177246 38.32270050048828 39.386366844177246 38.701271057128906 39.76052367687225 C 39.07984161376953 40.13518726825714 39.07984161376953 40.741777420043945 38.701271057128906 41.11660993099213 C 38.701271057128906 41.11660993099213 35.94599151611328 43.84178924560547 35.94599151611328 43.84178924560547 C 35.75670623779297 44.02912104129791 35.50859832763672 44.12270247936249 35.26060485839844 44.12270247936249 Z M 22.664321899414062 44.12270247936249 C 22.41632843017578 44.12270247936249 22.1683349609375 44.02912104129791 21.979049682617188 43.84178924560547 C 21.979049682617188 43.84178924560547 19.223770141601562 41.11660993099213 19.223770141601562 41.11660993099213 C 18.84508514404297 40.741777420043945 18.84508514404297 40.13518726825714 19.223770141601562 39.76052367687225 C 19.602455139160156 39.386366844177246 20.215744018554688 39.386366844177246 20.594314575195312 39.76052367687225 C 20.594314575195312 39.76052367687225 23.349594116210938 42.486209750175476 23.349594116210938 42.486209750175476 C 23.72827911376953 42.86070442199707 23.72827911376953 43.467294573783875 23.349594116210938 43.84178924560547 C 23.160423278808594 44.02912104129791 22.912315368652344 44.12270247936249 22.664321899414062 44.12270247936249 Z"/></g></svg>