<svg version="1.1" xmlns="http://www.w3.org/2000/svg" xmlns:xlink="http://www.w3.org/1999/xlink" width="46" height="45"><defs/><g><path fill="rgb(32,170,151)" stroke="none" paint-order="stroke fill markers" fill-rule="evenodd" d=" M 17.841720581054688 33.45042622089386 C 9.1064453125 33.45042622089386 1.9994354248046875 26.173033595085144 1.9994354248046875 17.22756028175354 C 1.9994354248046875 8.282593727111816 9.1064453125 1.005370020866394 17.841720581054688 1.005370020866394 C 26.577796936035156 1.005370020866394 33.68480682373047 8.282593727111816 33.68480682373047 17.22756028175354 C 33.68480682373047 26.173033595085144 26.577796936035156 33.45042622089386 17.841720581054688 33.45042622089386 Z M 17.841720581054688 2.6104437112808228 C 9.970703125 2.6104437112808228 3.5672760009765625 9.167563319206238 3.5672760009765625 17.22756028175354 C 3.5672760009765625 25.287726163864136 9.970703125 31.845014691352844 17.841720581054688 31.845014691352844 C 25.713539123535156 31.845014691352844 32.116966247558594 25.287726163864136 32.116966247558594 17.22756028175354 C 32.116966247558594 9.167563319206238 25.713539123535156 2.6104437112808228 17.841720581054688 2.6104437112808228 Z M 31.977691650390625 32.3624153137207 C 31.777191162109375 32.3624153137207 31.576576232910156 32.28403663635254 31.42345428466797 32.12727928161621 C 31.42345428466797 32.12727928161621 28.0047607421875 28.626083493232727 28.0047607421875 28.626083493232727 C 27.698516845703125 28.31256878376007 27.698516845703125 27.804627656936646 28.0047607421875 27.490944027900696 C 28.310890197753906 27.17742931842804 28.806991577148438 27.17742931842804 29.113121032714844 27.490944027900696 C 29.113121032714844 27.490944027900696 32.53204345703125 30.992308735847473 32.53204345703125 30.992308735847473 C 32.83805847167969 31.30582344532013 32.83805847167969 31.813764572143555 32.53204345703125 32.12727928161621 C 32.37892150878906 32.28403663635254 32.178192138671875 32.3624153137207 31.977691650390625 32.3624153137207 Z M 38.56880187988281 43.99252724647522 C 37.60028839111328 43.99252724647522 36.69013977050781 43.60620820522308 36.00578308105469 42.90451633930206 C 36.00578308105469 42.90451633930206 29.810523986816406 36.560742139816284 29.810523986816406 36.560742139816284 C 29.397964477539062 36.13894999027252 29.170570373535156 35.57695460319519 29.170570373535156 34.97881042957306 C 29.170570373535156 34.381510853767395 29.397964477539062 33.81951546669006 29.810523986816406 33.39721655845642 C 29.810523986816406 33.39721655845642 33.644866943359375 29.470681309700012 33.644866943359375 29.470681309700012 C 34.496192932128906 28.599056363105774 35.883331298828125 28.598718523979187 36.73454284667969 29.470343470573425 C 36.73454284667969 29.470343470573425 42.92980194091797 35.815131187438965 42.92980194091797 35.815131187438965 C 44.34303283691406 37.26158940792084 44.34303283691406 39.616159200668335 42.92980194091797 41.063968777656555 C 42.92980194091797 41.063968777656555 42.92980194091797 41.063968777656555 42.92980194091797 41.063968777656555 C 42.92980194091797 41.063968777656555 41.13170623779297 42.90451633930206 41.13170623779297 42.90451633930206 C 40.44746398925781 43.60620820522308 39.537086486816406 43.99252724647522 38.56880187988281 43.99252724647522 Z M 35.1898193359375 30.421698451042175 C 35.03211975097656 30.421698451042175 34.873619079589844 30.482678413391113 34.753456115722656 30.605820775032043 C 34.753456115722656 30.605820775032043 30.91899871826172 34.53286278247833 30.91899871826172 34.53286278247833 C 30.801925659179688 34.65211999416351 30.73841094970703 34.81039762496948 30.73841094970703 34.97881042957306 C 30.73841094970703 35.1482367515564 30.801925659179688 35.306514382362366 30.91899871826172 35.42492699623108 C 30.91899871826172 35.42492699623108 37.1142578125 41.769545793533325 37.1142578125 41.769545793533325 C 37.892112731933594 42.566001534461975 39.24537658691406 42.566001534461975 40.02311706542969 41.769545793533325 C 40.02311706542969 41.769545793533325 41.821327209472656 39.92899823188782 41.821327209472656 39.92899823188782 C 42.62287139892578 39.107542395591736 42.62287139892578 37.771050810813904 41.821327209472656 36.950270652770996 C 41.821327209472656 36.950270652770996 35.626068115234375 30.605820775032043 35.626068115234375 30.605820775032043 C 35.50590515136719 30.482678413391113 35.34832000732422 30.421698451042175 35.1898193359375 30.421698451042175 Z M 42.37567901611328 40.49656796455383 C 42.37567901611328 40.49656796455383 42.38334655761719 40.49656796455383 42.38334655761719 40.49656796455383 C 42.38334655761719 40.49656796455383 42.37567901611328 40.49656796455383 42.37567901611328 40.49656796455383 Z M 9.021415710449219 12.923320889472961 C 8.869895935058594 12.923320889472961 8.716087341308594 12.878388285636902 8.581390380859375 12.784300088882446 C 8.223075866699219 12.535143733024597 8.1304931640625 12.035817503929138 8.373908996582031 11.66943097114563 C 10.0970458984375 9.077191352844238 12.359199523925781 7.1856300830841064 15.098228454589844 6.04778790473938 C 15.49774169921875 5.881908893585205 15.956306457519531 6.078362345695496 16.11927032470703 6.49001932144165 C 16.281661987304688 6.900493860244751 16.088714599609375 7.369076728820801 15.687599182128906 7.535631418228149 C 13.240165710449219 8.55202043056488 11.215476989746094 10.246621489524841 9.670639038085938 12.572306036949158 C 9.5184326171875 12.800347447395325 9.272613525390625 12.923320889472961 9.021415710449219 12.923320889472961 Z M 35.689697265625 42.24927735328674 C 35.48908233642578 42.24927735328674 35.28846740722656 42.17089867591858 35.135459899902344 42.014310240745544 C 34.82933044433594 41.7004576921463 34.82933044433594 41.19268548488617 35.135459899902344 40.87900185585022 C 35.135459899902344 40.87900185585022 40.29651641845703 35.59418439865112 40.29651641845703 35.59418439865112 C 40.602760314941406 35.28050076961517 41.09874725341797 35.28050076961517 41.404991149902344 35.59418439865112 C 41.71112060546875 35.90769910812378 41.71112060546875 36.4158091545105 41.404991149902344 36.72915494441986 C 41.404991149902344 36.72915494441986 36.24382019042969 42.014310240745544 36.24382019042969 42.014310240745544 C 36.0906982421875 42.17089867591858 35.89019775390625 42.24927735328674 35.689697265625 42.24927735328674 Z"/></g></svg>